<?xml version="1.0" encoding="UTF-8" standalone="no"?>
<!-- Created with Inkscape (http://www.inkscape.org/) -->

<svg
   xmlns:dc="http://purl.org/dc/elements/1.1/"
   xmlns:cc="http://creativecommons.org/ns#"
   xmlns:rdf="http://www.w3.org/1999/02/22-rdf-syntax-ns#"
   xmlns:svg="http://www.w3.org/2000/svg"
   xmlns="http://www.w3.org/2000/svg"
   xmlns:sodipodi="http://sodipodi.sourceforge.net/DTD/sodipodi-0.dtd"
   xmlns:inkscape="http://www.inkscape.org/namespaces/inkscape"
   width="11in"
   height="8.5in"
   viewBox="0 0 279.4 215.9"
   version="1.1"
   id="svg8"
   inkscape:version="0.92.2 (5c3e80d, 2017-08-06)"
   sodipodi:docname="Proto_Nano_Assembly.svg">
  <defs
     id="defs2" />
  <sodipodi:namedview
     id="base"
     pagecolor="#ffffff"
     bordercolor="#666666"
     borderopacity="1.0"
     inkscape:pageopacity="0.0"
     inkscape:pageshadow="2"
     inkscape:zoom="2.8"
     inkscape:cx="511.70764"
     inkscape:cy="175.4509"
     inkscape:document-units="mm"
     inkscape:current-layer="layer1"
     showgrid="false"
     inkscape:window-width="1920"
     inkscape:window-height="1018"
     inkscape:window-x="-8"
     inkscape:window-y="-8"
     inkscape:window-maximized="1"
     units="in"
     inkscape:pagecheckerboard="false" />
  <metadata
     id="metadata5">
    <rdf:RDF>
      <cc:Work
         rdf:about="">
        <dc:format>image/svg+xml</dc:format>
        <dc:type
           rdf:resource="http://purl.org/dc/dcmitype/StillImage" />
        <dc:title></dc:title>
      </cc:Work>
    </rdf:RDF>
  </metadata>
  <g
     inkscape:label="Layer 1"
     inkscape:groupmode="layer"
     id="layer1"
     transform="translate(0,-81.1)">
    <g
       id="g1232"
       transform="matrix(0.00508,0,0,0.00508,97.9678,191.848)">
      <g
         id="g819"
         style="fill:#000000;fill-opacity:1;stroke:#000000;stroke-linecap:round;stroke-linejoin:round;stroke-opacity:1" />
      <g
         id="g821"
         style="fill:#000000;fill-opacity:0;stroke:#000000;stroke-width:-0.0003937;stroke-linecap:round;stroke-linejoin:round;stroke-opacity:1" />
      <g
         id="g825"
         style="fill:#000000;fill-opacity:0;stroke:#000000;stroke-width:50;stroke-linecap:round;stroke-linejoin:round;stroke-opacity:1">
        <circle
           id="circle823"
           r="200"
           cy="3500"
           cx="7400" />
      </g>
      <g
         id="g853"
         style="fill:#000000;fill-opacity:0;stroke:#000000;stroke-width:59.05509949;stroke-linecap:round;stroke-linejoin:round;stroke-opacity:1">
        <circle
           id="circle827"
           r="200"
           cy="3500"
           cx="15500" />
        <circle
           id="circle829"
           r="200"
           cy="4500"
           cx="15500" />
        <circle
           id="circle831"
           r="200"
           cy="4500"
           cx="16500" />
        <circle
           id="circle833"
           r="200"
           cy="2500"
           cx="15500" />
        <circle
           id="circle835"
           r="200"
           cy="3500"
           cx="16500" />
        <circle
           id="circle837"
           r="200"
           cy="2500"
           cx="16500" />
        <path
           id="path839"
           d="M 0,1900 H -570"
           inkscape:connector-curvature="0" />
        <path
           id="path841"
           d="M -570,1900 V 5100"
           inkscape:connector-curvature="0" />
        <path
           id="path843"
           d="M -570,5100 H 0"
           inkscape:connector-curvature="0" />
        <path
           id="path845"
           d="M 17000,0 V 7000"
           inkscape:connector-curvature="0" />
        <path
           id="path847"
           d="M 0,0 V 7000"
           inkscape:connector-curvature="0" />
        <path
           id="path849"
           d="M 17000,7000 H 0"
           inkscape:connector-curvature="0" />
        <path
           id="path851"
           d="M 17000,0 H 0"
           inkscape:connector-curvature="0" />
      </g>
      <g
         id="g941"
         style="fill:#000000;fill-opacity:0;stroke:#000000;stroke-width:39.37009811;stroke-linecap:round;stroke-linejoin:round;stroke-opacity:1">
        <path
           id="path855"
           d="M -284,4976 H 1684"
           inkscape:connector-curvature="0" />
        <path
           id="path857"
           d="M -9,2318 V 4681"
           inkscape:connector-curvature="0" />
        <path
           id="path859"
           d="M -284,2023 V 4976"
           inkscape:connector-curvature="0" />
        <path
           id="path861"
           d="M 1684,2023 V 4976"
           inkscape:connector-curvature="0" />
        <path
           id="path863"
           d="M -284,2023 H 1684"
           inkscape:connector-curvature="0" />
        <path
           id="path865"
           d="m 1723,2988 79,-79"
           inkscape:connector-curvature="0" />
        <path
           id="path867"
           d="m 1802,3066 -79,-78"
           inkscape:connector-curvature="0" />
        <path
           id="path869"
           d="m 1885,2909 v 157"
           inkscape:connector-curvature="0" />
        <path
           id="path871"
           d="m 1885,2909 h -83"
           inkscape:connector-curvature="0" />
        <path
           id="path873"
           d="m 1885,3066 h -83"
           inkscape:connector-curvature="0" />
        <path
           id="path875"
           d="M 16500,5000 H 15000"
           inkscape:connector-curvature="0" />
        <path
           id="path877"
           d="M 15000,5000 V 2000"
           inkscape:connector-curvature="0" />
        <path
           id="path879"
           d="m 15000,2000 h 2000"
           inkscape:connector-curvature="0" />
        <path
           id="path881"
           d="M 17000,2000 V 4500"
           inkscape:connector-curvature="0" />
        <path
           id="path883"
           d="m 17000,4500 -500,500"
           inkscape:connector-curvature="0" />
        <path
           id="path885"
           d="m 11685,3157 h 629"
           inkscape:connector-curvature="0" />
        <path
           id="path887"
           d="M 12314,3157 V 2842"
           inkscape:connector-curvature="0" />
        <path
           id="path889"
           d="m 12314,2842 h -629"
           inkscape:connector-curvature="0" />
        <path
           id="path891"
           d="m 11685,2842 v 315"
           inkscape:connector-curvature="0" />
        <path
           id="path893"
           d="m 11685,2157 h 629"
           inkscape:connector-curvature="0" />
        <path
           id="path895"
           d="M 12314,2157 V 1842"
           inkscape:connector-curvature="0" />
        <path
           id="path897"
           d="m 12314,1842 h -629"
           inkscape:connector-curvature="0" />
        <path
           id="path899"
           d="m 11685,1842 v 315"
           inkscape:connector-curvature="0" />
        <path
           id="path901"
           d="m 12314,3842 h -629"
           inkscape:connector-curvature="0" />
        <path
           id="path903"
           d="m 11685,3842 v 315"
           inkscape:connector-curvature="0" />
        <path
           id="path905"
           d="m 11685,4157 h 629"
           inkscape:connector-curvature="0" />
        <path
           id="path907"
           d="M 12314,4157 V 3842"
           inkscape:connector-curvature="0" />
        <path
           id="path909"
           d="m 12314,4842 h -629"
           inkscape:connector-curvature="0" />
        <path
           id="path911"
           d="m 11685,4842 v 315"
           inkscape:connector-curvature="0" />
        <path
           id="path913"
           d="m 11685,5157 h 629"
           inkscape:connector-curvature="0" />
        <path
           id="path915"
           d="M 12314,5157 V 4842"
           inkscape:connector-curvature="0" />
        <path
           id="path917"
           d="M 10106,4188 V 2811"
           inkscape:connector-curvature="0" />
        <path
           id="path919"
           d="m 10106,2811 h 787"
           inkscape:connector-curvature="0" />
        <path
           id="path921"
           d="M 10893,2811 V 4188"
           inkscape:connector-curvature="0" />
        <path
           id="path923"
           d="m 10893,4188 h -787"
           inkscape:connector-curvature="0" />
        <path
           id="path925"
           d="M 10814,4090 V 2909"
           inkscape:connector-curvature="0" />
        <path
           id="path927"
           d="M 10185,4090 V 2909"
           inkscape:connector-curvature="0" />
        <path
           id="path929"
           d="m 10185,2909 h 629"
           inkscape:connector-curvature="0" />
        <path
           id="path931"
           d="m 10185,4090 h 629"
           inkscape:connector-curvature="0" />
        <path
           id="path933"
           d="M 11188,4681 V 2318"
           inkscape:connector-curvature="0" />
        <path
           id="path935"
           d="M 9811,4681 V 2318"
           inkscape:connector-curvature="0" />
        <path
           id="path937"
           d="m 9811,4681 h 1377"
           inkscape:connector-curvature="0" />
        <path
           id="path939"
           d="m 9811,2318 h 1377"
           inkscape:connector-curvature="0" />
      </g>
      <g
         id="g953"
         style="fill:#000000;fill-opacity:0;stroke:#000000;stroke-width:59.05509949;stroke-linecap:round;stroke-linejoin:round;stroke-opacity:1">
        <path
           id="path943"
           d="M 7670,3778 6000,5448"
           inkscape:connector-curvature="0" />
        <path
           id="path945"
           d="M 6000,5448 4051,3500"
           inkscape:connector-curvature="0" />
        <path
           id="path947"
           d="M 4051,3500 6000,1551"
           inkscape:connector-curvature="0" />
        <path
           id="path949"
           d="M 6000,1551 7670,3221"
           inkscape:connector-curvature="0" />
        <path
           id="path951"
           d="m 7670,3221 v 557"
           inkscape:connector-curvature="0" />
      </g>
      <g
         id="g995"
         style="fill:#000000;fill-opacity:0;stroke:#000000;stroke-width:39.37009811;stroke-linecap:round;stroke-linejoin:round;stroke-opacity:1">
        <path
           id="path955"
           d="M 13322,2157 V 1842"
           inkscape:connector-curvature="0" />
        <path
           id="path957"
           d="m 13814,1842 h -629"
           inkscape:connector-curvature="0" />
        <path
           id="path959"
           d="m 13185,1842 v 315"
           inkscape:connector-curvature="0" />
        <path
           id="path961"
           d="m 13185,2157 h 629"
           inkscape:connector-curvature="0" />
        <path
           id="path963"
           d="M 13814,2157 V 1842"
           inkscape:connector-curvature="0" />
        <path
           id="path965"
           d="M 13322,3157 V 2842"
           inkscape:connector-curvature="0" />
        <path
           id="path967"
           d="m 13814,2842 h -629"
           inkscape:connector-curvature="0" />
        <path
           id="path969"
           d="m 13185,2842 v 315"
           inkscape:connector-curvature="0" />
        <path
           id="path971"
           d="m 13185,3157 h 629"
           inkscape:connector-curvature="0" />
        <path
           id="path973"
           d="M 13814,3157 V 2842"
           inkscape:connector-curvature="0" />
        <path
           id="path975"
           d="M 13322,4157 V 3842"
           inkscape:connector-curvature="0" />
        <path
           id="path977"
           d="m 13814,3842 h -629"
           inkscape:connector-curvature="0" />
        <path
           id="path979"
           d="m 13185,3842 v 315"
           inkscape:connector-curvature="0" />
        <path
           id="path981"
           d="m 13185,4157 h 629"
           inkscape:connector-curvature="0" />
        <path
           id="path983"
           d="M 13814,4157 V 3842"
           inkscape:connector-curvature="0" />
        <path
           id="path985"
           d="M 13322,5157 V 4842"
           inkscape:connector-curvature="0" />
        <path
           id="path987"
           d="m 13814,4842 h -629"
           inkscape:connector-curvature="0" />
        <path
           id="path989"
           d="m 13185,4842 v 315"
           inkscape:connector-curvature="0" />
        <path
           id="path991"
           d="m 13185,5157 h 629"
           inkscape:connector-curvature="0" />
        <path
           id="path993"
           d="M 13814,5157 V 4842"
           inkscape:connector-curvature="0" />
      </g>
      <g
         id="g1005"
         style="fill:#000000;fill-opacity:0;stroke:#000000;stroke-width:78.74019623;stroke-linecap:round;stroke-linejoin:round;stroke-opacity:1">
        <path
           id="path997"
           d="m 8235,1373 891,891"
           inkscape:connector-curvature="0" />
        <path
           id="path999"
           d="m 7873,1735 362,-362"
           inkscape:connector-curvature="0" />
        <path
           id="path1001"
           d="M 8764,2626 7873,1735"
           inkscape:connector-curvature="0" />
        <path
           id="path1003"
           d="m 9126,2264 -362,362"
           inkscape:connector-curvature="0" />
      </g>
      <g
         id="g1013"
         style="fill:#000000;fill-opacity:0;stroke:#000000;stroke-width:59.05509949;stroke-linecap:round;stroke-linejoin:round;stroke-opacity:1">
        <path
           id="path1007"
           d="m 484,3631 h 281 l 56,18 38,38 19,56 v 38"
           inkscape:connector-curvature="0" />
        <path
           id="path1009"
           d="m 878,3237 v 225"
           inkscape:connector-curvature="0" />
        <path
           id="path1011"
           d="M 878,3350 H 484 l 56,37 38,38 18,37"
           inkscape:connector-curvature="0" />
      </g>
      <g
         id="g1043"
         style="fill:#000000;fill-opacity:0;stroke:#000000;stroke-width:29.52759933;stroke-linecap:round;stroke-linejoin:round;stroke-opacity:1">
        <path
           id="path1015"
           d="m 11980,3053 -40,-56"
           inkscape:connector-curvature="0" />
        <path
           id="path1017"
           d="m 11912,3053 v -118 h 45 l 12,5 5,6 6,11 v 17 l -6,11 -5,6 -12,6 h -45"
           inkscape:connector-curvature="0" />
        <path
           id="path1019"
           d="m 12092,3053 h -67"
           inkscape:connector-curvature="0" />
        <path
           id="path1021"
           d="m 12059,3053 v -118 l -12,17 -11,11 -11,6"
           inkscape:connector-curvature="0" />
        <path
           id="path1023"
           d="m 11980,2053 -40,-56"
           inkscape:connector-curvature="0" />
        <path
           id="path1025"
           d="m 11912,2053 v -118 h 45 l 12,5 5,6 6,11 v 17 l -6,11 -5,6 -12,6 h -45"
           inkscape:connector-curvature="0" />
        <path
           id="path1027"
           d="m 12025,1946 5,-6 12,-5 h 28 l 11,5 6,6 5,11 v 12 l -5,16 -68,68 h 73"
           inkscape:connector-curvature="0" />
        <path
           id="path1029"
           d="m 11980,4053 -40,-56"
           inkscape:connector-curvature="0" />
        <path
           id="path1031"
           d="m 11912,4053 v -118 h 45 l 12,5 5,6 6,11 v 17 l -6,11 -5,6 -12,6 h -45"
           inkscape:connector-curvature="0" />
        <path
           id="path1033"
           d="m 12019,3935 h 73 l -39,45 h 17 l 11,5 6,6 5,11 v 28 l -5,12 -6,5 -11,6 h -34 l -11,-6 -6,-5"
           inkscape:connector-curvature="0" />
        <path
           id="path1035"
           d="m 11980,5053 -40,-56"
           inkscape:connector-curvature="0" />
        <path
           id="path1037"
           d="m 11912,5053 v -118 h 45 l 12,5 5,6 6,11 v 17 l -6,11 -5,6 -12,6 h -45"
           inkscape:connector-curvature="0" />
        <path
           id="path1039"
           d="m 12081,4974 v 79"
           inkscape:connector-curvature="0" />
        <path
           id="path1041"
           d="m 12053,4929 -28,85 h 73"
           inkscape:connector-curvature="0" />
      </g>
      <g
         id="g1053"
         style="fill:#000000;fill-opacity:0;stroke:#000000;stroke-width:49.21260071;stroke-linecap:round;stroke-linejoin:round;stroke-opacity:1">
        <path
           id="path1045"
           d="m 10619,3893 14,-42 v -70 l -14,-28 -14,-14 -28,-15 h -28 l -28,15 -14,14 -15,28 -14,56 -14,28 -14,14 -28,14 h -28 l -28,-14 -14,-14 -14,-28 v -70 l 14,-43"
           inkscape:connector-curvature="0" />
        <path
           id="path1047"
           d="m 10338,3626 295,-70 -211,-56 211,-57 -295,-70"
           inkscape:connector-curvature="0" />
        <path
           id="path1049"
           d="m 10633,3106 v 169"
           inkscape:connector-curvature="0" />
        <path
           id="path1051"
           d="m 10633,3190 h -295 l 42,28 28,28 14,29"
           inkscape:connector-curvature="0" />
      </g>
      <g
         id="g1059"
         style="fill:#000000;fill-opacity:0;stroke:#000000;stroke-width:59.05509949;stroke-linecap:round;stroke-linejoin:round;stroke-opacity:1">
        <path
           id="path1055"
           d="m 5635,3559 225,226 40,13 h 27 l 39,-13 53,-54 14,-39 v -27 l -14,-40 -225,-225"
           inkscape:connector-curvature="0" />
        <path
           id="path1057"
           d="m 5900,3294 172,-172 14,199 39,-40 40,-13 h 27 l 39,13 67,66 13,40 v 26 l -13,40 -80,80 -40,13 h -26"
           inkscape:connector-curvature="0" />
      </g>
      <g
         id="g1079"
         style="fill:#000000;fill-opacity:0;stroke:#000000;stroke-width:19.68499947;stroke-linecap:round;stroke-linejoin:round;stroke-opacity:1">
        <path
           id="path1061"
           d="m 13502,2040 v -90 h 21 l 13,4 9,9 4,8 4,18 v 13 l -4,17 -4,9 -9,8 -13,4 h -21"
           inkscape:connector-curvature="0" />
        <path
           id="path1063"
           d="m 13583,1950 h 57 l -31,34 h 13 l 9,5 4,4 5,9 v 21 l -5,9 -4,4 -9,4 h -26 l -8,-4 -5,-4"
           inkscape:connector-curvature="0" />
        <path
           id="path1065"
           d="m 13502,3040 v -90 h 21 l 13,4 9,9 4,8 4,18 v 13 l -4,17 -4,9 -9,8 -13,4 h -21"
           inkscape:connector-curvature="0" />
        <path
           id="path1067"
           d="m 13588,2959 4,-5 9,-4 h 21 l 9,4 4,5 5,8 v 9 l -5,13 -52,51 h 57"
           inkscape:connector-curvature="0" />
        <path
           id="path1069"
           d="m 13502,4040 v -90 h 21 l 13,4 9,9 4,8 4,18 v 13 l -4,17 -4,9 -9,8 -13,4 h -21"
           inkscape:connector-curvature="0" />
        <path
           id="path1071"
           d="m 13631,3980 v 60"
           inkscape:connector-curvature="0" />
        <path
           id="path1073"
           d="m 13609,3946 -21,64 h 56"
           inkscape:connector-curvature="0" />
        <path
           id="path1075"
           d="m 13502,5040 v -90 h 21 l 13,4 9,9 4,8 4,18 v 13 l -4,17 -4,9 -9,8 -13,4 h -21"
           inkscape:connector-curvature="0" />
        <path
           id="path1077"
           d="m 13635,4950 h -43 l -4,43 4,-4 9,-5 h 21 l 9,5 4,4 5,9 v 21 l -5,9 -4,4 -9,4 h -21 l -9,-4 -4,-4"
           inkscape:connector-curvature="0" />
      </g>
      <g
         id="g1087"
         style="fill:#000000;fill-opacity:0;stroke:#000000;stroke-width:49.21260071;stroke-linecap:round;stroke-linejoin:round;stroke-opacity:1">
        <path
           id="path1081"
           d="m 8437,1930 -67,66"
           inkscape:connector-curvature="0" />
        <path
           id="path1083"
           d="m 8463,1811 -26,119 119,-27"
           inkscape:connector-curvature="0" />
        <path
           id="path1085"
           d="m 8582,1956 h 14 l 19,7 34,33 6,20 v 13 l -6,20 -14,13 -26,14 h -159 l 86,86"
           inkscape:connector-curvature="0" />
      </g>
    </g>
    <g
       id="g1705"
       transform="matrix(0.00508,0,0,0.00508,-409.6766,150.692)">
      <g
         id="g1238"
         style="fill:#000000;fill-opacity:1;stroke:#000000;stroke-linecap:round;stroke-linejoin:round;stroke-opacity:1" />
      <g
         id="g1240"
         style="fill:#000000;fill-opacity:0;stroke:#000000;stroke-width:-0.0003937;stroke-linecap:round;stroke-linejoin:round;stroke-opacity:1" />
      <g
         id="g1250"
         style="fill:#000000;fill-opacity:0;stroke:#000000;stroke-width:59.05509949;stroke-linecap:round;stroke-linejoin:round;stroke-opacity:1">
        <path
           id="path1242"
           d="M 116930,7000 H 99930"
           inkscape:connector-curvature="0" />
        <path
           id="path1244"
           d="M 116930,0 V 7000"
           inkscape:connector-curvature="0" />
        <path
           id="path1246"
           d="m 99930,0 h 17000"
           inkscape:connector-curvature="0" />
        <path
           id="path1248"
           d="M 99930,7000 V 0"
           inkscape:connector-curvature="0" />
      </g>
      <g
         id="g1362"
         style="fill:#000000;fill-opacity:0;stroke:#000000;stroke-width:39.37009811;stroke-linecap:round;stroke-linejoin:round;stroke-opacity:1">
        <path
           id="path1252"
           d="m 112678,5216 h -630"
           inkscape:connector-curvature="0" />
        <path
           id="path1254"
           d="m 112048,5216 v 315"
           inkscape:connector-curvature="0" />
        <path
           id="path1256"
           d="m 112048,5531 h 630"
           inkscape:connector-curvature="0" />
        <path
           id="path1258"
           d="M 112678,5531 V 5216"
           inkscape:connector-curvature="0" />
        <path
           id="path1260"
           d="M 109666,4803 V 4173"
           inkscape:connector-curvature="0" />
        <path
           id="path1262"
           d="m 109666,4173 h -315"
           inkscape:connector-curvature="0" />
        <path
           id="path1264"
           d="m 109351,4173 v 630"
           inkscape:connector-curvature="0" />
        <path
           id="path1266"
           d="m 109351,4803 h 315"
           inkscape:connector-curvature="0" />
        <path
           id="path1268"
           d="m 109843,3188 v 630"
           inkscape:connector-curvature="0" />
        <path
           id="path1270"
           d="m 109843,3818 h 315"
           inkscape:connector-curvature="0" />
        <path
           id="path1272"
           d="M 110158,3818 V 3188"
           inkscape:connector-curvature="0" />
        <path
           id="path1274"
           d="m 110158,3188 h -315"
           inkscape:connector-curvature="0" />
        <path
           id="path1276"
           d="M 110158,4803 V 4173"
           inkscape:connector-curvature="0" />
        <path
           id="path1278"
           d="m 110158,4173 h -315"
           inkscape:connector-curvature="0" />
        <path
           id="path1280"
           d="m 109843,4173 v 630"
           inkscape:connector-curvature="0" />
        <path
           id="path1282"
           d="m 109843,4803 h 315"
           inkscape:connector-curvature="0" />
        <path
           id="path1284"
           d="m 109351,3188 v 630"
           inkscape:connector-curvature="0" />
        <path
           id="path1286"
           d="m 109351,3818 h 315"
           inkscape:connector-curvature="0" />
        <path
           id="path1288"
           d="M 109666,3818 V 3188"
           inkscape:connector-curvature="0" />
        <path
           id="path1290"
           d="m 109666,3188 h -315"
           inkscape:connector-curvature="0" />
        <path
           id="path1292"
           d="m 109351,2204 v 630"
           inkscape:connector-curvature="0" />
        <path
           id="path1294"
           d="m 109351,2834 h 315"
           inkscape:connector-curvature="0" />
        <path
           id="path1296"
           d="M 109666,2834 V 2204"
           inkscape:connector-curvature="0" />
        <path
           id="path1298"
           d="m 109666,2204 h -315"
           inkscape:connector-curvature="0" />
        <path
           id="path1300"
           d="M 110158,2834 V 2204"
           inkscape:connector-curvature="0" />
        <path
           id="path1302"
           d="m 110158,2204 h -315"
           inkscape:connector-curvature="0" />
        <path
           id="path1304"
           d="m 109843,2204 v 630"
           inkscape:connector-curvature="0" />
        <path
           id="path1306"
           d="m 109843,2834 h 315"
           inkscape:connector-curvature="0" />
        <path
           id="path1308"
           d="m 105433,2795 v 630"
           inkscape:connector-curvature="0" />
        <path
           id="path1310"
           d="m 105433,3425 h 1260"
           inkscape:connector-curvature="0" />
        <path
           id="path1312"
           d="M 106693,3425 V 2795"
           inkscape:connector-curvature="0" />
        <path
           id="path1314"
           d="m 106693,2795 h -1260"
           inkscape:connector-curvature="0" />
        <path
           id="path1316"
           d="m 105559,2795 v 630"
           inkscape:connector-curvature="0" />
        <path
           id="path1318"
           d="m 105622,2795 v 630"
           inkscape:connector-curvature="0" />
        <path
           id="path1320"
           d="m 105433,1811 v 629"
           inkscape:connector-curvature="0" />
        <path
           id="path1322"
           d="m 105433,2440 h 1260"
           inkscape:connector-curvature="0" />
        <path
           id="path1324"
           d="M 106693,2440 V 1811"
           inkscape:connector-curvature="0" />
        <path
           id="path1326"
           d="m 106693,1811 h -1260"
           inkscape:connector-curvature="0" />
        <path
           id="path1328"
           d="m 105559,1811 v 629"
           inkscape:connector-curvature="0" />
        <path
           id="path1330"
           d="m 105622,1811 v 629"
           inkscape:connector-curvature="0" />
        <path
           id="path1332"
           d="m 112933,5531 h 630"
           inkscape:connector-curvature="0" />
        <path
           id="path1334"
           d="M 113563,5531 V 5216"
           inkscape:connector-curvature="0" />
        <path
           id="path1336"
           d="m 113563,5216 h -630"
           inkscape:connector-curvature="0" />
        <path
           id="path1338"
           d="m 112933,5216 v 315"
           inkscape:connector-curvature="0" />
        <path
           id="path1340"
           d="m 115778,3500 h 197"
           inkscape:connector-curvature="0" />
        <path
           id="path1342"
           d="m 115778,3657 -236,-157"
           inkscape:connector-curvature="0" />
        <path
           id="path1344"
           d="m 115778,3342 v 315"
           inkscape:connector-curvature="0" />
        <path
           id="path1346"
           d="m 115542,3500 236,-158"
           inkscape:connector-curvature="0" />
        <path
           id="path1348"
           d="m 115542,3500 v 216"
           inkscape:connector-curvature="0" />
        <path
           id="path1350"
           d="M 115542,3500 V 3283"
           inkscape:connector-curvature="0" />
        <path
           id="path1352"
           d="m 115384,3500 h 158"
           inkscape:connector-curvature="0" />
        <path
           id="path1354"
           d="M 115128,3854 V 3145"
           inkscape:connector-curvature="0" />
        <path
           id="path1356"
           d="m 116231,3854 h -1103"
           inkscape:connector-curvature="0" />
        <path
           id="path1358"
           d="m 116231,3145 v 709"
           inkscape:connector-curvature="0" />
        <path
           id="path1360"
           d="m 115128,3145 h 1103"
           inkscape:connector-curvature="0" />
      </g>
      <g
         id="g1372"
         style="fill:#000000;fill-opacity:0;stroke:#000000;stroke-width:40;stroke-linecap:round;stroke-linejoin:round;stroke-opacity:1">
        <path
           id="path1364"
           d="M 104601,1722 V 2922"
           inkscape:connector-curvature="0" />
        <path
           id="path1366"
           d="M 102801,1722 V 2922"
           inkscape:connector-curvature="0" />
        <path
           id="path1368"
           d="m 104601,2922 h -1800"
           inkscape:connector-curvature="0" />
        <path
           id="path1370"
           d="m 104601,1722 h -1800"
           inkscape:connector-curvature="0" />
      </g>
      <g
         id="g1418"
         style="fill:#000000;fill-opacity:0;stroke:#000000;stroke-width:39.37009811;stroke-linecap:round;stroke-linejoin:round;stroke-opacity:1">
        <path
           id="path1374"
           d="m 108859,4173 v 630"
           inkscape:connector-curvature="0" />
        <path
           id="path1376"
           d="m 108859,4803 h 315"
           inkscape:connector-curvature="0" />
        <path
           id="path1378"
           d="M 109174,4803 V 4173"
           inkscape:connector-curvature="0" />
        <path
           id="path1380"
           d="m 109174,4173 h -315"
           inkscape:connector-curvature="0" />
        <path
           id="path1382"
           d="m 108367,4173 v 630"
           inkscape:connector-curvature="0" />
        <path
           id="path1384"
           d="m 108367,4803 h 314"
           inkscape:connector-curvature="0" />
        <path
           id="path1386"
           d="M 108681,4803 V 4173"
           inkscape:connector-curvature="0" />
        <path
           id="path1388"
           d="m 108681,4173 h -314"
           inkscape:connector-curvature="0" />
        <path
           id="path1390"
           d="m 105059,5826 h 630"
           inkscape:connector-curvature="0" />
        <path
           id="path1392"
           d="M 105689,5826 V 5511"
           inkscape:connector-curvature="0" />
        <path
           id="path1394"
           d="m 105689,5511 h -630"
           inkscape:connector-curvature="0" />
        <path
           id="path1396"
           d="m 105059,5511 v 315"
           inkscape:connector-curvature="0" />
        <path
           id="path1398"
           d="m 103201,3594 414,-413"
           inkscape:connector-curvature="0" />
        <path
           id="path1400"
           d="M 103201,3594 V 5818"
           inkscape:connector-curvature="0" />
        <path
           id="path1402"
           d="m 103615,3181 h 1043"
           inkscape:connector-curvature="0" />
        <path
           id="path1404"
           d="m 103201,5818 h 1457"
           inkscape:connector-curvature="0" />
        <path
           id="path1406"
           d="M 104658,3181 V 5818"
           inkscape:connector-curvature="0" />
        <path
           id="path1408"
           d="m 110618,4366 -236,-237"
           inkscape:connector-curvature="0" />
        <path
           id="path1410"
           d="M 110382,4129 V 2633"
           inkscape:connector-curvature="0" />
        <path
           id="path1412"
           d="m 110382,2633 h 4095"
           inkscape:connector-curvature="0" />
        <path
           id="path1414"
           d="M 114477,2633 V 4366"
           inkscape:connector-curvature="0" />
        <path
           id="path1416"
           d="m 114477,4366 h -3859"
           inkscape:connector-curvature="0" />
      </g>
      <g
         id="g1428"
         style="fill:#000000;fill-opacity:0;stroke:#000000;stroke-width:78.74019623;stroke-linecap:round;stroke-linejoin:round;stroke-opacity:1">
        <path
           id="path1420"
           d="m 114095,5413 h 1260"
           inkscape:connector-curvature="0" />
        <path
           id="path1422"
           d="M 114095,5925 V 5413"
           inkscape:connector-curvature="0" />
        <path
           id="path1424"
           d="m 115355,5925 h -1260"
           inkscape:connector-curvature="0" />
        <path
           id="path1426"
           d="m 115355,5413 v 512"
           inkscape:connector-curvature="0" />
      </g>
      <g
         id="g1462"
         style="fill:#000000;fill-opacity:0;stroke:#000000;stroke-width:29.52759933;stroke-linecap:round;stroke-linejoin:round;stroke-opacity:1">
        <path
           id="path1430"
           d="m 112343,5416 -6,5 -17,6 h -11 l -17,-6 -11,-11 -6,-11 -5,-23 v -17 l 5,-22 6,-11 11,-12 17,-5 h 11 l 17,5 6,6"
           inkscape:connector-curvature="0" />
        <path
           id="path1432"
           d="m 112455,5427 h -67"
           inkscape:connector-curvature="0" />
        <path
           id="path1434"
           d="m 112422,5427 v -118 l -12,17 -11,11 -11,6"
           inkscape:connector-curvature="0" />
        <path
           id="path1436"
           d="m 109466,4468 -6,-6 -5,-16 v -12 l 5,-17 12,-11 11,-5 22,-6 h 17 l 23,6 11,5 11,11 6,17 v 12 l -6,16 -5,6"
           inkscape:connector-curvature="0" />
        <path
           id="path1438"
           d="m 109562,4513 5,6 6,11 v 28 l -6,11 -5,6 -12,5 h -11 l -17,-5 -67,-68 v 73"
           inkscape:connector-curvature="0" />
        <path
           id="path1440"
           d="m 109958,3484 -5,-6 -6,-17 v -11 l 6,-17 11,-11 11,-6 23,-5 h 16 l 23,5 11,6 11,11 6,17 v 11 l -6,17 -5,6"
           inkscape:connector-curvature="0" />
        <path
           id="path1442"
           d="m 110065,3523 v 73 l -45,-39 v 17 l -6,11 -5,6 -11,5 h -29 l -11,-5 -5,-6 -6,-11 v -34 l 6,-11 5,-6"
           inkscape:connector-curvature="0" />
        <path
           id="path1444"
           d="m 109958,4468 -5,-6 -6,-16 v -12 l 6,-17 11,-11 11,-5 23,-6 h 16 l 23,6 11,5 11,11 6,17 v 12 l -6,16 -5,6"
           inkscape:connector-curvature="0" />
        <path
           id="path1446"
           d="m 110026,4569 h -79"
           inkscape:connector-curvature="0" />
        <path
           id="path1448"
           d="m 110071,4541 -85,-28 v 73"
           inkscape:connector-curvature="0" />
        <path
           id="path1450"
           d="m 109466,3484 -6,-6 -5,-17 v -11 l 5,-17 12,-11 11,-6 22,-5 h 17 l 23,5 11,6 11,11 6,17 v 11 l -6,17 -5,6"
           inkscape:connector-curvature="0" />
        <path
           id="path1452"
           d="m 109573,3591 v -57 l -56,-5 5,5 6,12 v 28 l -6,11 -5,6 -12,5 h -28 l -11,-5 -6,-6 -5,-11 v -28 l 5,-12 6,-5"
           inkscape:connector-curvature="0" />
        <path
           id="path1454"
           d="m 109466,2500 -6,-6 -5,-17 v -11 l 5,-17 12,-11 11,-6 22,-6 h 17 l 23,6 11,6 11,11 6,17 v 11 l -6,17 -5,6"
           inkscape:connector-curvature="0" />
        <path
           id="path1456"
           d="m 109573,2601 v -23 l -6,-11 -5,-6 -17,-11 -23,-6 h -45 l -11,6 -6,6 -5,11 v 22 l 5,12 6,5 11,6 h 28 l 12,-6 5,-5 6,-12 v -22 l -6,-11 -5,-6 -12,-6"
           inkscape:connector-curvature="0" />
        <path
           id="path1458"
           d="m 109958,2500 -5,-6 -6,-17 v -11 l 6,-17 11,-11 11,-6 23,-6 h 16 l 23,6 11,6 11,11 6,17 v 11 l -6,17 -5,6"
           inkscape:connector-curvature="0" />
        <path
           id="path1460"
           d="m 110065,2539 v 79 l -118,-51"
           inkscape:connector-curvature="0" />
      </g>
      <g
         id="g1472"
         style="fill:#000000;fill-opacity:0;stroke:#000000;stroke-width:41.33860016;stroke-linecap:round;stroke-linejoin:round;stroke-opacity:1">
        <path
           id="path1464"
           d="m 106017,3208 -13,13 -39,13 h -26 l -40,-13 -26,-26 -13,-26 -13,-53 v -39 l 13,-53 13,-26 26,-26 40,-13 h 26 l 39,13 13,13"
           inkscape:connector-curvature="0" />
        <path
           id="path1466"
           d="m 106175,3077 -26,-13 -13,-13 -14,-27 v -13 l 14,-26 13,-13 26,-13 h 52 l 27,13 13,13 13,26 v 13 l -13,27 -13,13 -27,13 h -52 l -26,13 -13,13 -14,26 v 53 l 14,26 13,13 26,13 h 52 l 27,-13 13,-13 13,-26 v -53 l -13,-26 -13,-13 -27,-13"
           inkscape:connector-curvature="0" />
        <path
           id="path1468"
           d="m 106017,2224 -13,13 -39,13 h -26 l -40,-13 -26,-26 -13,-26 -13,-53 v -39 l 13,-53 13,-26 26,-26 40,-13 h 26 l 39,13 13,13"
           inkscape:connector-curvature="0" />
        <path
           id="path1470"
           d="m 106149,2250 h 52 l 26,-13 14,-13 26,-39 13,-53 v -105 l -13,-26 -13,-13 -27,-13 h -52 l -26,13 -13,13 -14,26 v 66 l 14,26 13,13 26,13 h 52 l 27,-13 13,-13 13,-26"
           inkscape:connector-curvature="0" />
      </g>
      <g
         id="g1482"
         style="fill:#000000;fill-opacity:0;stroke:#000000;stroke-width:29.52759933;stroke-linecap:round;stroke-linejoin:round;stroke-opacity:1">
        <path
           id="path1474"
           d="m 113172,5416 -5,5 -17,6 h -11 l -17,-6 -11,-11 -6,-11 -6,-23 v -17 l 6,-22 6,-11 11,-12 17,-5 h 11 l 17,5 5,6"
           inkscape:connector-curvature="0" />
        <path
           id="path1476"
           d="m 113285,5427 h -68"
           inkscape:connector-curvature="0" />
        <path
           id="path1478"
           d="m 113251,5427 v -118 l -11,17 -11,11 -12,6"
           inkscape:connector-curvature="0" />
        <path
           id="path1480"
           d="m 113358,5309 h 11 l 12,5 5,6 6,11 5,23 v 28 l -5,22 -6,12 -5,5 -12,6 h -11 l -11,-6 -6,-5 -5,-12 -6,-22 v -28 l 6,-23 5,-11 6,-6 11,-5"
           inkscape:connector-curvature="0" />
      </g>
      <g
         id="g1498"
         style="fill:#000000;fill-opacity:0;stroke:#000000;stroke-width:59.05509949;stroke-linecap:round;stroke-linejoin:round;stroke-opacity:1">
        <path
           id="path1484"
           d="m 115389,2890 v -393 h 94 l 56,18 37,38 19,37 19,75 v 56 l -19,75 -19,38 -37,37 -56,19 h -94"
           inkscape:connector-curvature="0" />
        <path
           id="path1486"
           d="m 115989,2890 h -225"
           inkscape:connector-curvature="0" />
        <path
           id="path1488"
           d="m 115876,2890 v -393 l -37,56 -38,37 -37,19"
           inkscape:connector-curvature="0" />
        <path
           id="path1490"
           d="m 103570,2294 h -131"
           inkscape:connector-curvature="0" />
        <path
           id="path1492"
           d="m 103439,2500 v -393 h 187"
           inkscape:connector-curvature="0" />
        <path
           id="path1494"
           d="m 103982,2500 h -225"
           inkscape:connector-curvature="0" />
        <path
           id="path1496"
           d="m 103870,2500 v -393 l -38,56 -37,37 -38,19"
           inkscape:connector-curvature="0" />
      </g>
      <g
         id="g1518"
         style="fill:#000000;fill-opacity:0;stroke:#000000;stroke-width:29.52759933;stroke-linecap:round;stroke-linejoin:round;stroke-opacity:1">
        <path
           id="path1500"
           d="m 108963,4468 56,-39"
           inkscape:connector-curvature="0" />
        <path
           id="path1502"
           d="m 108963,4401 h 118 v 45 l -6,11 -5,5 -12,6 h -17 l -11,-6 -5,-5 -6,-11 v -45"
           inkscape:connector-curvature="0" />
        <path
           id="path1504"
           d="m 109081,4575 v -56 l -56,-6 5,6 6,11 v 28 l -6,11 -5,6 -12,5 h -28 l -11,-5 -6,-6 -5,-11 v -28 l 5,-11 6,-6"
           inkscape:connector-curvature="0" />
        <path
           id="path1506"
           d="m 108471,4468 56,-39"
           inkscape:connector-curvature="0" />
        <path
           id="path1508"
           d="m 108471,4401 h 118 v 45 l -6,11 -6,5 -11,6 h -17 l -11,-6 -6,-5 -5,-11 v -45"
           inkscape:connector-curvature="0" />
        <path
           id="path1510"
           d="m 108589,4569 v -22 l -6,-12 -6,-5 -16,-11 -23,-6 h -45 l -11,6 -6,5 -5,11 v 23 l 5,11 6,6 11,5 h 28 l 11,-5 6,-6 6,-11 v -23 l -6,-11 -6,-5 -11,-6"
           inkscape:connector-curvature="0" />
        <path
           id="path1512"
           d="m 105355,5722 -40,-56"
           inkscape:connector-curvature="0" />
        <path
           id="path1514"
           d="m 105287,5722 v -118 h 45 l 11,6 6,5 6,12 v 16 l -6,12 -6,5 -11,6 h -45"
           inkscape:connector-curvature="0" />
        <path
           id="path1516"
           d="m 105394,5604 h 79 l -51,118"
           inkscape:connector-curvature="0" />
      </g>
      <g
         id="g1526"
         style="fill:#000000;fill-opacity:0;stroke:#000000;stroke-width:47.24409866;stroke-linecap:round;stroke-linejoin:round;stroke-opacity:1">
        <path
           id="path1520"
           d="m 104102,4260 h -255 l -30,15 -15,15 -15,30 v 60 l 15,30 15,15 30,15 h 255"
           inkscape:connector-curvature="0" />
        <path
           id="path1522"
           d="M 103787,4754 V 4574"
           inkscape:connector-curvature="0" />
        <path
           id="path1524"
           d="m 103787,4664 h 315 l -45,-30 -30,-30 -15,-30"
           inkscape:connector-curvature="0" />
      </g>
      <g
         id="g1532"
         style="fill:#000000;fill-opacity:0;stroke:#000000;stroke-width:59.05509949;stroke-linecap:round;stroke-linejoin:round;stroke-opacity:1">
        <path
           id="path1528"
           d="m 112602,3260 h -255 l -30,15 -15,15 -15,30 v 60 l 15,30 15,15 30,15 h 255"
           inkscape:connector-curvature="0" />
        <path
           id="path1530"
           d="m 112572,3574 15,15 15,30 v 75 l -15,30 -15,15 -30,15 h -30 l -45,-15 -180,-180 v 195"
           inkscape:connector-curvature="0" />
      </g>
      <g
         id="g1542"
         style="fill:#000000;fill-opacity:0;stroke:#000000;stroke-width:49.21260071;stroke-linecap:round;stroke-linejoin:round;stroke-opacity:1">
        <path
           id="path1534"
           d="m 114631,5664 v 94"
           inkscape:connector-curvature="0" />
        <path
           id="path1536"
           d="m 114565,5561 66,103 66,-103"
           inkscape:connector-curvature="0" />
        <path
           id="path1538"
           d="m 114865,5758 h -112"
           inkscape:connector-curvature="0" />
        <path
           id="path1540"
           d="m 114809,5758 v -197 l -19,28 -18,19 -19,9"
           inkscape:connector-curvature="0" />
      </g>
    </g>
    <text
       xml:space="preserve"
       style="font-style:normal;font-weight:normal;font-size:10.58333302px;line-height:1.25;font-family:sans-serif;letter-spacing:0px;word-spacing:0px;fill:#000000;fill-opacity:1;stroke:none;stroke-width:0.26458332"
       x="139.35526"
       y="111.78222"
       id="text1709"><tspan
         sodipodi:role="line"
         id="tspan1707"
         x="139.35526"
         y="111.78222"
         style="font-style:normal;font-variant:normal;font-weight:bold;font-stretch:normal;font-size:16.93333244px;font-family:Quicksand;-inkscape-font-specification:'Quicksand, Bold';font-variant-ligatures:normal;font-variant-caps:normal;font-variant-numeric:normal;font-feature-settings:normal;text-align:center;writing-mode:lr-tb;text-anchor:middle;stroke-width:0.26458332">Proto Nano</tspan><tspan
         sodipodi:role="line"
         x="139.35524"
         y="132.94888"
         style="font-style:normal;font-variant:normal;font-weight:bold;font-stretch:normal;font-size:16.93333244px;font-family:Quicksand;-inkscape-font-specification:'Quicksand, Bold';font-variant-ligatures:normal;font-variant-caps:normal;font-variant-numeric:normal;font-feature-settings:normal;text-align:center;writing-mode:lr-tb;text-anchor:middle;stroke-width:0.26458332"
         id="tspan1713">Assembly</tspan></text>
    <text
       xml:space="preserve"
       style="font-style:normal;font-weight:normal;font-size:10.58333302px;line-height:1.25;font-family:sans-serif;letter-spacing:0px;word-spacing:0px;fill:#000000;fill-opacity:1;stroke:none;stroke-width:0.26458332"
       x="87.931671"
       y="240.07159"
       id="text1729"><tspan
         sodipodi:role="line"
         id="tspan1727"
         x="87.931671"
         y="249.43536"
         style="stroke-width:0.26458332" /></text>
    <text
       xml:space="preserve"
       style="font-style:normal;font-variant:normal;font-weight:normal;font-stretch:normal;font-size:4.23333311px;line-height:1.25;font-family:Quicksand;-inkscape-font-specification:'Quicksand, Normal';font-variant-ligatures:normal;font-variant-caps:normal;font-variant-numeric:normal;font-feature-settings:normal;text-align:center;letter-spacing:0px;word-spacing:0px;writing-mode:lr-tb;text-anchor:middle;fill:#000000;fill-opacity:1;stroke:none;stroke-width:0.26458332"
       x="139.72266"
       y="248.08968"
       id="text1733"><tspan
         sodipodi:role="line"
         id="tspan4801"
         x="139.72266"
         y="248.08968">Copyright © 2018 polymetric</tspan><tspan
         sodipodi:role="line"
         id="tspan4803"
         x="139.72266"
         y="253.38135">License: CC BY-SA</tspan><tspan
         sodipodi:role="line"
         id="tspan4805"
         x="139.72266"
         y="258.673">creativecommons.org/licenses/by-sa/4.0</tspan><tspan
         sodipodi:role="line"
         id="tspan4807"
         x="139.72266"
         y="263.96466">bitbucket.org/polymetric1/proto-nano</tspan></text>
  </g>
</svg>
