<?xml version="1.0" standalone="no"?>
 <!DOCTYPE svg PUBLIC "-//W3C//DTD SVG 1.1//EN" 
 "http://www.w3.org/Graphics/SVG/1.1/DTD/svg11.dtd"> 
<svg xmlns="http://www.w3.org/2000/svg" version="1.1" 
    width="29.7002cm" height="21.0007cm" viewBox="0 0 116930 82680 ">
<title>SVG Picture created as Proto_Nano-F.Fab.svg date 2018/05/30 02:01:40 </title>
  <desc>Picture generated by PCBNEW </desc>
<g style="fill:#000000; fill-opacity:1;stroke:#000000; stroke-opacity:1;
stroke-linecap:round; stroke-linejoin:round; "
 transform="translate(0 0) scale(1 1)">
</g>
<g style="fill:#000000; fill-opacity:0.0; 
stroke:#000000; stroke-width:-0.000393701; stroke-opacity:1; 
stroke-linecap:round; stroke-linejoin:round;">
</g>
<g style="fill:#000000; fill-opacity:0.0; 
stroke:#000000; stroke-width:50; stroke-opacity:1; 
stroke-linecap:round; stroke-linejoin:round;">
<circle cx="7400" cy="3500" r="200" /> 
</g>
<g style="fill:#000000; fill-opacity:0.0; 
stroke:#000000; stroke-width:39.3701; stroke-opacity:1; 
stroke-linecap:round; stroke-linejoin:round;">
<path d="M-284 4976
L1684 4976
" />
<path d="M-9 2318
L-9 4681
" />
<path d="M-284 2023
L-284 4976
" />
<path d="M1684 2023
L1684 4976
" />
<path d="M-284 2023
L1684 2023
" />
<path d="M1723 2988
L1802 2909
" />
<path d="M1802 3066
L1723 2988
" />
<path d="M1885 2909
L1885 3066
" />
<path d="M1885 2909
L1802 2909
" />
<path d="M1885 3066
L1802 3066
" />
<path d="M13677 3157
L13677 2842
" />
<path d="M13814 2842
L13185 2842
" />
<path d="M13185 2842
L13185 3157
" />
<path d="M13185 3157
L13814 3157
" />
<path d="M13814 3157
L13814 2842
" />
<path d="M13677 2157
L13677 1842
" />
<path d="M13814 1842
L13185 1842
" />
<path d="M13185 1842
L13185 2157
" />
<path d="M13185 2157
L13814 2157
" />
<path d="M13814 2157
L13814 1842
" />
<path d="M13677 4157
L13677 3842
" />
<path d="M13814 3842
L13185 3842
" />
<path d="M13185 3842
L13185 4157
" />
<path d="M13185 4157
L13814 4157
" />
<path d="M13814 4157
L13814 3842
" />
<path d="M13677 5157
L13677 4842
" />
<path d="M13814 4842
L13185 4842
" />
<path d="M13185 4842
L13185 5157
" />
<path d="M13185 5157
L13814 5157
" />
<path d="M13814 5157
L13814 4842
" />
<path d="M16500 5000
L15000 5000
" />
<path d="M15000 5000
L15000 2000
" />
<path d="M15000 2000
L17000 2000
" />
<path d="M17000 2000
L17000 4500
" />
<path d="M17000 4500
L16500 5000
" />
<path d="M11685 3157
L12314 3157
" />
<path d="M12314 3157
L12314 2842
" />
<path d="M12314 2842
L11685 2842
" />
<path d="M11685 2842
L11685 3157
" />
<path d="M11685 2157
L12314 2157
" />
<path d="M12314 2157
L12314 1842
" />
<path d="M12314 1842
L11685 1842
" />
<path d="M11685 1842
L11685 2157
" />
<path d="M12314 3842
L11685 3842
" />
<path d="M11685 3842
L11685 4157
" />
<path d="M11685 4157
L12314 4157
" />
<path d="M12314 4157
L12314 3842
" />
<path d="M12314 4842
L11685 4842
" />
<path d="M11685 4842
L11685 5157
" />
<path d="M11685 5157
L12314 5157
" />
<path d="M12314 5157
L12314 4842
" />
<path d="M10106 4188
L10106 2811
" />
<path d="M10106 2811
L10893 2811
" />
<path d="M10893 2811
L10893 4188
" />
<path d="M10893 4188
L10106 4188
" />
<path d="M10814 4090
L10814 2909
" />
<path d="M10185 4090
L10185 2909
" />
<path d="M10185 2909
L10814 2909
" />
<path d="M10185 4090
L10814 4090
" />
<path d="M11188 4681
L11188 2318
" />
<path d="M9811 4681
L9811 2318
" />
<path d="M9811 4681
L11188 4681
" />
<path d="M9811 2318
L11188 2318
" />
</g>
<g style="fill:#000000; fill-opacity:0.0; 
stroke:#000000; stroke-width:59.0551; stroke-opacity:1; 
stroke-linecap:round; stroke-linejoin:round;">
<path d="M7670 3778
L6000 5448
" />
<path d="M6000 5448
L4051 3500
" />
<path d="M4051 3500
L6000 1551
" />
<path d="M6000 1551
L7670 3221
" />
<path d="M7670 3221
L7670 3778
" />
<circle cx="15500" cy="3500" r="200" /> 
<circle cx="15500" cy="4500" r="200" /> 
<circle cx="16500" cy="4500" r="200" /> 
<circle cx="15500" cy="2500" r="200" /> 
<circle cx="16500" cy="3500" r="200" /> 
<circle cx="16500" cy="2500" r="200" /> 
<path d="M0 1900
L-570 1900
" />
<path d="M-570 1900
L-570 5100
" />
<path d="M-570 5100
L0 5100
" />
<path d="M17000 0
L17000 7000
" />
<path d="M0 0
L0 7000
" />
<path d="M17000 7000
L0 7000
" />
<path d="M17000 0
L0 0
" />
<path d="M484 3631
L765 3631
L821 3649
L859 3687
L878 3743
L878 3781
" />
<path d="M878 3237
L878 3462
" />
<path d="M878 3350
L484 3350
L540 3387
L578 3425
L596 3462
" />
</g>
<g style="fill:#000000; fill-opacity:0.0; 
stroke:#000000; stroke-width:19.685; stroke-opacity:1; 
stroke-linecap:round; stroke-linejoin:round;">
<path d="M13364 3040
L13364 2950
L13385 2950
L13398 2954
L13407 2963
L13411 2971
L13416 2989
L13416 3002
L13411 3019
L13407 3028
L13398 3036
L13385 3040
L13364 3040
" />
<path d="M13450 2959
L13454 2954
L13463 2950
L13485 2950
L13493 2954
L13497 2959
L13502 2967
L13502 2976
L13497 2989
L13446 3040
L13502 3040
" />
<path d="M13364 2040
L13364 1950
L13385 1950
L13398 1954
L13407 1963
L13411 1971
L13416 1989
L13416 2002
L13411 2019
L13407 2028
L13398 2036
L13385 2040
L13364 2040
" />
<path d="M13446 1950
L13502 1950
L13472 1984
L13485 1984
L13493 1989
L13497 1993
L13502 2002
L13502 2023
L13497 2032
L13493 2036
L13485 2040
L13459 2040
L13450 2036
L13446 2032
" />
<path d="M13364 4040
L13364 3950
L13385 3950
L13398 3954
L13407 3963
L13411 3971
L13416 3989
L13416 4002
L13411 4019
L13407 4028
L13398 4036
L13385 4040
L13364 4040
" />
<path d="M13493 3980
L13493 4040
" />
<path d="M13472 3946
L13450 4010
L13506 4010
" />
<path d="M13364 5040
L13364 4950
L13385 4950
L13398 4954
L13407 4963
L13411 4971
L13416 4989
L13416 5002
L13411 5019
L13407 5028
L13398 5036
L13385 5040
L13364 5040
" />
<path d="M13497 4950
L13454 4950
L13450 4993
L13454 4989
L13463 4984
L13485 4984
L13493 4989
L13497 4993
L13502 5002
L13502 5023
L13497 5032
L13493 5036
L13485 5040
L13463 5040
L13454 5036
L13450 5032
" />
</g>
<g style="fill:#000000; fill-opacity:0.0; 
stroke:#000000; stroke-width:29.5276; stroke-opacity:1; 
stroke-linecap:round; stroke-linejoin:round;">
<path d="M11980 3053
L11940 2997
" />
<path d="M11912 3053
L11912 2935
L11957 2935
L11969 2940
L11974 2946
L11980 2957
L11980 2974
L11974 2985
L11969 2991
L11957 2997
L11912 2997
" />
<path d="M12092 3053
L12025 3053
" />
<path d="M12059 3053
L12059 2935
L12047 2952
L12036 2963
L12025 2969
" />
<path d="M11980 2053
L11940 1997
" />
<path d="M11912 2053
L11912 1935
L11957 1935
L11969 1940
L11974 1946
L11980 1957
L11980 1974
L11974 1985
L11969 1991
L11957 1997
L11912 1997
" />
<path d="M12025 1946
L12030 1940
L12042 1935
L12070 1935
L12081 1940
L12087 1946
L12092 1957
L12092 1969
L12087 1985
L12019 2053
L12092 2053
" />
<path d="M11980 4053
L11940 3997
" />
<path d="M11912 4053
L11912 3935
L11957 3935
L11969 3940
L11974 3946
L11980 3957
L11980 3974
L11974 3985
L11969 3991
L11957 3997
L11912 3997
" />
<path d="M12019 3935
L12092 3935
L12053 3980
L12070 3980
L12081 3985
L12087 3991
L12092 4002
L12092 4030
L12087 4042
L12081 4047
L12070 4053
L12036 4053
L12025 4047
L12019 4042
" />
<path d="M11980 5053
L11940 4997
" />
<path d="M11912 5053
L11912 4935
L11957 4935
L11969 4940
L11974 4946
L11980 4957
L11980 4974
L11974 4985
L11969 4991
L11957 4997
L11912 4997
" />
<path d="M12081 4974
L12081 5053
" />
<path d="M12053 4929
L12025 5014
L12098 5014
" />
</g>
<g style="fill:#000000; fill-opacity:0.0; 
stroke:#000000; stroke-width:49.2126; stroke-opacity:1; 
stroke-linecap:round; stroke-linejoin:round;">
<path d="M10619 3893
L10633 3851
L10633 3781
L10619 3753
L10605 3739
L10577 3724
L10549 3724
L10521 3739
L10507 3753
L10492 3781
L10478 3837
L10464 3865
L10450 3879
L10422 3893
L10394 3893
L10366 3879
L10352 3865
L10338 3837
L10338 3767
L10352 3724
" />
<path d="M10338 3626
L10633 3556
L10422 3500
L10633 3443
L10338 3373
" />
<path d="M10633 3106
L10633 3275
" />
<path d="M10633 3190
L10338 3190
L10380 3218
L10408 3246
L10422 3275
" />
</g>
<g style="fill:#000000; fill-opacity:0.0; 
stroke:#000000; stroke-width:59.0551; stroke-opacity:1; 
stroke-linecap:round; stroke-linejoin:round;">
<path d="M5635 3559
L5860 3785
L5900 3798
L5927 3798
L5966 3785
L6019 3731
L6033 3692
L6033 3665
L6019 3625
L5794 3400
" />
<path d="M5900 3294
L6072 3122
L6086 3321
L6125 3281
L6165 3268
L6192 3268
L6231 3281
L6298 3347
L6311 3387
L6311 3413
L6298 3453
L6218 3533
L6178 3546
L6152 3546
" />
</g> 
</svg>
