<?xml version="1.0" standalone="no"?>
 <!DOCTYPE svg PUBLIC "-//W3C//DTD SVG 1.1//EN" 
 "http://www.w3.org/Graphics/SVG/1.1/DTD/svg11.dtd"> 
<svg xmlns="http://www.w3.org/2000/svg" version="1.1" 
    width="29.7002cm" height="21.0007cm" viewBox="0 0 116930 82680 ">
<title>SVG Picture created as Proto_Nano-B.Fab.svg date 2018/05/30 02:01:43 </title>
  <desc>Picture generated by PCBNEW </desc>
<g style="fill:#000000; fill-opacity:1;stroke:#000000; stroke-opacity:1;
stroke-linecap:round; stroke-linejoin:round; "
 transform="translate(0 0) scale(1 1)">
</g>
<g style="fill:#000000; fill-opacity:0.0; 
stroke:#000000; stroke-width:-0.000393701; stroke-opacity:1; 
stroke-linecap:round; stroke-linejoin:round;">
</g>
<g style="fill:#000000; fill-opacity:0.0; 
stroke:#000000; stroke-width:39.3701; stroke-opacity:1; 
stroke-linecap:round; stroke-linejoin:round;">
<path d="M112678 5216
L112048 5216
" />
<path d="M112048 5216
L112048 5531
" />
<path d="M112048 5531
L112678 5531
" />
<path d="M112678 5531
L112678 5216
" />
<path d="M109666 4803
L109666 4173
" />
<path d="M109666 4173
L109351 4173
" />
<path d="M109351 4173
L109351 4803
" />
<path d="M109351 4803
L109666 4803
" />
<path d="M109843 3188
L109843 3818
" />
<path d="M109843 3818
L110158 3818
" />
<path d="M110158 3818
L110158 3188
" />
<path d="M110158 3188
L109843 3188
" />
<path d="M110158 4803
L110158 4173
" />
<path d="M110158 4173
L109843 4173
" />
<path d="M109843 4173
L109843 4803
" />
<path d="M109843 4803
L110158 4803
" />
<path d="M109351 3188
L109351 3818
" />
<path d="M109351 3818
L109666 3818
" />
<path d="M109666 3818
L109666 3188
" />
<path d="M109666 3188
L109351 3188
" />
<path d="M109351 2204
L109351 2834
" />
<path d="M109351 2834
L109666 2834
" />
<path d="M109666 2834
L109666 2204
" />
<path d="M109666 2204
L109351 2204
" />
<path d="M110158 2834
L110158 2204
" />
<path d="M110158 2204
L109843 2204
" />
<path d="M109843 2204
L109843 2834
" />
<path d="M109843 2834
L110158 2834
" />
<path d="M105433 2795
L105433 3425
" />
<path d="M105433 3425
L106693 3425
" />
<path d="M106693 3425
L106693 2795
" />
<path d="M106693 2795
L105433 2795
" />
<path d="M105559 2795
L105559 3425
" />
<path d="M105622 2795
L105622 3425
" />
<path d="M105433 1811
L105433 2440
" />
<path d="M105433 2440
L106693 2440
" />
<path d="M106693 2440
L106693 1811
" />
<path d="M106693 1811
L105433 1811
" />
<path d="M105559 1811
L105559 2440
" />
<path d="M105622 1811
L105622 2440
" />
<path d="M112933 5531
L113563 5531
" />
<path d="M113563 5531
L113563 5216
" />
<path d="M113563 5216
L112933 5216
" />
<path d="M112933 5216
L112933 5531
" />
<path d="M115778 3500
L115975 3500
" />
<path d="M115778 3657
L115542 3500
" />
<path d="M115778 3342
L115778 3657
" />
<path d="M115542 3500
L115778 3342
" />
<path d="M115542 3500
L115542 3716
" />
<path d="M115542 3500
L115542 3283
" />
<path d="M115384 3500
L115542 3500
" />
<path d="M115128 3854
L115128 3145
" />
<path d="M116231 3854
L115128 3854
" />
<path d="M116231 3145
L116231 3854
" />
<path d="M115128 3145
L116231 3145
" />
</g>
<g style="fill:#000000; fill-opacity:0.0; 
stroke:#000000; stroke-width:40; stroke-opacity:1; 
stroke-linecap:round; stroke-linejoin:round;">
<path d="M104601 1722
L104601 2922
" />
<path d="M102801 1722
L102801 2922
" />
<path d="M104601 2922
L102801 2922
" />
<path d="M104601 1722
L102801 1722
" />
</g>
<g style="fill:#000000; fill-opacity:0.0; 
stroke:#000000; stroke-width:39.3701; stroke-opacity:1; 
stroke-linecap:round; stroke-linejoin:round;">
<path d="M108859 4173
L108859 4803
" />
<path d="M108859 4803
L109174 4803
" />
<path d="M109174 4803
L109174 4173
" />
<path d="M109174 4173
L108859 4173
" />
<path d="M108367 4173
L108367 4803
" />
<path d="M108367 4803
L108681 4803
" />
<path d="M108681 4803
L108681 4173
" />
<path d="M108681 4173
L108367 4173
" />
<path d="M105059 5826
L105689 5826
" />
<path d="M105689 5826
L105689 5511
" />
<path d="M105689 5511
L105059 5511
" />
<path d="M105059 5511
L105059 5826
" />
<path d="M103201 3594
L103615 3181
" />
<path d="M103201 3594
L103201 5818
" />
<path d="M103615 3181
L104658 3181
" />
<path d="M103201 5818
L104658 5818
" />
<path d="M104658 3181
L104658 5818
" />
<path d="M110618 4366
L110382 4129
" />
<path d="M110382 4129
L110382 2633
" />
<path d="M110382 2633
L114477 2633
" />
<path d="M114477 2633
L114477 4366
" />
<path d="M114477 4366
L110618 4366
" />
</g>
<g style="fill:#000000; fill-opacity:0.0; 
stroke:#000000; stroke-width:59.0551; stroke-opacity:1; 
stroke-linecap:round; stroke-linejoin:round;">
<path d="M116930 7000
L99930 7000
" />
<path d="M116930 0
L116930 7000
" />
<path d="M99930 0
L116930 0
" />
<path d="M99930 7000
L99930 0
" />
</g>
<g style="fill:#000000; fill-opacity:0.0; 
stroke:#000000; stroke-width:29.5276; stroke-opacity:1; 
stroke-linecap:round; stroke-linejoin:round;">
<path d="M112343 5416
L112337 5421
L112320 5427
L112309 5427
L112292 5421
L112281 5410
L112275 5399
L112270 5376
L112270 5359
L112275 5337
L112281 5326
L112292 5314
L112309 5309
L112320 5309
L112337 5314
L112343 5320
" />
<path d="M112455 5427
L112388 5427
" />
<path d="M112422 5427
L112422 5309
L112410 5326
L112399 5337
L112388 5343
" />
<path d="M109466 4468
L109460 4462
L109455 4446
L109455 4434
L109460 4417
L109472 4406
L109483 4401
L109505 4395
L109522 4395
L109545 4401
L109556 4406
L109567 4417
L109573 4434
L109573 4446
L109567 4462
L109562 4468
" />
<path d="M109562 4513
L109567 4519
L109573 4530
L109573 4558
L109567 4569
L109562 4575
L109550 4580
L109539 4580
L109522 4575
L109455 4507
L109455 4580
" />
<path d="M109958 3484
L109953 3478
L109947 3461
L109947 3450
L109953 3433
L109964 3422
L109975 3416
L109998 3411
L110014 3411
L110037 3416
L110048 3422
L110059 3433
L110065 3450
L110065 3461
L110059 3478
L110054 3484
" />
<path d="M110065 3523
L110065 3596
L110020 3557
L110020 3574
L110014 3585
L110009 3591
L109998 3596
L109969 3596
L109958 3591
L109953 3585
L109947 3574
L109947 3540
L109953 3529
L109958 3523
" />
<path d="M109958 4468
L109953 4462
L109947 4446
L109947 4434
L109953 4417
L109964 4406
L109975 4401
L109998 4395
L110014 4395
L110037 4401
L110048 4406
L110059 4417
L110065 4434
L110065 4446
L110059 4462
L110054 4468
" />
<path d="M110026 4569
L109947 4569
" />
<path d="M110071 4541
L109986 4513
L109986 4586
" />
<path d="M109466 3484
L109460 3478
L109455 3461
L109455 3450
L109460 3433
L109472 3422
L109483 3416
L109505 3411
L109522 3411
L109545 3416
L109556 3422
L109567 3433
L109573 3450
L109573 3461
L109567 3478
L109562 3484
" />
<path d="M109573 3591
L109573 3534
L109517 3529
L109522 3534
L109528 3546
L109528 3574
L109522 3585
L109517 3591
L109505 3596
L109477 3596
L109466 3591
L109460 3585
L109455 3574
L109455 3546
L109460 3534
L109466 3529
" />
<path d="M109466 2500
L109460 2494
L109455 2477
L109455 2466
L109460 2449
L109472 2438
L109483 2432
L109505 2426
L109522 2426
L109545 2432
L109556 2438
L109567 2449
L109573 2466
L109573 2477
L109567 2494
L109562 2500
" />
<path d="M109573 2601
L109573 2578
L109567 2567
L109562 2561
L109545 2550
L109522 2544
L109477 2544
L109466 2550
L109460 2556
L109455 2567
L109455 2589
L109460 2601
L109466 2606
L109477 2612
L109505 2612
L109517 2606
L109522 2601
L109528 2589
L109528 2567
L109522 2556
L109517 2550
L109505 2544
" />
<path d="M109958 2500
L109953 2494
L109947 2477
L109947 2466
L109953 2449
L109964 2438
L109975 2432
L109998 2426
L110014 2426
L110037 2432
L110048 2438
L110059 2449
L110065 2466
L110065 2477
L110059 2494
L110054 2500
" />
<path d="M110065 2539
L110065 2618
L109947 2567
" />
</g>
<g style="fill:#000000; fill-opacity:0.0; 
stroke:#000000; stroke-width:41.3386; stroke-opacity:1; 
stroke-linecap:round; stroke-linejoin:round;">
<path d="M106017 3208
L106004 3221
L105965 3234
L105939 3234
L105899 3221
L105873 3195
L105860 3169
L105847 3116
L105847 3077
L105860 3024
L105873 2998
L105899 2972
L105939 2959
L105965 2959
L106004 2972
L106017 2985
" />
<path d="M106175 3077
L106149 3064
L106136 3051
L106122 3024
L106122 3011
L106136 2985
L106149 2972
L106175 2959
L106227 2959
L106254 2972
L106267 2985
L106280 3011
L106280 3024
L106267 3051
L106254 3064
L106227 3077
L106175 3077
L106149 3090
L106136 3103
L106122 3129
L106122 3182
L106136 3208
L106149 3221
L106175 3234
L106227 3234
L106254 3221
L106267 3208
L106280 3182
L106280 3129
L106267 3103
L106254 3090
L106227 3077
" />
<path d="M106017 2224
L106004 2237
L105965 2250
L105939 2250
L105899 2237
L105873 2211
L105860 2185
L105847 2132
L105847 2093
L105860 2040
L105873 2014
L105899 1988
L105939 1975
L105965 1975
L106004 1988
L106017 2001
" />
<path d="M106149 2250
L106201 2250
L106227 2237
L106241 2224
L106267 2185
L106280 2132
L106280 2027
L106267 2001
L106254 1988
L106227 1975
L106175 1975
L106149 1988
L106136 2001
L106122 2027
L106122 2093
L106136 2119
L106149 2132
L106175 2145
L106227 2145
L106254 2132
L106267 2119
L106280 2093
" />
</g>
<g style="fill:#000000; fill-opacity:0.0; 
stroke:#000000; stroke-width:29.5276; stroke-opacity:1; 
stroke-linecap:round; stroke-linejoin:round;">
<path d="M113172 5416
L113167 5421
L113150 5427
L113139 5427
L113122 5421
L113111 5410
L113105 5399
L113099 5376
L113099 5359
L113105 5337
L113111 5326
L113122 5314
L113139 5309
L113150 5309
L113167 5314
L113172 5320
" />
<path d="M113285 5427
L113217 5427
" />
<path d="M113251 5427
L113251 5309
L113240 5326
L113229 5337
L113217 5343
" />
<path d="M113358 5309
L113369 5309
L113381 5314
L113386 5320
L113392 5331
L113397 5354
L113397 5382
L113392 5404
L113386 5416
L113381 5421
L113369 5427
L113358 5427
L113347 5421
L113341 5416
L113336 5404
L113330 5382
L113330 5354
L113336 5331
L113341 5320
L113347 5314
L113358 5309
" />
</g>
<g style="fill:#000000; fill-opacity:0.0; 
stroke:#000000; stroke-width:59.0551; stroke-opacity:1; 
stroke-linecap:round; stroke-linejoin:round;">
<path d="M115389 2890
L115389 2497
L115483 2497
L115539 2515
L115576 2553
L115595 2590
L115614 2665
L115614 2721
L115595 2796
L115576 2834
L115539 2871
L115483 2890
L115389 2890
" />
<path d="M115989 2890
L115764 2890
" />
<path d="M115876 2890
L115876 2497
L115839 2553
L115801 2590
L115764 2609
" />
<path d="M103570 2294
L103439 2294
" />
<path d="M103439 2500
L103439 2107
L103626 2107
" />
<path d="M103982 2500
L103757 2500
" />
<path d="M103870 2500
L103870 2107
L103832 2163
L103795 2200
L103757 2219
" />
</g>
<g style="fill:#000000; fill-opacity:0.0; 
stroke:#000000; stroke-width:29.5276; stroke-opacity:1; 
stroke-linecap:round; stroke-linejoin:round;">
<path d="M108963 4468
L109019 4429
" />
<path d="M108963 4401
L109081 4401
L109081 4446
L109075 4457
L109070 4462
L109058 4468
L109041 4468
L109030 4462
L109025 4457
L109019 4446
L109019 4401
" />
<path d="M109081 4575
L109081 4519
L109025 4513
L109030 4519
L109036 4530
L109036 4558
L109030 4569
L109025 4575
L109013 4580
L108985 4580
L108974 4575
L108968 4569
L108963 4558
L108963 4530
L108968 4519
L108974 4513
" />
<path d="M108471 4468
L108527 4429
" />
<path d="M108471 4401
L108589 4401
L108589 4446
L108583 4457
L108577 4462
L108566 4468
L108549 4468
L108538 4462
L108532 4457
L108527 4446
L108527 4401
" />
<path d="M108589 4569
L108589 4547
L108583 4535
L108577 4530
L108561 4519
L108538 4513
L108493 4513
L108482 4519
L108476 4524
L108471 4535
L108471 4558
L108476 4569
L108482 4575
L108493 4580
L108521 4580
L108532 4575
L108538 4569
L108544 4558
L108544 4535
L108538 4524
L108532 4519
L108521 4513
" />
<path d="M105355 5722
L105315 5666
" />
<path d="M105287 5722
L105287 5604
L105332 5604
L105343 5610
L105349 5615
L105355 5627
L105355 5643
L105349 5655
L105343 5660
L105332 5666
L105287 5666
" />
<path d="M105394 5604
L105473 5604
L105422 5722
" />
</g>
<g style="fill:#000000; fill-opacity:0.0; 
stroke:#000000; stroke-width:47.2441; stroke-opacity:1; 
stroke-linecap:round; stroke-linejoin:round;">
<path d="M104102 4260
L103847 4260
L103817 4275
L103802 4290
L103787 4320
L103787 4380
L103802 4410
L103817 4425
L103847 4440
L104102 4440
" />
<path d="M103787 4754
L103787 4574
" />
<path d="M103787 4664
L104102 4664
L104057 4634
L104027 4604
L104012 4574
" />
</g>
<g style="fill:#000000; fill-opacity:0.0; 
stroke:#000000; stroke-width:59.0551; stroke-opacity:1; 
stroke-linecap:round; stroke-linejoin:round;">
<path d="M112602 3260
L112347 3260
L112317 3275
L112302 3290
L112287 3320
L112287 3380
L112302 3410
L112317 3425
L112347 3440
L112602 3440
" />
<path d="M112572 3574
L112587 3589
L112602 3619
L112602 3694
L112587 3724
L112572 3739
L112542 3754
L112512 3754
L112467 3739
L112287 3559
L112287 3754
" />
</g> 
</svg>
