G04 #@! TF.FileFunction,Paste,Top*
%FSLAX46Y46*%
G04 Gerber Fmt 4.6, Leading zero omitted, Abs format (unit mm)*
G04 Created by KiCad (PCBNEW 4.0.7) date 05/30/18 02:56:49*
%MOMM*%
%LPD*%
G01*
G04 APERTURE LIST*
%ADD10C,0.100000*%
%ADD11R,1.900000X1.500000*%
%ADD12R,1.350000X0.400000*%
%ADD13R,0.600000X0.900000*%
%ADD14R,1.600000X2.180000*%
G04 APERTURE END LIST*
D10*
D11*
X1428000Y-9890000D03*
D12*
X4128000Y-8240000D03*
X4128000Y-7590000D03*
X4128000Y-10190000D03*
X4128000Y-9540000D03*
X4128000Y-8890000D03*
D11*
X1428000Y-7890000D03*
D13*
X33540000Y-7620000D03*
X35040000Y-7620000D03*
X33540000Y-5080000D03*
X35040000Y-5080000D03*
X33540000Y-10160000D03*
X35040000Y-10160000D03*
X33540000Y-12700000D03*
X35040000Y-12700000D03*
X31230000Y-7620000D03*
X29730000Y-7620000D03*
X31230000Y-5080000D03*
X29730000Y-5080000D03*
X29730000Y-10160000D03*
X31230000Y-10160000D03*
X29730000Y-12700000D03*
X31230000Y-12700000D03*
D14*
X26670000Y-13480000D03*
X26670000Y-4300000D03*
D10*
G36*
X20596334Y-7104555D02*
X20985243Y-7493464D01*
X19853872Y-8624835D01*
X19464963Y-8235926D01*
X20596334Y-7104555D01*
X20596334Y-7104555D01*
G37*
G36*
X20030648Y-6538870D02*
X20419557Y-6927779D01*
X19288186Y-8059150D01*
X18899277Y-7670241D01*
X20030648Y-6538870D01*
X20030648Y-6538870D01*
G37*
G36*
X19464963Y-5973184D02*
X19853872Y-6362093D01*
X18722501Y-7493464D01*
X18333592Y-7104555D01*
X19464963Y-5973184D01*
X19464963Y-5973184D01*
G37*
G36*
X18899278Y-5407499D02*
X19288187Y-5796408D01*
X18156816Y-6927779D01*
X17767907Y-6538870D01*
X18899278Y-5407499D01*
X18899278Y-5407499D01*
G37*
G36*
X18333592Y-4841813D02*
X18722501Y-5230722D01*
X17591130Y-6362093D01*
X17202221Y-5973184D01*
X18333592Y-4841813D01*
X18333592Y-4841813D01*
G37*
G36*
X17767907Y-4276128D02*
X18156816Y-4665037D01*
X17025445Y-5796408D01*
X16636536Y-5407499D01*
X17767907Y-4276128D01*
X17767907Y-4276128D01*
G37*
G36*
X17202221Y-3710443D02*
X17591130Y-4099352D01*
X16459759Y-5230723D01*
X16070850Y-4841814D01*
X17202221Y-3710443D01*
X17202221Y-3710443D01*
G37*
G36*
X16636536Y-3144757D02*
X17025445Y-3533666D01*
X15894074Y-4665037D01*
X15505165Y-4276128D01*
X16636536Y-3144757D01*
X16636536Y-3144757D01*
G37*
G36*
X13454555Y-3533666D02*
X13843464Y-3144757D01*
X14974835Y-4276128D01*
X14585926Y-4665037D01*
X13454555Y-3533666D01*
X13454555Y-3533666D01*
G37*
G36*
X12888870Y-4099352D02*
X13277779Y-3710443D01*
X14409150Y-4841814D01*
X14020241Y-5230723D01*
X12888870Y-4099352D01*
X12888870Y-4099352D01*
G37*
G36*
X12323184Y-4665037D02*
X12712093Y-4276128D01*
X13843464Y-5407499D01*
X13454555Y-5796408D01*
X12323184Y-4665037D01*
X12323184Y-4665037D01*
G37*
G36*
X11757499Y-5230722D02*
X12146408Y-4841813D01*
X13277779Y-5973184D01*
X12888870Y-6362093D01*
X11757499Y-5230722D01*
X11757499Y-5230722D01*
G37*
G36*
X11191813Y-5796408D02*
X11580722Y-5407499D01*
X12712093Y-6538870D01*
X12323184Y-6927779D01*
X11191813Y-5796408D01*
X11191813Y-5796408D01*
G37*
G36*
X10626128Y-6362093D02*
X11015037Y-5973184D01*
X12146408Y-7104555D01*
X11757499Y-7493464D01*
X10626128Y-6362093D01*
X10626128Y-6362093D01*
G37*
G36*
X10060443Y-6927779D02*
X10449352Y-6538870D01*
X11580723Y-7670241D01*
X11191814Y-8059150D01*
X10060443Y-6927779D01*
X10060443Y-6927779D01*
G37*
G36*
X9494757Y-7493464D02*
X9883666Y-7104555D01*
X11015037Y-8235926D01*
X10626128Y-8624835D01*
X9494757Y-7493464D01*
X9494757Y-7493464D01*
G37*
G36*
X10626128Y-9155165D02*
X11015037Y-9544074D01*
X9883666Y-10675445D01*
X9494757Y-10286536D01*
X10626128Y-9155165D01*
X10626128Y-9155165D01*
G37*
G36*
X11191814Y-9720850D02*
X11580723Y-10109759D01*
X10449352Y-11241130D01*
X10060443Y-10852221D01*
X11191814Y-9720850D01*
X11191814Y-9720850D01*
G37*
G36*
X11757499Y-10286536D02*
X12146408Y-10675445D01*
X11015037Y-11806816D01*
X10626128Y-11417907D01*
X11757499Y-10286536D01*
X11757499Y-10286536D01*
G37*
G36*
X12323184Y-10852221D02*
X12712093Y-11241130D01*
X11580722Y-12372501D01*
X11191813Y-11983592D01*
X12323184Y-10852221D01*
X12323184Y-10852221D01*
G37*
G36*
X12888870Y-11417907D02*
X13277779Y-11806816D01*
X12146408Y-12938187D01*
X11757499Y-12549278D01*
X12888870Y-11417907D01*
X12888870Y-11417907D01*
G37*
G36*
X13454555Y-11983592D02*
X13843464Y-12372501D01*
X12712093Y-13503872D01*
X12323184Y-13114963D01*
X13454555Y-11983592D01*
X13454555Y-11983592D01*
G37*
G36*
X14020241Y-12549277D02*
X14409150Y-12938186D01*
X13277779Y-14069557D01*
X12888870Y-13680648D01*
X14020241Y-12549277D01*
X14020241Y-12549277D01*
G37*
G36*
X14585926Y-13114963D02*
X14974835Y-13503872D01*
X13843464Y-14635243D01*
X13454555Y-14246334D01*
X14585926Y-13114963D01*
X14585926Y-13114963D01*
G37*
G36*
X15505165Y-13503872D02*
X15894074Y-13114963D01*
X17025445Y-14246334D01*
X16636536Y-14635243D01*
X15505165Y-13503872D01*
X15505165Y-13503872D01*
G37*
G36*
X16070850Y-12938186D02*
X16459759Y-12549277D01*
X17591130Y-13680648D01*
X17202221Y-14069557D01*
X16070850Y-12938186D01*
X16070850Y-12938186D01*
G37*
G36*
X16636536Y-12372501D02*
X17025445Y-11983592D01*
X18156816Y-13114963D01*
X17767907Y-13503872D01*
X16636536Y-12372501D01*
X16636536Y-12372501D01*
G37*
G36*
X17202221Y-11806816D02*
X17591130Y-11417907D01*
X18722501Y-12549278D01*
X18333592Y-12938187D01*
X17202221Y-11806816D01*
X17202221Y-11806816D01*
G37*
G36*
X17767907Y-11241130D02*
X18156816Y-10852221D01*
X19288187Y-11983592D01*
X18899278Y-12372501D01*
X17767907Y-11241130D01*
X17767907Y-11241130D01*
G37*
G36*
X18333592Y-10675445D02*
X18722501Y-10286536D01*
X19853872Y-11417907D01*
X19464963Y-11806816D01*
X18333592Y-10675445D01*
X18333592Y-10675445D01*
G37*
G36*
X18899277Y-10109759D02*
X19288186Y-9720850D01*
X20419557Y-10852221D01*
X20030648Y-11241130D01*
X18899277Y-10109759D01*
X18899277Y-10109759D01*
G37*
G36*
X19464963Y-9544074D02*
X19853872Y-9155165D01*
X20985243Y-10286536D01*
X20596334Y-10675445D01*
X19464963Y-9544074D01*
X19464963Y-9544074D01*
G37*
G36*
X20175787Y-4726447D02*
X21236447Y-3665787D01*
X21660711Y-4090051D01*
X20600051Y-5150711D01*
X20175787Y-4726447D01*
X20175787Y-4726447D01*
G37*
G36*
X20847538Y-5398198D02*
X21908198Y-4337538D01*
X22332462Y-4761802D01*
X21271802Y-5822462D01*
X20847538Y-5398198D01*
X20847538Y-5398198D01*
G37*
G36*
X21519289Y-6069949D02*
X22579949Y-5009289D01*
X23004213Y-5433553D01*
X21943553Y-6494213D01*
X21519289Y-6069949D01*
X21519289Y-6069949D01*
G37*
M02*
