G04 #@! TF.FileFunction,Legend,Bot*
%FSLAX46Y46*%
G04 Gerber Fmt 4.6, Leading zero omitted, Abs format (unit mm)*
G04 Created by KiCad (PCBNEW 4.0.7) date 05/30/18 02:56:49*
%MOMM*%
%LPD*%
G01*
G04 APERTURE LIST*
%ADD10C,0.100000*%
%ADD11C,0.127000*%
%ADD12C,0.120000*%
%ADD13C,0.101600*%
%ADD14C,0.200000*%
%ADD15C,1.551600*%
%ADD16C,2.001600*%
%ADD17R,0.701600X1.001600*%
%ADD18R,1.001600X0.701600*%
%ADD19R,2.051600X1.601600*%
%ADD20R,1.001600X1.301600*%
%ADD21R,1.625600X3.149600*%
%ADD22R,1.801600X1.801600*%
%ADD23O,1.801600X1.801600*%
%ADD24R,2.101600X3.901600*%
%ADD25R,2.101600X1.601600*%
%ADD26R,0.901600X1.401600*%
%ADD27R,0.701600X1.601600*%
%ADD28C,1.828800*%
%ADD29R,1.828800X1.828800*%
%ADD30C,1.951600*%
G04 APERTURE END LIST*
D10*
D11*
X16000000Y-10250000D02*
G75*
G03X16000000Y-10250000I-250000J0D01*
G01*
D10*
X11000000Y-14250000D02*
X12200000Y-14250000D01*
X11000000Y-13050000D02*
X12200000Y-13050000D01*
X19450000Y-12000000D02*
X19450000Y-10800000D01*
X18250000Y-12000000D02*
X18250000Y-10800000D01*
X17000000Y-8300000D02*
X17000000Y-9500000D01*
X18200000Y-8300000D02*
X18200000Y-9500000D01*
X18200000Y-12000000D02*
X18200000Y-10800000D01*
X17000000Y-12000000D02*
X17000000Y-10800000D01*
X18250000Y-8300000D02*
X18250000Y-9500000D01*
X19450000Y-8300000D02*
X19450000Y-9500000D01*
X18250000Y-5800000D02*
X18250000Y-7000000D01*
X19450000Y-5800000D02*
X19450000Y-7000000D01*
X18200000Y-7000000D02*
X18200000Y-5800000D01*
X17000000Y-7000000D02*
X17000000Y-5800000D01*
D12*
X30250000Y-6850000D02*
X26000000Y-6850000D01*
X30250000Y-8950000D02*
X26000000Y-8950000D01*
X30250000Y-6850000D02*
X30250000Y-8950000D01*
X30250000Y-4350000D02*
X26000000Y-4350000D01*
X30250000Y-6450000D02*
X26000000Y-6450000D01*
X30250000Y-4350000D02*
X30250000Y-6450000D01*
D10*
X9950000Y-13050000D02*
X8750000Y-13050000D01*
X9950000Y-14250000D02*
X8750000Y-14250000D01*
D12*
X5425000Y-7890000D02*
X5425000Y-9890000D01*
X5425000Y-9890000D02*
X1525000Y-9890000D01*
X5425000Y-7890000D02*
X1525000Y-7890000D01*
D13*
X34870000Y-4122000D02*
X32330000Y-4122000D01*
X32330000Y-7678000D02*
X34870000Y-7678000D01*
D10*
X19500000Y-10800000D02*
X19500000Y-12000000D01*
X20700000Y-10800000D02*
X20700000Y-12000000D01*
X20750000Y-10800000D02*
X20750000Y-12000000D01*
X21950000Y-10800000D02*
X21950000Y-12000000D01*
X29950000Y-13800000D02*
X28750000Y-13800000D01*
X29950000Y-15000000D02*
X28750000Y-15000000D01*
D12*
X31110000Y-14840000D02*
X31110000Y-13580000D01*
X31110000Y-8020000D02*
X31110000Y-9280000D01*
X34870000Y-14840000D02*
X31110000Y-14840000D01*
X37120000Y-8020000D02*
X31110000Y-8020000D01*
X16830000Y-11290000D02*
X16430000Y-11290000D01*
X16430000Y-11290000D02*
X16430000Y-12690000D01*
X16830000Y-11290000D02*
X16830000Y-6490000D01*
X6030000Y-11290000D02*
X6030000Y-6490000D01*
D14*
X4000000Y-15050000D02*
X7200000Y-15050000D01*
X7200000Y-13750000D02*
X4000000Y-13750000D01*
X4000000Y-13750000D02*
X4000000Y-15050000D01*
X7200000Y-13750000D02*
X7200000Y-15050000D01*
%LPC*%
D15*
X4128000Y-6390000D03*
X4128000Y-11390000D03*
D16*
X1428000Y-5390000D03*
X1428000Y-12390000D03*
D17*
X12350000Y-13650000D03*
X10850000Y-13650000D03*
D18*
X18850000Y-10650000D03*
X18850000Y-12150000D03*
X17600000Y-9650000D03*
X17600000Y-8150000D03*
X17600000Y-10650000D03*
X17600000Y-12150000D03*
X18850000Y-9650000D03*
X18850000Y-8150000D03*
X18850000Y-7150000D03*
X18850000Y-5650000D03*
X17600000Y-5650000D03*
X17600000Y-7150000D03*
D19*
X28975000Y-7900000D03*
X26225000Y-7900000D03*
X28975000Y-5400000D03*
X26225000Y-5400000D03*
D17*
X8600000Y-13650000D03*
X10100000Y-13650000D03*
D20*
X4825000Y-8890000D03*
X1525000Y-8890000D03*
D21*
X35632000Y-5900000D03*
X31568000Y-5900000D03*
D22*
X41910000Y-11430000D03*
D23*
X39370000Y-11430000D03*
X41910000Y-8890000D03*
X39370000Y-8890000D03*
X41910000Y-6350000D03*
X39370000Y-6350000D03*
D18*
X20100000Y-12150000D03*
X20100000Y-10650000D03*
X21350000Y-12150000D03*
X21350000Y-10650000D03*
D17*
X28600000Y-14400000D03*
X30100000Y-14400000D03*
D24*
X29870000Y-11430000D03*
D25*
X36170000Y-11430000D03*
X36170000Y-13730000D03*
X36170000Y-9130000D03*
D26*
X15880000Y-12040000D03*
X14600000Y-12040000D03*
X13340000Y-12040000D03*
X12070000Y-12040000D03*
X10790000Y-12040000D03*
X9520000Y-12040000D03*
X8260000Y-12040000D03*
X6980000Y-12040000D03*
X6980000Y-5740000D03*
X8260000Y-5740000D03*
X9520000Y-5740000D03*
X10790000Y-5740000D03*
X12070000Y-5740000D03*
X13340000Y-5740000D03*
X14600000Y-5740000D03*
X15880000Y-5740000D03*
D27*
X6550000Y-14400000D03*
X5600000Y-14400000D03*
X4650000Y-14400000D03*
D28*
X39370000Y-16510000D03*
X36830000Y-16510000D03*
X34290000Y-16510000D03*
X31750000Y-16510000D03*
X29210000Y-16510000D03*
X26670000Y-16510000D03*
X24130000Y-16510000D03*
X21590000Y-16510000D03*
X19050000Y-16510000D03*
X16510000Y-16510000D03*
X13970000Y-16510000D03*
X11430000Y-16510000D03*
X8890000Y-16510000D03*
X6350000Y-16510000D03*
X3810000Y-16510000D03*
X3810000Y-1270000D03*
X6350000Y-1270000D03*
X8890000Y-1270000D03*
X11430000Y-1270000D03*
X13970000Y-1270000D03*
X16510000Y-1270000D03*
X19050000Y-1270000D03*
X21590000Y-1270000D03*
X24130000Y-1270000D03*
X26670000Y-1270000D03*
X29210000Y-1270000D03*
X31750000Y-1270000D03*
X34290000Y-1270000D03*
X36830000Y-1270000D03*
D29*
X39370000Y-1270000D03*
D30*
X41910000Y-1270000D03*
X41910000Y-16510000D03*
X1270000Y-1270000D03*
X1270000Y-16510000D03*
M02*
