G04 #@! TF.FileFunction,Paste,Bot*
%FSLAX46Y46*%
G04 Gerber Fmt 4.6, Leading zero omitted, Abs format (unit mm)*
G04 Created by KiCad (PCBNEW 4.0.7) date 05/30/18 02:56:49*
%MOMM*%
%LPD*%
G01*
G04 APERTURE LIST*
%ADD10C,0.100000*%
%ADD11R,0.600000X0.900000*%
%ADD12R,0.900000X0.600000*%
%ADD13R,1.950000X1.500000*%
%ADD14R,0.900000X1.200000*%
%ADD15R,1.524000X3.048000*%
%ADD16R,2.000000X3.800000*%
%ADD17R,2.000000X1.500000*%
%ADD18R,0.800000X1.300000*%
%ADD19R,0.600000X1.500000*%
G04 APERTURE END LIST*
D10*
D11*
X12350000Y-13650000D03*
X10850000Y-13650000D03*
D12*
X18850000Y-10650000D03*
X18850000Y-12150000D03*
X17600000Y-9650000D03*
X17600000Y-8150000D03*
X17600000Y-10650000D03*
X17600000Y-12150000D03*
X18850000Y-9650000D03*
X18850000Y-8150000D03*
X18850000Y-7150000D03*
X18850000Y-5650000D03*
X17600000Y-5650000D03*
X17600000Y-7150000D03*
D13*
X28975000Y-7900000D03*
X26225000Y-7900000D03*
X28975000Y-5400000D03*
X26225000Y-5400000D03*
D11*
X8600000Y-13650000D03*
X10100000Y-13650000D03*
D14*
X4825000Y-8890000D03*
X1525000Y-8890000D03*
D15*
X35632000Y-5900000D03*
X31568000Y-5900000D03*
D12*
X20100000Y-12150000D03*
X20100000Y-10650000D03*
X21350000Y-12150000D03*
X21350000Y-10650000D03*
D11*
X28600000Y-14400000D03*
X30100000Y-14400000D03*
D16*
X29870000Y-11430000D03*
D17*
X36170000Y-11430000D03*
X36170000Y-13730000D03*
X36170000Y-9130000D03*
D18*
X15880000Y-12040000D03*
X14600000Y-12040000D03*
X13340000Y-12040000D03*
X12070000Y-12040000D03*
X10790000Y-12040000D03*
X9520000Y-12040000D03*
X8260000Y-12040000D03*
X6980000Y-12040000D03*
X6980000Y-5740000D03*
X8260000Y-5740000D03*
X9520000Y-5740000D03*
X10790000Y-5740000D03*
X12070000Y-5740000D03*
X13340000Y-5740000D03*
X14600000Y-5740000D03*
X15880000Y-5740000D03*
D19*
X6550000Y-14400000D03*
X5600000Y-14400000D03*
X4650000Y-14400000D03*
M02*
