G04 #@! TF.FileFunction,Soldermask,Top*
%FSLAX46Y46*%
G04 Gerber Fmt 4.6, Leading zero omitted, Abs format (unit mm)*
G04 Created by KiCad (PCBNEW 4.0.7) date 05/30/18 02:56:49*
%MOMM*%
%LPD*%
G01*
G04 APERTURE LIST*
%ADD10C,0.100000*%
%ADD11R,2.001600X1.601600*%
%ADD12C,1.551600*%
%ADD13R,1.451600X0.501600*%
%ADD14C,2.001600*%
%ADD15R,2.001600X1.301600*%
%ADD16R,0.701600X1.001600*%
%ADD17R,1.801600X1.801600*%
%ADD18O,1.801600X1.801600*%
%ADD19R,1.701600X2.281600*%
%ADD20C,1.828800*%
%ADD21R,1.828800X1.828800*%
%ADD22C,1.951600*%
G04 APERTURE END LIST*
D10*
D11*
X1428000Y-9890000D03*
D12*
X4128000Y-6390000D03*
D13*
X4128000Y-8240000D03*
X4128000Y-7590000D03*
X4128000Y-10190000D03*
X4128000Y-9540000D03*
X4128000Y-8890000D03*
D12*
X4128000Y-11390000D03*
D11*
X1428000Y-7890000D03*
D14*
X1428000Y-5390000D03*
X1428000Y-12390000D03*
D15*
X1428000Y-11790000D03*
X1428000Y-5990000D03*
D16*
X33540000Y-7620000D03*
X35040000Y-7620000D03*
X33540000Y-5080000D03*
X35040000Y-5080000D03*
X33540000Y-10160000D03*
X35040000Y-10160000D03*
X33540000Y-12700000D03*
X35040000Y-12700000D03*
D17*
X41910000Y-11430000D03*
D18*
X39370000Y-11430000D03*
X41910000Y-8890000D03*
X39370000Y-8890000D03*
X41910000Y-6350000D03*
X39370000Y-6350000D03*
D16*
X31230000Y-7620000D03*
X29730000Y-7620000D03*
X31230000Y-5080000D03*
X29730000Y-5080000D03*
X29730000Y-10160000D03*
X31230000Y-10160000D03*
X29730000Y-12700000D03*
X31230000Y-12700000D03*
D19*
X26670000Y-13480000D03*
X26670000Y-4300000D03*
D10*
G36*
X20596334Y-7032713D02*
X21057085Y-7493464D01*
X19853872Y-8696677D01*
X19393121Y-8235926D01*
X20596334Y-7032713D01*
X20596334Y-7032713D01*
G37*
G36*
X20030648Y-6467028D02*
X20491399Y-6927779D01*
X19288186Y-8130992D01*
X18827435Y-7670241D01*
X20030648Y-6467028D01*
X20030648Y-6467028D01*
G37*
G36*
X19464963Y-5901342D02*
X19925714Y-6362093D01*
X18722501Y-7565306D01*
X18261750Y-7104555D01*
X19464963Y-5901342D01*
X19464963Y-5901342D01*
G37*
G36*
X18899278Y-5335657D02*
X19360029Y-5796408D01*
X18156816Y-6999621D01*
X17696065Y-6538870D01*
X18899278Y-5335657D01*
X18899278Y-5335657D01*
G37*
G36*
X18333592Y-4769971D02*
X18794343Y-5230722D01*
X17591130Y-6433935D01*
X17130379Y-5973184D01*
X18333592Y-4769971D01*
X18333592Y-4769971D01*
G37*
G36*
X17767907Y-4204286D02*
X18228658Y-4665037D01*
X17025445Y-5868250D01*
X16564694Y-5407499D01*
X17767907Y-4204286D01*
X17767907Y-4204286D01*
G37*
G36*
X17202221Y-3638601D02*
X17662972Y-4099352D01*
X16459759Y-5302565D01*
X15999008Y-4841814D01*
X17202221Y-3638601D01*
X17202221Y-3638601D01*
G37*
G36*
X16636536Y-3072915D02*
X17097287Y-3533666D01*
X15894074Y-4736879D01*
X15433323Y-4276128D01*
X16636536Y-3072915D01*
X16636536Y-3072915D01*
G37*
G36*
X13382713Y-3533666D02*
X13843464Y-3072915D01*
X15046677Y-4276128D01*
X14585926Y-4736879D01*
X13382713Y-3533666D01*
X13382713Y-3533666D01*
G37*
G36*
X12817028Y-4099352D02*
X13277779Y-3638601D01*
X14480992Y-4841814D01*
X14020241Y-5302565D01*
X12817028Y-4099352D01*
X12817028Y-4099352D01*
G37*
G36*
X12251342Y-4665037D02*
X12712093Y-4204286D01*
X13915306Y-5407499D01*
X13454555Y-5868250D01*
X12251342Y-4665037D01*
X12251342Y-4665037D01*
G37*
G36*
X11685657Y-5230722D02*
X12146408Y-4769971D01*
X13349621Y-5973184D01*
X12888870Y-6433935D01*
X11685657Y-5230722D01*
X11685657Y-5230722D01*
G37*
G36*
X11119971Y-5796408D02*
X11580722Y-5335657D01*
X12783935Y-6538870D01*
X12323184Y-6999621D01*
X11119971Y-5796408D01*
X11119971Y-5796408D01*
G37*
G36*
X10554286Y-6362093D02*
X11015037Y-5901342D01*
X12218250Y-7104555D01*
X11757499Y-7565306D01*
X10554286Y-6362093D01*
X10554286Y-6362093D01*
G37*
G36*
X9988601Y-6927779D02*
X10449352Y-6467028D01*
X11652565Y-7670241D01*
X11191814Y-8130992D01*
X9988601Y-6927779D01*
X9988601Y-6927779D01*
G37*
G36*
X9422915Y-7493464D02*
X9883666Y-7032713D01*
X11086879Y-8235926D01*
X10626128Y-8696677D01*
X9422915Y-7493464D01*
X9422915Y-7493464D01*
G37*
G36*
X10626128Y-9083323D02*
X11086879Y-9544074D01*
X9883666Y-10747287D01*
X9422915Y-10286536D01*
X10626128Y-9083323D01*
X10626128Y-9083323D01*
G37*
G36*
X11191814Y-9649008D02*
X11652565Y-10109759D01*
X10449352Y-11312972D01*
X9988601Y-10852221D01*
X11191814Y-9649008D01*
X11191814Y-9649008D01*
G37*
G36*
X11757499Y-10214694D02*
X12218250Y-10675445D01*
X11015037Y-11878658D01*
X10554286Y-11417907D01*
X11757499Y-10214694D01*
X11757499Y-10214694D01*
G37*
G36*
X12323184Y-10780379D02*
X12783935Y-11241130D01*
X11580722Y-12444343D01*
X11119971Y-11983592D01*
X12323184Y-10780379D01*
X12323184Y-10780379D01*
G37*
G36*
X12888870Y-11346065D02*
X13349621Y-11806816D01*
X12146408Y-13010029D01*
X11685657Y-12549278D01*
X12888870Y-11346065D01*
X12888870Y-11346065D01*
G37*
G36*
X13454555Y-11911750D02*
X13915306Y-12372501D01*
X12712093Y-13575714D01*
X12251342Y-13114963D01*
X13454555Y-11911750D01*
X13454555Y-11911750D01*
G37*
G36*
X14020241Y-12477435D02*
X14480992Y-12938186D01*
X13277779Y-14141399D01*
X12817028Y-13680648D01*
X14020241Y-12477435D01*
X14020241Y-12477435D01*
G37*
G36*
X14585926Y-13043121D02*
X15046677Y-13503872D01*
X13843464Y-14707085D01*
X13382713Y-14246334D01*
X14585926Y-13043121D01*
X14585926Y-13043121D01*
G37*
G36*
X15433323Y-13503872D02*
X15894074Y-13043121D01*
X17097287Y-14246334D01*
X16636536Y-14707085D01*
X15433323Y-13503872D01*
X15433323Y-13503872D01*
G37*
G36*
X15999008Y-12938186D02*
X16459759Y-12477435D01*
X17662972Y-13680648D01*
X17202221Y-14141399D01*
X15999008Y-12938186D01*
X15999008Y-12938186D01*
G37*
G36*
X16564694Y-12372501D02*
X17025445Y-11911750D01*
X18228658Y-13114963D01*
X17767907Y-13575714D01*
X16564694Y-12372501D01*
X16564694Y-12372501D01*
G37*
G36*
X17130379Y-11806816D02*
X17591130Y-11346065D01*
X18794343Y-12549278D01*
X18333592Y-13010029D01*
X17130379Y-11806816D01*
X17130379Y-11806816D01*
G37*
G36*
X17696065Y-11241130D02*
X18156816Y-10780379D01*
X19360029Y-11983592D01*
X18899278Y-12444343D01*
X17696065Y-11241130D01*
X17696065Y-11241130D01*
G37*
G36*
X18261750Y-10675445D02*
X18722501Y-10214694D01*
X19925714Y-11417907D01*
X19464963Y-11878658D01*
X18261750Y-10675445D01*
X18261750Y-10675445D01*
G37*
G36*
X18827435Y-10109759D02*
X19288186Y-9649008D01*
X20491399Y-10852221D01*
X20030648Y-11312972D01*
X18827435Y-10109759D01*
X18827435Y-10109759D01*
G37*
G36*
X19393121Y-9544074D02*
X19853872Y-9083323D01*
X21057085Y-10286536D01*
X20596334Y-10747287D01*
X19393121Y-9544074D01*
X19393121Y-9544074D01*
G37*
G36*
X20103945Y-4726447D02*
X21236447Y-3593945D01*
X21732553Y-4090051D01*
X20600051Y-5222553D01*
X20103945Y-4726447D01*
X20103945Y-4726447D01*
G37*
G36*
X20775696Y-5398198D02*
X21908198Y-4265696D01*
X22404304Y-4761802D01*
X21271802Y-5894304D01*
X20775696Y-5398198D01*
X20775696Y-5398198D01*
G37*
G36*
X21447447Y-6069949D02*
X22579949Y-4937447D01*
X23076055Y-5433553D01*
X21943553Y-6566055D01*
X21447447Y-6069949D01*
X21447447Y-6069949D01*
G37*
D20*
X39370000Y-16510000D03*
X36830000Y-16510000D03*
X34290000Y-16510000D03*
X31750000Y-16510000D03*
X29210000Y-16510000D03*
X26670000Y-16510000D03*
X24130000Y-16510000D03*
X21590000Y-16510000D03*
X19050000Y-16510000D03*
X16510000Y-16510000D03*
X13970000Y-16510000D03*
X11430000Y-16510000D03*
X8890000Y-16510000D03*
X6350000Y-16510000D03*
X3810000Y-16510000D03*
X3810000Y-1270000D03*
X6350000Y-1270000D03*
X8890000Y-1270000D03*
X11430000Y-1270000D03*
X13970000Y-1270000D03*
X16510000Y-1270000D03*
X19050000Y-1270000D03*
X21590000Y-1270000D03*
X24130000Y-1270000D03*
X26670000Y-1270000D03*
X29210000Y-1270000D03*
X31750000Y-1270000D03*
X34290000Y-1270000D03*
X36830000Y-1270000D03*
D21*
X39370000Y-1270000D03*
D22*
X41910000Y-1270000D03*
X41910000Y-16510000D03*
X1270000Y-1270000D03*
X1270000Y-16510000D03*
M02*
