G04 #@! TF.FileFunction,Copper,L1,Top,Signal*
%FSLAX46Y46*%
G04 Gerber Fmt 4.6, Leading zero omitted, Abs format (unit mm)*
G04 Created by KiCad (PCBNEW 4.0.7) date 05/30/18 02:56:49*
%MOMM*%
%LPD*%
G01*
G04 APERTURE LIST*
%ADD10C,0.100000*%
%ADD11R,1.900000X1.500000*%
%ADD12C,1.450000*%
%ADD13R,1.350000X0.400000*%
%ADD14C,1.900000*%
%ADD15R,1.900000X1.200000*%
%ADD16R,0.600000X0.900000*%
%ADD17R,1.700000X1.700000*%
%ADD18O,1.700000X1.700000*%
%ADD19R,1.600000X2.180000*%
%ADD20C,1.727200*%
%ADD21R,1.727200X1.727200*%
%ADD22C,0.685800*%
%ADD23C,0.152400*%
%ADD24C,0.254000*%
%ADD25C,0.203200*%
G04 APERTURE END LIST*
D10*
D11*
X1428000Y-9890000D03*
D12*
X4128000Y-6390000D03*
D13*
X4128000Y-8240000D03*
X4128000Y-7590000D03*
X4128000Y-10190000D03*
X4128000Y-9540000D03*
X4128000Y-8890000D03*
D12*
X4128000Y-11390000D03*
D11*
X1428000Y-7890000D03*
D14*
X1428000Y-5390000D03*
X1428000Y-12390000D03*
D15*
X1428000Y-11790000D03*
X1428000Y-5990000D03*
D16*
X33540000Y-7620000D03*
X35040000Y-7620000D03*
X33540000Y-5080000D03*
X35040000Y-5080000D03*
X33540000Y-10160000D03*
X35040000Y-10160000D03*
X33540000Y-12700000D03*
X35040000Y-12700000D03*
D17*
X41910000Y-11430000D03*
D18*
X39370000Y-11430000D03*
X41910000Y-8890000D03*
X39370000Y-8890000D03*
X41910000Y-6350000D03*
X39370000Y-6350000D03*
D16*
X31230000Y-7620000D03*
X29730000Y-7620000D03*
X31230000Y-5080000D03*
X29730000Y-5080000D03*
X29730000Y-10160000D03*
X31230000Y-10160000D03*
X29730000Y-12700000D03*
X31230000Y-12700000D03*
D19*
X26670000Y-13480000D03*
X26670000Y-4300000D03*
D10*
G36*
X20596334Y-7104555D02*
X20985243Y-7493464D01*
X19853872Y-8624835D01*
X19464963Y-8235926D01*
X20596334Y-7104555D01*
X20596334Y-7104555D01*
G37*
G36*
X20030648Y-6538870D02*
X20419557Y-6927779D01*
X19288186Y-8059150D01*
X18899277Y-7670241D01*
X20030648Y-6538870D01*
X20030648Y-6538870D01*
G37*
G36*
X19464963Y-5973184D02*
X19853872Y-6362093D01*
X18722501Y-7493464D01*
X18333592Y-7104555D01*
X19464963Y-5973184D01*
X19464963Y-5973184D01*
G37*
G36*
X18899278Y-5407499D02*
X19288187Y-5796408D01*
X18156816Y-6927779D01*
X17767907Y-6538870D01*
X18899278Y-5407499D01*
X18899278Y-5407499D01*
G37*
G36*
X18333592Y-4841813D02*
X18722501Y-5230722D01*
X17591130Y-6362093D01*
X17202221Y-5973184D01*
X18333592Y-4841813D01*
X18333592Y-4841813D01*
G37*
G36*
X17767907Y-4276128D02*
X18156816Y-4665037D01*
X17025445Y-5796408D01*
X16636536Y-5407499D01*
X17767907Y-4276128D01*
X17767907Y-4276128D01*
G37*
G36*
X17202221Y-3710443D02*
X17591130Y-4099352D01*
X16459759Y-5230723D01*
X16070850Y-4841814D01*
X17202221Y-3710443D01*
X17202221Y-3710443D01*
G37*
G36*
X16636536Y-3144757D02*
X17025445Y-3533666D01*
X15894074Y-4665037D01*
X15505165Y-4276128D01*
X16636536Y-3144757D01*
X16636536Y-3144757D01*
G37*
G36*
X13454555Y-3533666D02*
X13843464Y-3144757D01*
X14974835Y-4276128D01*
X14585926Y-4665037D01*
X13454555Y-3533666D01*
X13454555Y-3533666D01*
G37*
G36*
X12888870Y-4099352D02*
X13277779Y-3710443D01*
X14409150Y-4841814D01*
X14020241Y-5230723D01*
X12888870Y-4099352D01*
X12888870Y-4099352D01*
G37*
G36*
X12323184Y-4665037D02*
X12712093Y-4276128D01*
X13843464Y-5407499D01*
X13454555Y-5796408D01*
X12323184Y-4665037D01*
X12323184Y-4665037D01*
G37*
G36*
X11757499Y-5230722D02*
X12146408Y-4841813D01*
X13277779Y-5973184D01*
X12888870Y-6362093D01*
X11757499Y-5230722D01*
X11757499Y-5230722D01*
G37*
G36*
X11191813Y-5796408D02*
X11580722Y-5407499D01*
X12712093Y-6538870D01*
X12323184Y-6927779D01*
X11191813Y-5796408D01*
X11191813Y-5796408D01*
G37*
G36*
X10626128Y-6362093D02*
X11015037Y-5973184D01*
X12146408Y-7104555D01*
X11757499Y-7493464D01*
X10626128Y-6362093D01*
X10626128Y-6362093D01*
G37*
G36*
X10060443Y-6927779D02*
X10449352Y-6538870D01*
X11580723Y-7670241D01*
X11191814Y-8059150D01*
X10060443Y-6927779D01*
X10060443Y-6927779D01*
G37*
G36*
X9494757Y-7493464D02*
X9883666Y-7104555D01*
X11015037Y-8235926D01*
X10626128Y-8624835D01*
X9494757Y-7493464D01*
X9494757Y-7493464D01*
G37*
G36*
X10626128Y-9155165D02*
X11015037Y-9544074D01*
X9883666Y-10675445D01*
X9494757Y-10286536D01*
X10626128Y-9155165D01*
X10626128Y-9155165D01*
G37*
G36*
X11191814Y-9720850D02*
X11580723Y-10109759D01*
X10449352Y-11241130D01*
X10060443Y-10852221D01*
X11191814Y-9720850D01*
X11191814Y-9720850D01*
G37*
G36*
X11757499Y-10286536D02*
X12146408Y-10675445D01*
X11015037Y-11806816D01*
X10626128Y-11417907D01*
X11757499Y-10286536D01*
X11757499Y-10286536D01*
G37*
G36*
X12323184Y-10852221D02*
X12712093Y-11241130D01*
X11580722Y-12372501D01*
X11191813Y-11983592D01*
X12323184Y-10852221D01*
X12323184Y-10852221D01*
G37*
G36*
X12888870Y-11417907D02*
X13277779Y-11806816D01*
X12146408Y-12938187D01*
X11757499Y-12549278D01*
X12888870Y-11417907D01*
X12888870Y-11417907D01*
G37*
G36*
X13454555Y-11983592D02*
X13843464Y-12372501D01*
X12712093Y-13503872D01*
X12323184Y-13114963D01*
X13454555Y-11983592D01*
X13454555Y-11983592D01*
G37*
G36*
X14020241Y-12549277D02*
X14409150Y-12938186D01*
X13277779Y-14069557D01*
X12888870Y-13680648D01*
X14020241Y-12549277D01*
X14020241Y-12549277D01*
G37*
G36*
X14585926Y-13114963D02*
X14974835Y-13503872D01*
X13843464Y-14635243D01*
X13454555Y-14246334D01*
X14585926Y-13114963D01*
X14585926Y-13114963D01*
G37*
G36*
X15505165Y-13503872D02*
X15894074Y-13114963D01*
X17025445Y-14246334D01*
X16636536Y-14635243D01*
X15505165Y-13503872D01*
X15505165Y-13503872D01*
G37*
G36*
X16070850Y-12938186D02*
X16459759Y-12549277D01*
X17591130Y-13680648D01*
X17202221Y-14069557D01*
X16070850Y-12938186D01*
X16070850Y-12938186D01*
G37*
G36*
X16636536Y-12372501D02*
X17025445Y-11983592D01*
X18156816Y-13114963D01*
X17767907Y-13503872D01*
X16636536Y-12372501D01*
X16636536Y-12372501D01*
G37*
G36*
X17202221Y-11806816D02*
X17591130Y-11417907D01*
X18722501Y-12549278D01*
X18333592Y-12938187D01*
X17202221Y-11806816D01*
X17202221Y-11806816D01*
G37*
G36*
X17767907Y-11241130D02*
X18156816Y-10852221D01*
X19288187Y-11983592D01*
X18899278Y-12372501D01*
X17767907Y-11241130D01*
X17767907Y-11241130D01*
G37*
G36*
X18333592Y-10675445D02*
X18722501Y-10286536D01*
X19853872Y-11417907D01*
X19464963Y-11806816D01*
X18333592Y-10675445D01*
X18333592Y-10675445D01*
G37*
G36*
X18899277Y-10109759D02*
X19288186Y-9720850D01*
X20419557Y-10852221D01*
X20030648Y-11241130D01*
X18899277Y-10109759D01*
X18899277Y-10109759D01*
G37*
G36*
X19464963Y-9544074D02*
X19853872Y-9155165D01*
X20985243Y-10286536D01*
X20596334Y-10675445D01*
X19464963Y-9544074D01*
X19464963Y-9544074D01*
G37*
G36*
X20175787Y-4726447D02*
X21236447Y-3665787D01*
X21660711Y-4090051D01*
X20600051Y-5150711D01*
X20175787Y-4726447D01*
X20175787Y-4726447D01*
G37*
G36*
X20847538Y-5398198D02*
X21908198Y-4337538D01*
X22332462Y-4761802D01*
X21271802Y-5822462D01*
X20847538Y-5398198D01*
X20847538Y-5398198D01*
G37*
G36*
X21519289Y-6069949D02*
X22579949Y-5009289D01*
X23004213Y-5433553D01*
X21943553Y-6494213D01*
X21519289Y-6069949D01*
X21519289Y-6069949D01*
G37*
D20*
X39370000Y-16510000D03*
X36830000Y-16510000D03*
X34290000Y-16510000D03*
X31750000Y-16510000D03*
X29210000Y-16510000D03*
X26670000Y-16510000D03*
X24130000Y-16510000D03*
X21590000Y-16510000D03*
X19050000Y-16510000D03*
X16510000Y-16510000D03*
X13970000Y-16510000D03*
X11430000Y-16510000D03*
X8890000Y-16510000D03*
X6350000Y-16510000D03*
X3810000Y-16510000D03*
X3810000Y-1270000D03*
X6350000Y-1270000D03*
X8890000Y-1270000D03*
X11430000Y-1270000D03*
X13970000Y-1270000D03*
X16510000Y-1270000D03*
X19050000Y-1270000D03*
X21590000Y-1270000D03*
X24130000Y-1270000D03*
X26670000Y-1270000D03*
X29210000Y-1270000D03*
X31750000Y-1270000D03*
X34290000Y-1270000D03*
X36830000Y-1270000D03*
D21*
X39370000Y-1270000D03*
D22*
X9600002Y-14900000D03*
X7400000Y-13700000D03*
X6000000Y-13100000D03*
X11554698Y-13500000D03*
X26800000Y-9800000D03*
X32100000Y-13300000D03*
X32300000Y-11300000D03*
X32300000Y-8300000D03*
X24800000Y-5700000D03*
X23300000Y-6800000D03*
X37100000Y-7300000D03*
X36170000Y-9130000D03*
X15880000Y-12040000D03*
X16600000Y-8100000D03*
X20100000Y-5800000D03*
X22500000Y-4300000D03*
X18500000Y-4271510D03*
X22418030Y-9139070D03*
X15880000Y-5740000D03*
X15298706Y-8377698D03*
X13399240Y-9676317D03*
X31100000Y-13950111D03*
X27965268Y-1815213D03*
X40200000Y-14000000D03*
X21055346Y-8267690D03*
X24071510Y-9744185D03*
X28400000Y-11200000D03*
X3000018Y-7600000D03*
X22593721Y-13793155D03*
X23637536Y-13035882D03*
X24948557Y-12489040D03*
X25519333Y-9355470D03*
X24100000Y-15000000D03*
X15752528Y-10876637D03*
X14540103Y-11498120D03*
X20200000Y-13000000D03*
X22300000Y-13000000D03*
X23700000Y-12200000D03*
X29300000Y-3700002D03*
X6000000Y-7000000D03*
X24403138Y-3041082D03*
X25374662Y-4154688D03*
X27965312Y-3276341D03*
X8100000Y-10700000D03*
X6100000Y-9600000D03*
X24273029Y-11472371D03*
X14893621Y-9111528D03*
X22605370Y-7589648D03*
X25630888Y-10322650D03*
X24754688Y-7299999D03*
X13700000Y-7000000D03*
X22304288Y-9969529D03*
X22199849Y-10801209D03*
X12652068Y-10466905D03*
X14802039Y-10701886D03*
D23*
X9115069Y-14900000D02*
X9600002Y-14900000D01*
X6350000Y-16510000D02*
X7960000Y-14900000D01*
X7960000Y-14900000D02*
X9115069Y-14900000D01*
X18664314Y-4900000D02*
X19200000Y-4900000D01*
X19200000Y-4900000D02*
X20100000Y-5800000D01*
X17962361Y-5601953D02*
X18664314Y-4900000D01*
X7400000Y-13700000D02*
X6800000Y-13100000D01*
X6800000Y-13100000D02*
X6000000Y-13100000D01*
X6000000Y-13100000D02*
X4290000Y-11390000D01*
X4290000Y-11390000D02*
X4128000Y-11390000D01*
X12517639Y-12178047D02*
X11554698Y-13140988D01*
X11554698Y-13140988D02*
X11554698Y-13500000D01*
X29730000Y-5080000D02*
X29730000Y-4930000D01*
X29730000Y-4930000D02*
X30258601Y-4401399D01*
X30258601Y-4401399D02*
X37421399Y-4401399D01*
X37421399Y-4401399D02*
X38520001Y-5500001D01*
X38520001Y-5500001D02*
X39370000Y-6350000D01*
X29730000Y-10160000D02*
X27160000Y-10160000D01*
X27160000Y-10160000D02*
X26800000Y-9800000D01*
X32100000Y-13300000D02*
X32021399Y-13378601D01*
X32021399Y-13378601D02*
X30258601Y-13378601D01*
X30258601Y-13378601D02*
X29730000Y-12850000D01*
X29730000Y-12850000D02*
X29730000Y-12700000D01*
X29730000Y-10160000D02*
X29730000Y-10310000D01*
X29730000Y-10310000D02*
X30720000Y-11300000D01*
X30720000Y-11300000D02*
X32300000Y-11300000D01*
X29730000Y-7620000D02*
X29730000Y-7770000D01*
X29730000Y-7770000D02*
X30260000Y-8300000D01*
X30260000Y-8300000D02*
X32300000Y-8300000D01*
X29730000Y-10160000D02*
X29730000Y-10010000D01*
X29730000Y-10010000D02*
X30258601Y-9481399D01*
X30258601Y-9481399D02*
X35818601Y-9481399D01*
X35818601Y-9481399D02*
X36170000Y-9130000D01*
X23300000Y-6800000D02*
X24400000Y-5700000D01*
X24400000Y-5700000D02*
X24800000Y-5700000D01*
X39370000Y-6350000D02*
X38050000Y-6350000D01*
X38050000Y-6350000D02*
X37100000Y-7300000D01*
X16600000Y-8100000D02*
X16600000Y-8584933D01*
X13154034Y-11541652D02*
X12517639Y-12178047D01*
X14824185Y-9871501D02*
X13154034Y-11541652D01*
X15313432Y-9871501D02*
X14824185Y-9871501D01*
X16600000Y-8584933D02*
X15313432Y-9871501D01*
X16600000Y-11320000D02*
X15880000Y-12040000D01*
X16600000Y-8100000D02*
X16600000Y-11320000D01*
X20100000Y-5800000D02*
X20027056Y-5800000D01*
X20027056Y-5800000D02*
X19093732Y-6733324D01*
X21590000Y-5080000D02*
X21720000Y-5080000D01*
X21720000Y-5080000D02*
X22500000Y-4300000D01*
D24*
X18161434Y-4271510D02*
X18500000Y-4271510D01*
X17396676Y-5036268D02*
X18161434Y-4271510D01*
X16336000Y-7100000D02*
X17595686Y-7100000D01*
X17595686Y-7100000D02*
X18528047Y-6167639D01*
X15880000Y-5740000D02*
X15880000Y-6644000D01*
X15880000Y-6644000D02*
X16336000Y-7100000D01*
X15880000Y-5740000D02*
X16692944Y-5740000D01*
X16692944Y-5740000D02*
X17396676Y-5036268D01*
X23219785Y-11228947D02*
X23219785Y-10371051D01*
X23219785Y-10371051D02*
X23044389Y-10195655D01*
X23044389Y-9765429D02*
X22760929Y-9481969D01*
X23044389Y-10195655D02*
X23044389Y-9765429D01*
X23015234Y-11433498D02*
X23219785Y-11228947D01*
X24972213Y-14849401D02*
X23780996Y-13658184D01*
X23015234Y-13334588D02*
X23015234Y-11433498D01*
X23338830Y-13658184D02*
X23015234Y-13334588D01*
X31750000Y-16510000D02*
X30089401Y-14849401D01*
X22760929Y-9481969D02*
X22418030Y-9139070D01*
X30089401Y-14849401D02*
X24972213Y-14849401D01*
X23780996Y-13658184D02*
X23338830Y-13658184D01*
X15298706Y-8377698D02*
X15298706Y-6321294D01*
X15298706Y-6321294D02*
X15880000Y-5740000D01*
X11625256Y-9676317D02*
X12914307Y-9676317D01*
X10820583Y-10480990D02*
X11625256Y-9676317D01*
X12914307Y-9676317D02*
X13399240Y-9676317D01*
X39370000Y-11430000D02*
X38100000Y-12700000D01*
X38100000Y-12700000D02*
X35040000Y-12700000D01*
D23*
X35153599Y-2133599D02*
X34290000Y-1270000D01*
X39656588Y-4096588D02*
X37116588Y-4096588D01*
X41910000Y-6350000D02*
X39656588Y-4096588D01*
X37116588Y-4096588D02*
X35153599Y-2133599D01*
X26670000Y-4300000D02*
X26670000Y-3030000D01*
X26670000Y-3030000D02*
X27884787Y-1815213D01*
X27884787Y-1815213D02*
X27965268Y-1815213D01*
X31584933Y-13950111D02*
X31100000Y-13950111D01*
X31730111Y-13950111D02*
X31584933Y-13950111D01*
X34290000Y-16510000D02*
X31730111Y-13950111D01*
X34290000Y-16510000D02*
X36800000Y-14000000D01*
X36800000Y-14000000D02*
X40200000Y-14000000D01*
X20469591Y-8853445D02*
X20712447Y-8610589D01*
X17891652Y-10975966D02*
X17891652Y-10794080D01*
X18528047Y-11612361D02*
X17891652Y-10975966D01*
X20712447Y-8610589D02*
X21055346Y-8267690D01*
X19832287Y-8853445D02*
X20469591Y-8853445D01*
X17891652Y-10794080D02*
X19832287Y-8853445D01*
X10983196Y-12581118D02*
X11315558Y-12248756D01*
X11315558Y-12248756D02*
X11951953Y-11612361D01*
X10983196Y-14416804D02*
X10983196Y-12581118D01*
X8890000Y-16510000D02*
X10983196Y-14416804D01*
D24*
X28400000Y-11200000D02*
X25527325Y-11200000D01*
X24414409Y-10087084D02*
X24071510Y-9744185D01*
X25527325Y-11200000D02*
X24414409Y-10087084D01*
X4128000Y-7590000D02*
X3010018Y-7590000D01*
X3010018Y-7590000D02*
X3000018Y-7600000D01*
D23*
X33540000Y-7620000D02*
X31230000Y-7620000D01*
X25862232Y-9012571D02*
X25519333Y-9355470D01*
X26003301Y-8871502D02*
X25862232Y-9012571D01*
X35040000Y-7770000D02*
X33938498Y-8871502D01*
X33938498Y-8871502D02*
X26003301Y-8871502D01*
X35040000Y-7620000D02*
X35040000Y-7770000D01*
X24948557Y-12489040D02*
X24401715Y-13035882D01*
X22893155Y-13793155D02*
X22593721Y-13793155D01*
X24100000Y-15000000D02*
X22893155Y-13793155D01*
X24401715Y-13035882D02*
X24122469Y-13035882D01*
X24122469Y-13035882D02*
X23637536Y-13035882D01*
X33540000Y-5080000D02*
X31230000Y-5080000D01*
X35040000Y-5080000D02*
X34220000Y-5900000D01*
X34220000Y-5900000D02*
X28131066Y-5900000D01*
X28131066Y-5900000D02*
X24931066Y-9100000D01*
X24931066Y-9100000D02*
X23800000Y-9100000D01*
X23800000Y-9100000D02*
X23400000Y-9500000D01*
X23575396Y-12075396D02*
X23700000Y-12200000D01*
X23400000Y-9500000D02*
X23400000Y-9900000D01*
X23400000Y-9900000D02*
X23575396Y-10075396D01*
X23575396Y-10075396D02*
X23575396Y-12075396D01*
X15409629Y-11219536D02*
X15752528Y-10876637D01*
X15131045Y-11498120D02*
X15409629Y-11219536D01*
X14540103Y-11498120D02*
X15131045Y-11498120D01*
X22300000Y-13000000D02*
X20200000Y-13000000D01*
X33540000Y-10160000D02*
X33087600Y-10160000D01*
X33087600Y-10160000D02*
X31230000Y-10160000D01*
X10254897Y-9915305D02*
X10254897Y-9920103D01*
X10254897Y-9920103D02*
X8859738Y-11315262D01*
X8859738Y-11315262D02*
X8859738Y-13140262D01*
X8859738Y-13140262D02*
X6582201Y-15417799D01*
X6582201Y-15417799D02*
X5825743Y-15417799D01*
X5825743Y-15417799D02*
X5597141Y-15646401D01*
X5597141Y-15646401D02*
X4673599Y-15646401D01*
X4673599Y-15646401D02*
X3810000Y-16510000D01*
X29300000Y-3700002D02*
X28388973Y-3700002D01*
X28388973Y-3700002D02*
X27965312Y-3276341D01*
X6000000Y-7000000D02*
X7339592Y-7000000D01*
X7339592Y-7000000D02*
X10254897Y-9915305D01*
X24403138Y-3183164D02*
X24403138Y-3041082D01*
X25374662Y-4154688D02*
X24403138Y-3183164D01*
X35492400Y-10160000D02*
X35040000Y-10160000D01*
X35605812Y-10046588D02*
X35492400Y-10160000D01*
X41910000Y-8890000D02*
X40753412Y-10046588D01*
X40753412Y-10046588D02*
X35605812Y-10046588D01*
X33540000Y-12700000D02*
X33087600Y-12700000D01*
X33087600Y-12700000D02*
X31230000Y-12700000D01*
X4128000Y-8240000D02*
X5640000Y-8240000D01*
X5640000Y-8240000D02*
X8100000Y-10700000D01*
X4128000Y-8890000D02*
X5390000Y-8890000D01*
X5390000Y-8890000D02*
X6100000Y-9600000D01*
X25251426Y-11965835D02*
X24757962Y-11472371D01*
X24757962Y-11472371D02*
X24273029Y-11472371D01*
X41910000Y-11430000D02*
X40907600Y-11430000D01*
X37237835Y-11965835D02*
X25251426Y-11965835D01*
X40907600Y-11430000D02*
X39828999Y-10351399D01*
X38852271Y-10351399D02*
X37237835Y-11965835D01*
X39828999Y-10351399D02*
X38852271Y-10351399D01*
X10254897Y-7864695D02*
X11490174Y-9099972D01*
X14408688Y-9111528D02*
X14893621Y-9111528D01*
X11490174Y-9099972D02*
X14397132Y-9099972D01*
X14397132Y-9099972D02*
X14408688Y-9111528D01*
X10254897Y-7864695D02*
X3810000Y-1419798D01*
X3810000Y-1419798D02*
X3810000Y-1270000D01*
X36414175Y-8040001D02*
X35277863Y-9176313D01*
X35277863Y-9176313D02*
X26577863Y-9176313D01*
X38520001Y-8040001D02*
X36414175Y-8040001D01*
X39370000Y-8890000D02*
X38520001Y-8040001D01*
X25973787Y-9979751D02*
X25630888Y-10322650D01*
X25973787Y-9780389D02*
X25973787Y-9979751D01*
X26577863Y-9176313D02*
X25973787Y-9780389D01*
X24269755Y-7299999D02*
X23980106Y-7589648D01*
X24754688Y-7299999D02*
X24269755Y-7299999D01*
X23980106Y-7589648D02*
X22605370Y-7589648D01*
X13700000Y-7000000D02*
X12976313Y-7723687D01*
X11245260Y-7723687D02*
X10820583Y-7299010D01*
X12976313Y-7723687D02*
X11245260Y-7723687D01*
X10820583Y-7299010D02*
X6350000Y-2828427D01*
X6350000Y-2828427D02*
X6350000Y-1270000D01*
X19093732Y-11046676D02*
X19730127Y-11683071D01*
X19730127Y-11683071D02*
X22262752Y-11683071D01*
X22262752Y-11683071D02*
X22800000Y-11145823D01*
X22647187Y-10312428D02*
X22304288Y-9969529D01*
X22800000Y-11145823D02*
X22800000Y-10465241D01*
X22800000Y-10465241D02*
X22647187Y-10312428D01*
X19659417Y-10480990D02*
X20295812Y-11117385D01*
X20295812Y-11117385D02*
X21883673Y-11117385D01*
X21883673Y-11117385D02*
X22199849Y-10801209D01*
X20225103Y-7864695D02*
X21061299Y-7028499D01*
X21061299Y-7028499D02*
X22243629Y-7028499D01*
X22243629Y-7028499D02*
X23600000Y-5672128D01*
X23600000Y-5672128D02*
X23600000Y-2998398D01*
X23600000Y-2998398D02*
X24128818Y-2469580D01*
X24128818Y-2469580D02*
X25470420Y-2469580D01*
X25806401Y-2133599D02*
X26670000Y-1270000D01*
X25470420Y-2469580D02*
X25806401Y-2133599D01*
X19659417Y-7299010D02*
X20234739Y-6723688D01*
X20234739Y-6723688D02*
X22037382Y-6723688D01*
X22037382Y-6723688D02*
X23232823Y-5528247D01*
X23232823Y-5338859D02*
X23223687Y-5329723D01*
X23232823Y-5528247D02*
X23232823Y-5338859D01*
X23266401Y-2133599D02*
X24130000Y-1270000D01*
X23223687Y-5329723D02*
X23223687Y-2176313D01*
X23223687Y-2176313D02*
X23266401Y-2133599D01*
X21660711Y-6352791D02*
X22261751Y-5751751D01*
X21478827Y-6352791D02*
X21660711Y-6352791D01*
X18754535Y-3628499D02*
X21478827Y-6352791D01*
X17673074Y-3628499D02*
X18754535Y-3628499D01*
X16830990Y-4470583D02*
X17673074Y-3628499D01*
X16265305Y-3904897D02*
X16901700Y-3268502D01*
X16901700Y-3268502D02*
X19778502Y-3268502D01*
X19778502Y-3268502D02*
X20635407Y-4125407D01*
X20635407Y-4125407D02*
X20918249Y-4408249D01*
X15553091Y-3904897D02*
X16541841Y-2916147D01*
X14214695Y-3904897D02*
X15553091Y-3904897D01*
X16541841Y-2916147D02*
X19943853Y-2916147D01*
X19943853Y-2916147D02*
X20726401Y-2133599D01*
X20726401Y-2133599D02*
X21590000Y-1270000D01*
X17708664Y-2611336D02*
X18186401Y-2133599D01*
X16415585Y-2611336D02*
X17708664Y-2611336D01*
X13748769Y-2916147D02*
X16110775Y-2916147D01*
X13012615Y-3652301D02*
X13748769Y-2916147D01*
X18186401Y-2133599D02*
X19050000Y-1270000D01*
X16110775Y-2916147D02*
X16415585Y-2611336D01*
X13012615Y-3834188D02*
X13012615Y-3652301D01*
X13649010Y-4470583D02*
X13012615Y-3834188D01*
X15646401Y-2133599D02*
X16510000Y-1270000D01*
X13622513Y-2611336D02*
X15168664Y-2611336D01*
X12446929Y-3786920D02*
X13622513Y-2611336D01*
X12446929Y-4399873D02*
X12446929Y-3786920D01*
X15168664Y-2611336D02*
X15646401Y-2133599D01*
X13083324Y-5036268D02*
X12446929Y-4399873D01*
X12517639Y-5601953D02*
X11881244Y-4965558D01*
X11881244Y-4965558D02*
X11881244Y-3358756D01*
X11881244Y-3358756D02*
X13106401Y-2133599D01*
X13106401Y-2133599D02*
X13970000Y-1270000D01*
X11951953Y-6167639D02*
X11315558Y-5531244D01*
X11315558Y-5531244D02*
X11315558Y-1384442D01*
X11315558Y-1384442D02*
X11430000Y-1270000D01*
X11386268Y-6733324D02*
X8890000Y-4237056D01*
X8890000Y-4237056D02*
X8890000Y-1270000D01*
X12595444Y-10410281D02*
X12652068Y-10466905D01*
X11386268Y-11046676D02*
X12022663Y-10410281D01*
X12022663Y-10410281D02*
X12595444Y-10410281D01*
X13083324Y-12743732D02*
X13719719Y-12107337D01*
X13719719Y-12107337D02*
X13719719Y-11407033D01*
X14424866Y-10701886D02*
X14802039Y-10701886D01*
X13719719Y-11407033D02*
X14424866Y-10701886D01*
X13649010Y-13309417D02*
X11430000Y-15528427D01*
X11430000Y-15528427D02*
X11430000Y-16510000D01*
X14214695Y-13875103D02*
X14214695Y-16265305D01*
X14214695Y-16265305D02*
X13970000Y-16510000D01*
X16265305Y-13875103D02*
X16265305Y-16265305D01*
X16265305Y-16265305D02*
X16510000Y-16510000D01*
X16830990Y-13309417D02*
X19050000Y-15528427D01*
X19050000Y-15528427D02*
X19050000Y-16510000D01*
X17396676Y-12743732D02*
X21162944Y-16510000D01*
X21162944Y-16510000D02*
X21590000Y-16510000D01*
X20412813Y-14628499D02*
X22248499Y-14628499D01*
X17962361Y-12178047D02*
X20412813Y-14628499D01*
X22248499Y-14628499D02*
X23266401Y-15646401D01*
X23266401Y-15646401D02*
X24130000Y-16510000D01*
X29574321Y-4371501D02*
X30073599Y-3872223D01*
X30073599Y-2133599D02*
X29210000Y-1270000D01*
X30073599Y-3872223D02*
X30073599Y-2133599D01*
X21580709Y-8559699D02*
X25040301Y-8559699D01*
X20225103Y-9915305D02*
X21580709Y-8559699D01*
X29228499Y-4371501D02*
X29574321Y-4371501D01*
X25040301Y-8559699D02*
X29228499Y-4371501D01*
D25*
G36*
X1453400Y-6856700D02*
X1461700Y-6865000D01*
X1453400Y-6873300D01*
X1453400Y-7864600D01*
X1473400Y-7864600D01*
X1473400Y-7915400D01*
X1453400Y-7915400D01*
X1453400Y-9864600D01*
X2644700Y-9864600D01*
X2733600Y-9775700D01*
X2733600Y-9104976D01*
X2719934Y-9036275D01*
X2693128Y-8971560D01*
X2654212Y-8913318D01*
X2630894Y-8890000D01*
X2654212Y-8866682D01*
X2693128Y-8808440D01*
X2719934Y-8743725D01*
X2733600Y-8675024D01*
X2733600Y-8245697D01*
X2796273Y-8271657D01*
X2931222Y-8298500D01*
X3068814Y-8298500D01*
X3095680Y-8293156D01*
X3095680Y-8440000D01*
X3102546Y-8509710D01*
X3119318Y-8565000D01*
X3102546Y-8620290D01*
X3095680Y-8690000D01*
X3095680Y-9090000D01*
X3102546Y-9159710D01*
X3119318Y-9215000D01*
X3102546Y-9270290D01*
X3095680Y-9340000D01*
X3095680Y-9740000D01*
X3102546Y-9809710D01*
X3119555Y-9865781D01*
X3111066Y-9886275D01*
X3097400Y-9954976D01*
X3097400Y-10075700D01*
X3186300Y-10164600D01*
X4102600Y-10164600D01*
X4102600Y-10144600D01*
X4153400Y-10144600D01*
X4153400Y-10164600D01*
X5069700Y-10164600D01*
X5158600Y-10075700D01*
X5158600Y-9954976D01*
X5144934Y-9886275D01*
X5136445Y-9865781D01*
X5153454Y-9809710D01*
X5160320Y-9740000D01*
X5160320Y-9340000D01*
X5158527Y-9321800D01*
X5211144Y-9321800D01*
X5404660Y-9515317D01*
X5401500Y-9531204D01*
X5401500Y-9668796D01*
X5428343Y-9803745D01*
X5480997Y-9930864D01*
X5557439Y-10045268D01*
X5654732Y-10142561D01*
X5769136Y-10219003D01*
X5896255Y-10271657D01*
X6031204Y-10298500D01*
X6168796Y-10298500D01*
X6303745Y-10271657D01*
X6430864Y-10219003D01*
X6545268Y-10142561D01*
X6642561Y-10045268D01*
X6719003Y-9930864D01*
X6719356Y-9930013D01*
X7404660Y-10615318D01*
X7401500Y-10631204D01*
X7401500Y-10768796D01*
X7428343Y-10903745D01*
X7480997Y-11030864D01*
X7557439Y-11145268D01*
X7654732Y-11242561D01*
X7769136Y-11319003D01*
X7896255Y-11371657D01*
X8031204Y-11398500D01*
X8168796Y-11398500D01*
X8303745Y-11371657D01*
X8426400Y-11320852D01*
X8427938Y-11336472D01*
X8427939Y-12961404D01*
X6403345Y-14985999D01*
X5846952Y-14985999D01*
X5825742Y-14983910D01*
X5771382Y-14989264D01*
X5741095Y-14992247D01*
X5659701Y-15016938D01*
X5584687Y-15057033D01*
X5518937Y-15110993D01*
X5505412Y-15127473D01*
X5418284Y-15214601D01*
X4694801Y-15214601D01*
X4673598Y-15212513D01*
X4652395Y-15214601D01*
X4652389Y-15214601D01*
X4597545Y-15220003D01*
X4588950Y-15220849D01*
X4564259Y-15228339D01*
X4507557Y-15245540D01*
X4432543Y-15285635D01*
X4366793Y-15339595D01*
X4353273Y-15356069D01*
X4311335Y-15398007D01*
X4165627Y-15337653D01*
X3930081Y-15290800D01*
X3689919Y-15290800D01*
X3454373Y-15337653D01*
X3232492Y-15429559D01*
X3032805Y-15562986D01*
X2862986Y-15732805D01*
X2729559Y-15932492D01*
X2637653Y-16154373D01*
X2590800Y-16389919D01*
X2590800Y-16630081D01*
X2637653Y-16865627D01*
X2729559Y-17087508D01*
X2862986Y-17287195D01*
X2950191Y-17374400D01*
X2216642Y-17374400D01*
X2264707Y-17326335D01*
X2404853Y-17116591D01*
X2501387Y-16883537D01*
X2550600Y-16636128D01*
X2550600Y-16383872D01*
X2501387Y-16136463D01*
X2404853Y-15903409D01*
X2264707Y-15693665D01*
X2086335Y-15515293D01*
X1876591Y-15375147D01*
X1643537Y-15278613D01*
X1396128Y-15229400D01*
X1143872Y-15229400D01*
X896463Y-15278613D01*
X663409Y-15375147D01*
X453665Y-15515293D01*
X405600Y-15563358D01*
X405600Y-13167131D01*
X545423Y-13236656D01*
X1036479Y-12745600D01*
X1108321Y-12745600D01*
X581344Y-13272577D01*
X677568Y-13466094D01*
X901923Y-13591819D01*
X1146495Y-13671360D01*
X1401885Y-13701658D01*
X1658279Y-13681550D01*
X1905822Y-13611808D01*
X2135004Y-13495112D01*
X2178432Y-13466094D01*
X2274656Y-13272577D01*
X1747679Y-12745600D01*
X1819521Y-12745600D01*
X2310577Y-13236656D01*
X2504094Y-13140432D01*
X2629819Y-12916077D01*
X2709360Y-12671505D01*
X2739658Y-12416115D01*
X2733600Y-12338870D01*
X2733600Y-12112667D01*
X3441254Y-12112667D01*
X3510489Y-12283144D01*
X3696598Y-12386452D01*
X3899286Y-12451468D01*
X4110764Y-12475692D01*
X4322903Y-12458194D01*
X4527552Y-12399645D01*
X4716847Y-12302296D01*
X4745511Y-12283144D01*
X4814746Y-12112667D01*
X4128000Y-11425921D01*
X3441254Y-12112667D01*
X2733600Y-12112667D01*
X2733600Y-11904300D01*
X2644700Y-11815400D01*
X2600530Y-11815400D01*
X2574664Y-11764600D01*
X2644700Y-11764600D01*
X2733600Y-11675700D01*
X2733600Y-11372764D01*
X3042308Y-11372764D01*
X3059806Y-11584903D01*
X3118355Y-11789552D01*
X3215704Y-11978847D01*
X3234856Y-12007511D01*
X3405333Y-12076746D01*
X4092079Y-11390000D01*
X4077937Y-11375858D01*
X4113858Y-11339937D01*
X4128000Y-11354079D01*
X4142143Y-11339937D01*
X4178064Y-11375858D01*
X4163921Y-11390000D01*
X4850667Y-12076746D01*
X5021144Y-12007511D01*
X5124452Y-11821402D01*
X5189468Y-11618714D01*
X5213692Y-11407236D01*
X5196194Y-11195097D01*
X5137645Y-10990448D01*
X5040296Y-10801153D01*
X5021144Y-10772489D01*
X4913934Y-10728948D01*
X4971439Y-10705129D01*
X5029681Y-10666213D01*
X5079212Y-10616682D01*
X5118128Y-10558440D01*
X5144934Y-10493725D01*
X5158600Y-10425024D01*
X5158600Y-10304300D01*
X5069700Y-10215400D01*
X4153400Y-10215400D01*
X4153400Y-10235400D01*
X4102600Y-10235400D01*
X4102600Y-10215400D01*
X3186300Y-10215400D01*
X3097400Y-10304300D01*
X3097400Y-10425024D01*
X3111066Y-10493725D01*
X3137872Y-10558440D01*
X3176788Y-10616682D01*
X3226319Y-10666213D01*
X3284561Y-10705129D01*
X3342066Y-10728948D01*
X3234856Y-10772489D01*
X3131548Y-10958598D01*
X3066532Y-11161286D01*
X3042308Y-11372764D01*
X2733600Y-11372764D01*
X2733600Y-11154976D01*
X2719934Y-11086275D01*
X2693128Y-11021560D01*
X2654212Y-10963318D01*
X2605894Y-10915000D01*
X2654212Y-10866682D01*
X2693128Y-10808440D01*
X2719934Y-10743725D01*
X2733600Y-10675024D01*
X2733600Y-10004300D01*
X2644700Y-9915400D01*
X1453400Y-9915400D01*
X1453400Y-10906700D01*
X1461700Y-10915000D01*
X1453400Y-10923300D01*
X1453400Y-11078398D01*
X1402600Y-11082382D01*
X1402600Y-10923300D01*
X1394300Y-10915000D01*
X1402600Y-10906700D01*
X1402600Y-9915400D01*
X1382600Y-9915400D01*
X1382600Y-9864600D01*
X1402600Y-9864600D01*
X1402600Y-7915400D01*
X1382600Y-7915400D01*
X1382600Y-7864600D01*
X1402600Y-7864600D01*
X1402600Y-6873300D01*
X1394300Y-6865000D01*
X1402600Y-6856700D01*
X1402600Y-6701602D01*
X1453400Y-6697618D01*
X1453400Y-6856700D01*
X1453400Y-6856700D01*
G37*
X1453400Y-6856700D02*
X1461700Y-6865000D01*
X1453400Y-6873300D01*
X1453400Y-7864600D01*
X1473400Y-7864600D01*
X1473400Y-7915400D01*
X1453400Y-7915400D01*
X1453400Y-9864600D01*
X2644700Y-9864600D01*
X2733600Y-9775700D01*
X2733600Y-9104976D01*
X2719934Y-9036275D01*
X2693128Y-8971560D01*
X2654212Y-8913318D01*
X2630894Y-8890000D01*
X2654212Y-8866682D01*
X2693128Y-8808440D01*
X2719934Y-8743725D01*
X2733600Y-8675024D01*
X2733600Y-8245697D01*
X2796273Y-8271657D01*
X2931222Y-8298500D01*
X3068814Y-8298500D01*
X3095680Y-8293156D01*
X3095680Y-8440000D01*
X3102546Y-8509710D01*
X3119318Y-8565000D01*
X3102546Y-8620290D01*
X3095680Y-8690000D01*
X3095680Y-9090000D01*
X3102546Y-9159710D01*
X3119318Y-9215000D01*
X3102546Y-9270290D01*
X3095680Y-9340000D01*
X3095680Y-9740000D01*
X3102546Y-9809710D01*
X3119555Y-9865781D01*
X3111066Y-9886275D01*
X3097400Y-9954976D01*
X3097400Y-10075700D01*
X3186300Y-10164600D01*
X4102600Y-10164600D01*
X4102600Y-10144600D01*
X4153400Y-10144600D01*
X4153400Y-10164600D01*
X5069700Y-10164600D01*
X5158600Y-10075700D01*
X5158600Y-9954976D01*
X5144934Y-9886275D01*
X5136445Y-9865781D01*
X5153454Y-9809710D01*
X5160320Y-9740000D01*
X5160320Y-9340000D01*
X5158527Y-9321800D01*
X5211144Y-9321800D01*
X5404660Y-9515317D01*
X5401500Y-9531204D01*
X5401500Y-9668796D01*
X5428343Y-9803745D01*
X5480997Y-9930864D01*
X5557439Y-10045268D01*
X5654732Y-10142561D01*
X5769136Y-10219003D01*
X5896255Y-10271657D01*
X6031204Y-10298500D01*
X6168796Y-10298500D01*
X6303745Y-10271657D01*
X6430864Y-10219003D01*
X6545268Y-10142561D01*
X6642561Y-10045268D01*
X6719003Y-9930864D01*
X6719356Y-9930013D01*
X7404660Y-10615318D01*
X7401500Y-10631204D01*
X7401500Y-10768796D01*
X7428343Y-10903745D01*
X7480997Y-11030864D01*
X7557439Y-11145268D01*
X7654732Y-11242561D01*
X7769136Y-11319003D01*
X7896255Y-11371657D01*
X8031204Y-11398500D01*
X8168796Y-11398500D01*
X8303745Y-11371657D01*
X8426400Y-11320852D01*
X8427938Y-11336472D01*
X8427939Y-12961404D01*
X6403345Y-14985999D01*
X5846952Y-14985999D01*
X5825742Y-14983910D01*
X5771382Y-14989264D01*
X5741095Y-14992247D01*
X5659701Y-15016938D01*
X5584687Y-15057033D01*
X5518937Y-15110993D01*
X5505412Y-15127473D01*
X5418284Y-15214601D01*
X4694801Y-15214601D01*
X4673598Y-15212513D01*
X4652395Y-15214601D01*
X4652389Y-15214601D01*
X4597545Y-15220003D01*
X4588950Y-15220849D01*
X4564259Y-15228339D01*
X4507557Y-15245540D01*
X4432543Y-15285635D01*
X4366793Y-15339595D01*
X4353273Y-15356069D01*
X4311335Y-15398007D01*
X4165627Y-15337653D01*
X3930081Y-15290800D01*
X3689919Y-15290800D01*
X3454373Y-15337653D01*
X3232492Y-15429559D01*
X3032805Y-15562986D01*
X2862986Y-15732805D01*
X2729559Y-15932492D01*
X2637653Y-16154373D01*
X2590800Y-16389919D01*
X2590800Y-16630081D01*
X2637653Y-16865627D01*
X2729559Y-17087508D01*
X2862986Y-17287195D01*
X2950191Y-17374400D01*
X2216642Y-17374400D01*
X2264707Y-17326335D01*
X2404853Y-17116591D01*
X2501387Y-16883537D01*
X2550600Y-16636128D01*
X2550600Y-16383872D01*
X2501387Y-16136463D01*
X2404853Y-15903409D01*
X2264707Y-15693665D01*
X2086335Y-15515293D01*
X1876591Y-15375147D01*
X1643537Y-15278613D01*
X1396128Y-15229400D01*
X1143872Y-15229400D01*
X896463Y-15278613D01*
X663409Y-15375147D01*
X453665Y-15515293D01*
X405600Y-15563358D01*
X405600Y-13167131D01*
X545423Y-13236656D01*
X1036479Y-12745600D01*
X1108321Y-12745600D01*
X581344Y-13272577D01*
X677568Y-13466094D01*
X901923Y-13591819D01*
X1146495Y-13671360D01*
X1401885Y-13701658D01*
X1658279Y-13681550D01*
X1905822Y-13611808D01*
X2135004Y-13495112D01*
X2178432Y-13466094D01*
X2274656Y-13272577D01*
X1747679Y-12745600D01*
X1819521Y-12745600D01*
X2310577Y-13236656D01*
X2504094Y-13140432D01*
X2629819Y-12916077D01*
X2709360Y-12671505D01*
X2739658Y-12416115D01*
X2733600Y-12338870D01*
X2733600Y-12112667D01*
X3441254Y-12112667D01*
X3510489Y-12283144D01*
X3696598Y-12386452D01*
X3899286Y-12451468D01*
X4110764Y-12475692D01*
X4322903Y-12458194D01*
X4527552Y-12399645D01*
X4716847Y-12302296D01*
X4745511Y-12283144D01*
X4814746Y-12112667D01*
X4128000Y-11425921D01*
X3441254Y-12112667D01*
X2733600Y-12112667D01*
X2733600Y-11904300D01*
X2644700Y-11815400D01*
X2600530Y-11815400D01*
X2574664Y-11764600D01*
X2644700Y-11764600D01*
X2733600Y-11675700D01*
X2733600Y-11372764D01*
X3042308Y-11372764D01*
X3059806Y-11584903D01*
X3118355Y-11789552D01*
X3215704Y-11978847D01*
X3234856Y-12007511D01*
X3405333Y-12076746D01*
X4092079Y-11390000D01*
X4077937Y-11375858D01*
X4113858Y-11339937D01*
X4128000Y-11354079D01*
X4142143Y-11339937D01*
X4178064Y-11375858D01*
X4163921Y-11390000D01*
X4850667Y-12076746D01*
X5021144Y-12007511D01*
X5124452Y-11821402D01*
X5189468Y-11618714D01*
X5213692Y-11407236D01*
X5196194Y-11195097D01*
X5137645Y-10990448D01*
X5040296Y-10801153D01*
X5021144Y-10772489D01*
X4913934Y-10728948D01*
X4971439Y-10705129D01*
X5029681Y-10666213D01*
X5079212Y-10616682D01*
X5118128Y-10558440D01*
X5144934Y-10493725D01*
X5158600Y-10425024D01*
X5158600Y-10304300D01*
X5069700Y-10215400D01*
X4153400Y-10215400D01*
X4153400Y-10235400D01*
X4102600Y-10235400D01*
X4102600Y-10215400D01*
X3186300Y-10215400D01*
X3097400Y-10304300D01*
X3097400Y-10425024D01*
X3111066Y-10493725D01*
X3137872Y-10558440D01*
X3176788Y-10616682D01*
X3226319Y-10666213D01*
X3284561Y-10705129D01*
X3342066Y-10728948D01*
X3234856Y-10772489D01*
X3131548Y-10958598D01*
X3066532Y-11161286D01*
X3042308Y-11372764D01*
X2733600Y-11372764D01*
X2733600Y-11154976D01*
X2719934Y-11086275D01*
X2693128Y-11021560D01*
X2654212Y-10963318D01*
X2605894Y-10915000D01*
X2654212Y-10866682D01*
X2693128Y-10808440D01*
X2719934Y-10743725D01*
X2733600Y-10675024D01*
X2733600Y-10004300D01*
X2644700Y-9915400D01*
X1453400Y-9915400D01*
X1453400Y-10906700D01*
X1461700Y-10915000D01*
X1453400Y-10923300D01*
X1453400Y-11078398D01*
X1402600Y-11082382D01*
X1402600Y-10923300D01*
X1394300Y-10915000D01*
X1402600Y-10906700D01*
X1402600Y-9915400D01*
X1382600Y-9915400D01*
X1382600Y-9864600D01*
X1402600Y-9864600D01*
X1402600Y-7915400D01*
X1382600Y-7915400D01*
X1382600Y-7864600D01*
X1402600Y-7864600D01*
X1402600Y-6873300D01*
X1394300Y-6865000D01*
X1402600Y-6856700D01*
X1402600Y-6701602D01*
X1453400Y-6697618D01*
X1453400Y-6856700D01*
G36*
X29074400Y-12585700D02*
X29163300Y-12674600D01*
X29704600Y-12674600D01*
X29704600Y-12654600D01*
X29755400Y-12654600D01*
X29755400Y-12674600D01*
X30296700Y-12674600D01*
X30385600Y-12585700D01*
X30385600Y-12397635D01*
X30572680Y-12397635D01*
X30572680Y-13150000D01*
X30579546Y-13219710D01*
X30599879Y-13286740D01*
X30632899Y-13348516D01*
X30671922Y-13396064D01*
X30654732Y-13407550D01*
X30557439Y-13504843D01*
X30480997Y-13619247D01*
X30428343Y-13746366D01*
X30401500Y-13881315D01*
X30401500Y-14018907D01*
X30428343Y-14153856D01*
X30480997Y-14280975D01*
X30557439Y-14395379D01*
X30654732Y-14492672D01*
X30769136Y-14569114D01*
X30896255Y-14621768D01*
X31031204Y-14648611D01*
X31168796Y-14648611D01*
X31303745Y-14621768D01*
X31430864Y-14569114D01*
X31545268Y-14492672D01*
X31603642Y-14434298D01*
X33178007Y-16008664D01*
X33117653Y-16154373D01*
X33070800Y-16389919D01*
X33070800Y-16630081D01*
X33117653Y-16865627D01*
X33209559Y-17087508D01*
X33342986Y-17287195D01*
X33430191Y-17374400D01*
X32609809Y-17374400D01*
X32697014Y-17287195D01*
X32830441Y-17087508D01*
X32922347Y-16865627D01*
X32969200Y-16630081D01*
X32969200Y-16389919D01*
X32922347Y-16154373D01*
X32830441Y-15932492D01*
X32697014Y-15732805D01*
X32527195Y-15562986D01*
X32327508Y-15429559D01*
X32105627Y-15337653D01*
X31870081Y-15290800D01*
X31629919Y-15290800D01*
X31394373Y-15337653D01*
X31299465Y-15376965D01*
X30447418Y-14524919D01*
X30432302Y-14506500D01*
X30358816Y-14446192D01*
X30274978Y-14401379D01*
X30184007Y-14373784D01*
X30113108Y-14366801D01*
X30113106Y-14366801D01*
X30089401Y-14364466D01*
X30065696Y-14366801D01*
X27825600Y-14366801D01*
X27825600Y-13594300D01*
X27736700Y-13505400D01*
X26695400Y-13505400D01*
X26695400Y-13525400D01*
X26644600Y-13525400D01*
X26644600Y-13505400D01*
X25603300Y-13505400D01*
X25514400Y-13594300D01*
X25514400Y-14366801D01*
X25172112Y-14366801D01*
X24272993Y-13467682D01*
X24380505Y-13467682D01*
X24401715Y-13469771D01*
X24422925Y-13467682D01*
X24486363Y-13461434D01*
X24567757Y-13436743D01*
X24642771Y-13396648D01*
X24708521Y-13342688D01*
X24722049Y-13326204D01*
X24863874Y-13184380D01*
X24879761Y-13187540D01*
X25017353Y-13187540D01*
X25152302Y-13160697D01*
X25279421Y-13108043D01*
X25393825Y-13031601D01*
X25491118Y-12934308D01*
X25514400Y-12899464D01*
X25514400Y-13365700D01*
X25603300Y-13454600D01*
X26644600Y-13454600D01*
X26644600Y-13434600D01*
X26695400Y-13434600D01*
X26695400Y-13454600D01*
X27736700Y-13454600D01*
X27825600Y-13365700D01*
X27825600Y-12814300D01*
X29074400Y-12814300D01*
X29074400Y-13185023D01*
X29088065Y-13253724D01*
X29114871Y-13318439D01*
X29153787Y-13376681D01*
X29203318Y-13426212D01*
X29261560Y-13465128D01*
X29326275Y-13491934D01*
X29394976Y-13505600D01*
X29615700Y-13505600D01*
X29704600Y-13416700D01*
X29704600Y-12725400D01*
X29755400Y-12725400D01*
X29755400Y-13416700D01*
X29844300Y-13505600D01*
X30065024Y-13505600D01*
X30133725Y-13491934D01*
X30198440Y-13465128D01*
X30256682Y-13426212D01*
X30306213Y-13376681D01*
X30345129Y-13318439D01*
X30371935Y-13253724D01*
X30385600Y-13185023D01*
X30385600Y-12814300D01*
X30296700Y-12725400D01*
X29755400Y-12725400D01*
X29704600Y-12725400D01*
X29163300Y-12725400D01*
X29074400Y-12814300D01*
X27825600Y-12814300D01*
X27825600Y-12397635D01*
X29074400Y-12397635D01*
X29074400Y-12585700D01*
X29074400Y-12585700D01*
G37*
X29074400Y-12585700D02*
X29163300Y-12674600D01*
X29704600Y-12674600D01*
X29704600Y-12654600D01*
X29755400Y-12654600D01*
X29755400Y-12674600D01*
X30296700Y-12674600D01*
X30385600Y-12585700D01*
X30385600Y-12397635D01*
X30572680Y-12397635D01*
X30572680Y-13150000D01*
X30579546Y-13219710D01*
X30599879Y-13286740D01*
X30632899Y-13348516D01*
X30671922Y-13396064D01*
X30654732Y-13407550D01*
X30557439Y-13504843D01*
X30480997Y-13619247D01*
X30428343Y-13746366D01*
X30401500Y-13881315D01*
X30401500Y-14018907D01*
X30428343Y-14153856D01*
X30480997Y-14280975D01*
X30557439Y-14395379D01*
X30654732Y-14492672D01*
X30769136Y-14569114D01*
X30896255Y-14621768D01*
X31031204Y-14648611D01*
X31168796Y-14648611D01*
X31303745Y-14621768D01*
X31430864Y-14569114D01*
X31545268Y-14492672D01*
X31603642Y-14434298D01*
X33178007Y-16008664D01*
X33117653Y-16154373D01*
X33070800Y-16389919D01*
X33070800Y-16630081D01*
X33117653Y-16865627D01*
X33209559Y-17087508D01*
X33342986Y-17287195D01*
X33430191Y-17374400D01*
X32609809Y-17374400D01*
X32697014Y-17287195D01*
X32830441Y-17087508D01*
X32922347Y-16865627D01*
X32969200Y-16630081D01*
X32969200Y-16389919D01*
X32922347Y-16154373D01*
X32830441Y-15932492D01*
X32697014Y-15732805D01*
X32527195Y-15562986D01*
X32327508Y-15429559D01*
X32105627Y-15337653D01*
X31870081Y-15290800D01*
X31629919Y-15290800D01*
X31394373Y-15337653D01*
X31299465Y-15376965D01*
X30447418Y-14524919D01*
X30432302Y-14506500D01*
X30358816Y-14446192D01*
X30274978Y-14401379D01*
X30184007Y-14373784D01*
X30113108Y-14366801D01*
X30113106Y-14366801D01*
X30089401Y-14364466D01*
X30065696Y-14366801D01*
X27825600Y-14366801D01*
X27825600Y-13594300D01*
X27736700Y-13505400D01*
X26695400Y-13505400D01*
X26695400Y-13525400D01*
X26644600Y-13525400D01*
X26644600Y-13505400D01*
X25603300Y-13505400D01*
X25514400Y-13594300D01*
X25514400Y-14366801D01*
X25172112Y-14366801D01*
X24272993Y-13467682D01*
X24380505Y-13467682D01*
X24401715Y-13469771D01*
X24422925Y-13467682D01*
X24486363Y-13461434D01*
X24567757Y-13436743D01*
X24642771Y-13396648D01*
X24708521Y-13342688D01*
X24722049Y-13326204D01*
X24863874Y-13184380D01*
X24879761Y-13187540D01*
X25017353Y-13187540D01*
X25152302Y-13160697D01*
X25279421Y-13108043D01*
X25393825Y-13031601D01*
X25491118Y-12934308D01*
X25514400Y-12899464D01*
X25514400Y-13365700D01*
X25603300Y-13454600D01*
X26644600Y-13454600D01*
X26644600Y-13434600D01*
X26695400Y-13434600D01*
X26695400Y-13454600D01*
X27736700Y-13454600D01*
X27825600Y-13365700D01*
X27825600Y-12814300D01*
X29074400Y-12814300D01*
X29074400Y-13185023D01*
X29088065Y-13253724D01*
X29114871Y-13318439D01*
X29153787Y-13376681D01*
X29203318Y-13426212D01*
X29261560Y-13465128D01*
X29326275Y-13491934D01*
X29394976Y-13505600D01*
X29615700Y-13505600D01*
X29704600Y-13416700D01*
X29704600Y-12725400D01*
X29755400Y-12725400D01*
X29755400Y-13416700D01*
X29844300Y-13505600D01*
X30065024Y-13505600D01*
X30133725Y-13491934D01*
X30198440Y-13465128D01*
X30256682Y-13426212D01*
X30306213Y-13376681D01*
X30345129Y-13318439D01*
X30371935Y-13253724D01*
X30385600Y-13185023D01*
X30385600Y-12814300D01*
X30296700Y-12725400D01*
X29755400Y-12725400D01*
X29704600Y-12725400D01*
X29163300Y-12725400D01*
X29074400Y-12814300D01*
X27825600Y-12814300D01*
X27825600Y-12397635D01*
X29074400Y-12397635D01*
X29074400Y-12585700D01*
G36*
X12567703Y-12163905D02*
X12553560Y-12178047D01*
X12567703Y-12192190D01*
X12531782Y-12228111D01*
X12517639Y-12213968D01*
X11781329Y-12950278D01*
X11781329Y-13076002D01*
X11919726Y-13214399D01*
X11977967Y-13253315D01*
X11998462Y-13261805D01*
X12026083Y-13313479D01*
X12070521Y-13367626D01*
X12459430Y-13756535D01*
X12513577Y-13800973D01*
X12535226Y-13812545D01*
X11139679Y-15208092D01*
X11123194Y-15221621D01*
X11069234Y-15287372D01*
X11033256Y-15354684D01*
X10852492Y-15429559D01*
X10652805Y-15562986D01*
X10482986Y-15732805D01*
X10349559Y-15932492D01*
X10257653Y-16154373D01*
X10210800Y-16389919D01*
X10210800Y-16630081D01*
X10257653Y-16865627D01*
X10349559Y-17087508D01*
X10482986Y-17287195D01*
X10570191Y-17374400D01*
X9749809Y-17374400D01*
X9837014Y-17287195D01*
X9970441Y-17087508D01*
X10062347Y-16865627D01*
X10109200Y-16630081D01*
X10109200Y-16389919D01*
X10062347Y-16154373D01*
X10001993Y-16008664D01*
X11273529Y-14737129D01*
X11290002Y-14723610D01*
X11343962Y-14657860D01*
X11384057Y-14582846D01*
X11408748Y-14501452D01*
X11413083Y-14457439D01*
X11417085Y-14416805D01*
X11414996Y-14395595D01*
X11414996Y-12759974D01*
X11448331Y-12726639D01*
X11481287Y-12775960D01*
X11619684Y-12914357D01*
X11745408Y-12914357D01*
X12481718Y-12178047D01*
X12467576Y-12163905D01*
X12503497Y-12127984D01*
X12517639Y-12142126D01*
X12531782Y-12127984D01*
X12567703Y-12163905D01*
X12567703Y-12163905D01*
G37*
X12567703Y-12163905D02*
X12553560Y-12178047D01*
X12567703Y-12192190D01*
X12531782Y-12228111D01*
X12517639Y-12213968D01*
X11781329Y-12950278D01*
X11781329Y-13076002D01*
X11919726Y-13214399D01*
X11977967Y-13253315D01*
X11998462Y-13261805D01*
X12026083Y-13313479D01*
X12070521Y-13367626D01*
X12459430Y-13756535D01*
X12513577Y-13800973D01*
X12535226Y-13812545D01*
X11139679Y-15208092D01*
X11123194Y-15221621D01*
X11069234Y-15287372D01*
X11033256Y-15354684D01*
X10852492Y-15429559D01*
X10652805Y-15562986D01*
X10482986Y-15732805D01*
X10349559Y-15932492D01*
X10257653Y-16154373D01*
X10210800Y-16389919D01*
X10210800Y-16630081D01*
X10257653Y-16865627D01*
X10349559Y-17087508D01*
X10482986Y-17287195D01*
X10570191Y-17374400D01*
X9749809Y-17374400D01*
X9837014Y-17287195D01*
X9970441Y-17087508D01*
X10062347Y-16865627D01*
X10109200Y-16630081D01*
X10109200Y-16389919D01*
X10062347Y-16154373D01*
X10001993Y-16008664D01*
X11273529Y-14737129D01*
X11290002Y-14723610D01*
X11343962Y-14657860D01*
X11384057Y-14582846D01*
X11408748Y-14501452D01*
X11413083Y-14457439D01*
X11417085Y-14416805D01*
X11414996Y-14395595D01*
X11414996Y-12759974D01*
X11448331Y-12726639D01*
X11481287Y-12775960D01*
X11619684Y-12914357D01*
X11745408Y-12914357D01*
X12481718Y-12178047D01*
X12467576Y-12163905D01*
X12503497Y-12127984D01*
X12517639Y-12142126D01*
X12531782Y-12127984D01*
X12567703Y-12163905D01*
G36*
X40587274Y-11720332D02*
X40600794Y-11736806D01*
X40666544Y-11790766D01*
X40702680Y-11810081D01*
X40702680Y-12280000D01*
X40709546Y-12349710D01*
X40729879Y-12416740D01*
X40762899Y-12478516D01*
X40807337Y-12532663D01*
X40861484Y-12577101D01*
X40923260Y-12610121D01*
X40990290Y-12630454D01*
X41060000Y-12637320D01*
X42760000Y-12637320D01*
X42774401Y-12635902D01*
X42774401Y-15563359D01*
X42726335Y-15515293D01*
X42516591Y-15375147D01*
X42283537Y-15278613D01*
X42036128Y-15229400D01*
X41783872Y-15229400D01*
X41536463Y-15278613D01*
X41303409Y-15375147D01*
X41093665Y-15515293D01*
X40915293Y-15693665D01*
X40775147Y-15903409D01*
X40678613Y-16136463D01*
X40629400Y-16383872D01*
X40629400Y-16636128D01*
X40678613Y-16883537D01*
X40775147Y-17116591D01*
X40915293Y-17326335D01*
X40963358Y-17374400D01*
X40229809Y-17374400D01*
X40317014Y-17287195D01*
X40450441Y-17087508D01*
X40542347Y-16865627D01*
X40589200Y-16630081D01*
X40589200Y-16389919D01*
X40542347Y-16154373D01*
X40450441Y-15932492D01*
X40317014Y-15732805D01*
X40147195Y-15562986D01*
X39947508Y-15429559D01*
X39725627Y-15337653D01*
X39490081Y-15290800D01*
X39249919Y-15290800D01*
X39014373Y-15337653D01*
X38792492Y-15429559D01*
X38592805Y-15562986D01*
X38422986Y-15732805D01*
X38289559Y-15932492D01*
X38197653Y-16154373D01*
X38150800Y-16389919D01*
X38150800Y-16630081D01*
X38197653Y-16865627D01*
X38289559Y-17087508D01*
X38422986Y-17287195D01*
X38510191Y-17374400D01*
X37697458Y-17374400D01*
X37713891Y-17357967D01*
X37651176Y-17295252D01*
X37835843Y-17209392D01*
X37952961Y-16999722D01*
X38026923Y-16771234D01*
X38054889Y-16532707D01*
X38035782Y-16293306D01*
X37970338Y-16062234D01*
X37861072Y-15848369D01*
X37835843Y-15810608D01*
X37651174Y-15724747D01*
X36865921Y-16510000D01*
X36880064Y-16524143D01*
X36844143Y-16560064D01*
X36830000Y-16545921D01*
X36815858Y-16560064D01*
X36779937Y-16524143D01*
X36794079Y-16510000D01*
X36008826Y-15724747D01*
X35824157Y-15810608D01*
X35707039Y-16020278D01*
X35633077Y-16248766D01*
X35605111Y-16487293D01*
X35624218Y-16726694D01*
X35689662Y-16957766D01*
X35798928Y-17171631D01*
X35824157Y-17209392D01*
X36008824Y-17295252D01*
X35946109Y-17357967D01*
X35962542Y-17374400D01*
X35149809Y-17374400D01*
X35237014Y-17287195D01*
X35370441Y-17087508D01*
X35462347Y-16865627D01*
X35509200Y-16630081D01*
X35509200Y-16389919D01*
X35462347Y-16154373D01*
X35401992Y-16008664D01*
X35721830Y-15688826D01*
X36044747Y-15688826D01*
X36830000Y-16474079D01*
X37615253Y-15688826D01*
X37529392Y-15504157D01*
X37319722Y-15387039D01*
X37091234Y-15313077D01*
X36852707Y-15285111D01*
X36613306Y-15304218D01*
X36382234Y-15369662D01*
X36168369Y-15478928D01*
X36130608Y-15504157D01*
X36044747Y-15688826D01*
X35721830Y-15688826D01*
X36978858Y-14431800D01*
X39648440Y-14431800D01*
X39657439Y-14445268D01*
X39754732Y-14542561D01*
X39869136Y-14619003D01*
X39996255Y-14671657D01*
X40131204Y-14698500D01*
X40268796Y-14698500D01*
X40403745Y-14671657D01*
X40530864Y-14619003D01*
X40645268Y-14542561D01*
X40742561Y-14445268D01*
X40819003Y-14330864D01*
X40871657Y-14203745D01*
X40898500Y-14068796D01*
X40898500Y-13931204D01*
X40871657Y-13796255D01*
X40819003Y-13669136D01*
X40742561Y-13554732D01*
X40645268Y-13457439D01*
X40530864Y-13380997D01*
X40403745Y-13328343D01*
X40268796Y-13301500D01*
X40131204Y-13301500D01*
X39996255Y-13328343D01*
X39869136Y-13380997D01*
X39754732Y-13457439D01*
X39657439Y-13554732D01*
X39648440Y-13568200D01*
X36821209Y-13568200D01*
X36799999Y-13566111D01*
X36715352Y-13574448D01*
X36633958Y-13599139D01*
X36558944Y-13639234D01*
X36493194Y-13693194D01*
X36479674Y-13709668D01*
X34791336Y-15398008D01*
X34645627Y-15337653D01*
X34410081Y-15290800D01*
X34169919Y-15290800D01*
X33934373Y-15337653D01*
X33788664Y-15398007D01*
X32050446Y-13659790D01*
X32036917Y-13643305D01*
X31971167Y-13589345D01*
X31896153Y-13549250D01*
X31814759Y-13524559D01*
X31751321Y-13518311D01*
X31730111Y-13516222D01*
X31708901Y-13518311D01*
X31651560Y-13518311D01*
X31642561Y-13504843D01*
X31629220Y-13491502D01*
X31666740Y-13480121D01*
X31728516Y-13447101D01*
X31782663Y-13402663D01*
X31827101Y-13348516D01*
X31860121Y-13286740D01*
X31880454Y-13219710D01*
X31887320Y-13150000D01*
X31887320Y-13131800D01*
X32882680Y-13131800D01*
X32882680Y-13150000D01*
X32889546Y-13219710D01*
X32909879Y-13286740D01*
X32942899Y-13348516D01*
X32987337Y-13402663D01*
X33041484Y-13447101D01*
X33103260Y-13480121D01*
X33170290Y-13500454D01*
X33240000Y-13507320D01*
X33840000Y-13507320D01*
X33909710Y-13500454D01*
X33976740Y-13480121D01*
X34038516Y-13447101D01*
X34092663Y-13402663D01*
X34137101Y-13348516D01*
X34170121Y-13286740D01*
X34190454Y-13219710D01*
X34197320Y-13150000D01*
X34197320Y-12397635D01*
X34382680Y-12397635D01*
X34382680Y-13150000D01*
X34389546Y-13219710D01*
X34409879Y-13286740D01*
X34442899Y-13348516D01*
X34487337Y-13402663D01*
X34541484Y-13447101D01*
X34603260Y-13480121D01*
X34670290Y-13500454D01*
X34740000Y-13507320D01*
X35340000Y-13507320D01*
X35409710Y-13500454D01*
X35476740Y-13480121D01*
X35538516Y-13447101D01*
X35592663Y-13402663D01*
X35637101Y-13348516D01*
X35670121Y-13286740D01*
X35690454Y-13219710D01*
X35694109Y-13182600D01*
X38076295Y-13182600D01*
X38100000Y-13184935D01*
X38123705Y-13182600D01*
X38123707Y-13182600D01*
X38194606Y-13175617D01*
X38285577Y-13148022D01*
X38369415Y-13103209D01*
X38442901Y-13042901D01*
X38458017Y-13024482D01*
X38927026Y-12555473D01*
X39133661Y-12618156D01*
X39310776Y-12635600D01*
X39429224Y-12635600D01*
X39606339Y-12618156D01*
X39833595Y-12549218D01*
X40043036Y-12437270D01*
X40226612Y-12286612D01*
X40377270Y-12103036D01*
X40489218Y-11893595D01*
X40552366Y-11685424D01*
X40587274Y-11720332D01*
X40587274Y-11720332D01*
G37*
X40587274Y-11720332D02*
X40600794Y-11736806D01*
X40666544Y-11790766D01*
X40702680Y-11810081D01*
X40702680Y-12280000D01*
X40709546Y-12349710D01*
X40729879Y-12416740D01*
X40762899Y-12478516D01*
X40807337Y-12532663D01*
X40861484Y-12577101D01*
X40923260Y-12610121D01*
X40990290Y-12630454D01*
X41060000Y-12637320D01*
X42760000Y-12637320D01*
X42774401Y-12635902D01*
X42774401Y-15563359D01*
X42726335Y-15515293D01*
X42516591Y-15375147D01*
X42283537Y-15278613D01*
X42036128Y-15229400D01*
X41783872Y-15229400D01*
X41536463Y-15278613D01*
X41303409Y-15375147D01*
X41093665Y-15515293D01*
X40915293Y-15693665D01*
X40775147Y-15903409D01*
X40678613Y-16136463D01*
X40629400Y-16383872D01*
X40629400Y-16636128D01*
X40678613Y-16883537D01*
X40775147Y-17116591D01*
X40915293Y-17326335D01*
X40963358Y-17374400D01*
X40229809Y-17374400D01*
X40317014Y-17287195D01*
X40450441Y-17087508D01*
X40542347Y-16865627D01*
X40589200Y-16630081D01*
X40589200Y-16389919D01*
X40542347Y-16154373D01*
X40450441Y-15932492D01*
X40317014Y-15732805D01*
X40147195Y-15562986D01*
X39947508Y-15429559D01*
X39725627Y-15337653D01*
X39490081Y-15290800D01*
X39249919Y-15290800D01*
X39014373Y-15337653D01*
X38792492Y-15429559D01*
X38592805Y-15562986D01*
X38422986Y-15732805D01*
X38289559Y-15932492D01*
X38197653Y-16154373D01*
X38150800Y-16389919D01*
X38150800Y-16630081D01*
X38197653Y-16865627D01*
X38289559Y-17087508D01*
X38422986Y-17287195D01*
X38510191Y-17374400D01*
X37697458Y-17374400D01*
X37713891Y-17357967D01*
X37651176Y-17295252D01*
X37835843Y-17209392D01*
X37952961Y-16999722D01*
X38026923Y-16771234D01*
X38054889Y-16532707D01*
X38035782Y-16293306D01*
X37970338Y-16062234D01*
X37861072Y-15848369D01*
X37835843Y-15810608D01*
X37651174Y-15724747D01*
X36865921Y-16510000D01*
X36880064Y-16524143D01*
X36844143Y-16560064D01*
X36830000Y-16545921D01*
X36815858Y-16560064D01*
X36779937Y-16524143D01*
X36794079Y-16510000D01*
X36008826Y-15724747D01*
X35824157Y-15810608D01*
X35707039Y-16020278D01*
X35633077Y-16248766D01*
X35605111Y-16487293D01*
X35624218Y-16726694D01*
X35689662Y-16957766D01*
X35798928Y-17171631D01*
X35824157Y-17209392D01*
X36008824Y-17295252D01*
X35946109Y-17357967D01*
X35962542Y-17374400D01*
X35149809Y-17374400D01*
X35237014Y-17287195D01*
X35370441Y-17087508D01*
X35462347Y-16865627D01*
X35509200Y-16630081D01*
X35509200Y-16389919D01*
X35462347Y-16154373D01*
X35401992Y-16008664D01*
X35721830Y-15688826D01*
X36044747Y-15688826D01*
X36830000Y-16474079D01*
X37615253Y-15688826D01*
X37529392Y-15504157D01*
X37319722Y-15387039D01*
X37091234Y-15313077D01*
X36852707Y-15285111D01*
X36613306Y-15304218D01*
X36382234Y-15369662D01*
X36168369Y-15478928D01*
X36130608Y-15504157D01*
X36044747Y-15688826D01*
X35721830Y-15688826D01*
X36978858Y-14431800D01*
X39648440Y-14431800D01*
X39657439Y-14445268D01*
X39754732Y-14542561D01*
X39869136Y-14619003D01*
X39996255Y-14671657D01*
X40131204Y-14698500D01*
X40268796Y-14698500D01*
X40403745Y-14671657D01*
X40530864Y-14619003D01*
X40645268Y-14542561D01*
X40742561Y-14445268D01*
X40819003Y-14330864D01*
X40871657Y-14203745D01*
X40898500Y-14068796D01*
X40898500Y-13931204D01*
X40871657Y-13796255D01*
X40819003Y-13669136D01*
X40742561Y-13554732D01*
X40645268Y-13457439D01*
X40530864Y-13380997D01*
X40403745Y-13328343D01*
X40268796Y-13301500D01*
X40131204Y-13301500D01*
X39996255Y-13328343D01*
X39869136Y-13380997D01*
X39754732Y-13457439D01*
X39657439Y-13554732D01*
X39648440Y-13568200D01*
X36821209Y-13568200D01*
X36799999Y-13566111D01*
X36715352Y-13574448D01*
X36633958Y-13599139D01*
X36558944Y-13639234D01*
X36493194Y-13693194D01*
X36479674Y-13709668D01*
X34791336Y-15398008D01*
X34645627Y-15337653D01*
X34410081Y-15290800D01*
X34169919Y-15290800D01*
X33934373Y-15337653D01*
X33788664Y-15398007D01*
X32050446Y-13659790D01*
X32036917Y-13643305D01*
X31971167Y-13589345D01*
X31896153Y-13549250D01*
X31814759Y-13524559D01*
X31751321Y-13518311D01*
X31730111Y-13516222D01*
X31708901Y-13518311D01*
X31651560Y-13518311D01*
X31642561Y-13504843D01*
X31629220Y-13491502D01*
X31666740Y-13480121D01*
X31728516Y-13447101D01*
X31782663Y-13402663D01*
X31827101Y-13348516D01*
X31860121Y-13286740D01*
X31880454Y-13219710D01*
X31887320Y-13150000D01*
X31887320Y-13131800D01*
X32882680Y-13131800D01*
X32882680Y-13150000D01*
X32889546Y-13219710D01*
X32909879Y-13286740D01*
X32942899Y-13348516D01*
X32987337Y-13402663D01*
X33041484Y-13447101D01*
X33103260Y-13480121D01*
X33170290Y-13500454D01*
X33240000Y-13507320D01*
X33840000Y-13507320D01*
X33909710Y-13500454D01*
X33976740Y-13480121D01*
X34038516Y-13447101D01*
X34092663Y-13402663D01*
X34137101Y-13348516D01*
X34170121Y-13286740D01*
X34190454Y-13219710D01*
X34197320Y-13150000D01*
X34197320Y-12397635D01*
X34382680Y-12397635D01*
X34382680Y-13150000D01*
X34389546Y-13219710D01*
X34409879Y-13286740D01*
X34442899Y-13348516D01*
X34487337Y-13402663D01*
X34541484Y-13447101D01*
X34603260Y-13480121D01*
X34670290Y-13500454D01*
X34740000Y-13507320D01*
X35340000Y-13507320D01*
X35409710Y-13500454D01*
X35476740Y-13480121D01*
X35538516Y-13447101D01*
X35592663Y-13402663D01*
X35637101Y-13348516D01*
X35670121Y-13286740D01*
X35690454Y-13219710D01*
X35694109Y-13182600D01*
X38076295Y-13182600D01*
X38100000Y-13184935D01*
X38123705Y-13182600D01*
X38123707Y-13182600D01*
X38194606Y-13175617D01*
X38285577Y-13148022D01*
X38369415Y-13103209D01*
X38442901Y-13042901D01*
X38458017Y-13024482D01*
X38927026Y-12555473D01*
X39133661Y-12618156D01*
X39310776Y-12635600D01*
X39429224Y-12635600D01*
X39606339Y-12618156D01*
X39833595Y-12549218D01*
X40043036Y-12437270D01*
X40226612Y-12286612D01*
X40377270Y-12103036D01*
X40489218Y-11893595D01*
X40552366Y-11685424D01*
X40587274Y-11720332D01*
G36*
X20807267Y-6291888D02*
X20288992Y-6291888D01*
X20283311Y-6286207D01*
X20229164Y-6241769D01*
X20177490Y-6214149D01*
X20169000Y-6193652D01*
X20130084Y-6135411D01*
X19991687Y-5997014D01*
X19865963Y-5997014D01*
X19129653Y-6733324D01*
X19143796Y-6747467D01*
X19107875Y-6783388D01*
X19093732Y-6769245D01*
X18357422Y-7505555D01*
X18357422Y-7631279D01*
X18495819Y-7769676D01*
X18554060Y-7808592D01*
X18574555Y-7817081D01*
X18602176Y-7868757D01*
X18646614Y-7922904D01*
X19035523Y-8311813D01*
X19089670Y-8356251D01*
X19140626Y-8383488D01*
X19167862Y-8434442D01*
X19212300Y-8488589D01*
X19399393Y-8675682D01*
X17601326Y-10473750D01*
X17584847Y-10487274D01*
X17530886Y-10553024D01*
X17490791Y-10628038D01*
X17466100Y-10709432D01*
X17460032Y-10771047D01*
X17457763Y-10794080D01*
X17459852Y-10815290D01*
X17459852Y-10954756D01*
X17457763Y-10975966D01*
X17461551Y-11014423D01*
X17465335Y-11052849D01*
X17443570Y-11093570D01*
X17392614Y-11120806D01*
X17338467Y-11165244D01*
X16949558Y-11554153D01*
X16905120Y-11608300D01*
X16877884Y-11659255D01*
X16826929Y-11686491D01*
X16772782Y-11730929D01*
X16383873Y-12119838D01*
X16339435Y-12173985D01*
X16312199Y-12224939D01*
X16261243Y-12252176D01*
X16207096Y-12296614D01*
X15818187Y-12685523D01*
X15773749Y-12739670D01*
X15746512Y-12790626D01*
X15695558Y-12817862D01*
X15641411Y-12862300D01*
X15252502Y-13251209D01*
X15240000Y-13266442D01*
X15227498Y-13251209D01*
X14838589Y-12862300D01*
X14784442Y-12817862D01*
X14733488Y-12790626D01*
X14706251Y-12739670D01*
X14661813Y-12685523D01*
X14272904Y-12296614D01*
X14218757Y-12252176D01*
X14167801Y-12224939D01*
X14146036Y-12184220D01*
X14151519Y-12128547D01*
X14151519Y-12128541D01*
X14153607Y-12107338D01*
X14151519Y-12086135D01*
X14151519Y-12078556D01*
X14209239Y-12117123D01*
X14336358Y-12169777D01*
X14471307Y-12196620D01*
X14608899Y-12196620D01*
X14743848Y-12169777D01*
X14870967Y-12117123D01*
X14985371Y-12040681D01*
X15082664Y-11943388D01*
X15091663Y-11929920D01*
X15109835Y-11929920D01*
X15131045Y-11932009D01*
X15152255Y-11929920D01*
X15215693Y-11923672D01*
X15297087Y-11898981D01*
X15372101Y-11858886D01*
X15437851Y-11804926D01*
X15451379Y-11788442D01*
X15667845Y-11571977D01*
X15683732Y-11575137D01*
X15821324Y-11575137D01*
X15956273Y-11548294D01*
X16083392Y-11495640D01*
X16197796Y-11419198D01*
X16295089Y-11321905D01*
X16371531Y-11207501D01*
X16424185Y-11080382D01*
X16451028Y-10945433D01*
X16451028Y-10807841D01*
X16424185Y-10672892D01*
X16371531Y-10545773D01*
X16295089Y-10431369D01*
X16197796Y-10334076D01*
X16083392Y-10257634D01*
X15956273Y-10204980D01*
X15821324Y-10178137D01*
X15683732Y-10178137D01*
X15548783Y-10204980D01*
X15421664Y-10257634D01*
X15368856Y-10292919D01*
X15344600Y-10256618D01*
X15247307Y-10159325D01*
X15132903Y-10082883D01*
X15005784Y-10030229D01*
X14870835Y-10003386D01*
X14733243Y-10003386D01*
X14598294Y-10030229D01*
X14471175Y-10082883D01*
X14356771Y-10159325D01*
X14259478Y-10256618D01*
X14213686Y-10325152D01*
X14183810Y-10341120D01*
X14118060Y-10395080D01*
X14104540Y-10411554D01*
X13429393Y-11086703D01*
X13412914Y-11100227D01*
X13358954Y-11165977D01*
X13324482Y-11230471D01*
X13318859Y-11240991D01*
X13294167Y-11322386D01*
X13289446Y-11370316D01*
X13253949Y-11405813D01*
X13253949Y-11280092D01*
X13115552Y-11141695D01*
X13057311Y-11102779D01*
X13036815Y-11094289D01*
X13019334Y-11061585D01*
X13097336Y-11009466D01*
X13194629Y-10912173D01*
X13271071Y-10797769D01*
X13323725Y-10670650D01*
X13350568Y-10535701D01*
X13350568Y-10398109D01*
X13345935Y-10374817D01*
X13468036Y-10374817D01*
X13602985Y-10347974D01*
X13730104Y-10295320D01*
X13844508Y-10218878D01*
X13941801Y-10121585D01*
X14018243Y-10007181D01*
X14070897Y-9880062D01*
X14097740Y-9745113D01*
X14097740Y-9607521D01*
X14082673Y-9531772D01*
X14306542Y-9531772D01*
X14324040Y-9537080D01*
X14338862Y-9538540D01*
X14351060Y-9556796D01*
X14448353Y-9654089D01*
X14562757Y-9730531D01*
X14689876Y-9783185D01*
X14824825Y-9810028D01*
X14962417Y-9810028D01*
X15097366Y-9783185D01*
X15224485Y-9730531D01*
X15338889Y-9654089D01*
X15436182Y-9556796D01*
X15512624Y-9442392D01*
X15565278Y-9315273D01*
X15592121Y-9180324D01*
X15592121Y-9042732D01*
X15586512Y-9014536D01*
X15629570Y-8996701D01*
X15743974Y-8920259D01*
X15841267Y-8822966D01*
X15917709Y-8708562D01*
X15970363Y-8581443D01*
X15997206Y-8446494D01*
X15997206Y-8308902D01*
X15970363Y-8173953D01*
X15917709Y-8046834D01*
X15841267Y-7932430D01*
X15781306Y-7872469D01*
X15781306Y-7227805D01*
X15977983Y-7424482D01*
X15993099Y-7442901D01*
X16066585Y-7503209D01*
X16150423Y-7548022D01*
X16241394Y-7575617D01*
X16312293Y-7582600D01*
X16312302Y-7582600D01*
X16335999Y-7584934D01*
X16359696Y-7582600D01*
X17571981Y-7582600D01*
X17595686Y-7584935D01*
X17619391Y-7582600D01*
X17619393Y-7582600D01*
X17690292Y-7575617D01*
X17781263Y-7548022D01*
X17865101Y-7503209D01*
X17938587Y-7442901D01*
X17953703Y-7424482D01*
X18053202Y-7324984D01*
X18057380Y-7331237D01*
X18195777Y-7469634D01*
X18321501Y-7469634D01*
X19057811Y-6733324D01*
X19043669Y-6719182D01*
X19079590Y-6683261D01*
X19093732Y-6697403D01*
X19830042Y-5961093D01*
X19830042Y-5835369D01*
X19691645Y-5696972D01*
X19633404Y-5658056D01*
X19612909Y-5649566D01*
X19585288Y-5597892D01*
X19540850Y-5543745D01*
X19151941Y-5154836D01*
X19097794Y-5110398D01*
X19046119Y-5082777D01*
X19037629Y-5062281D01*
X18998713Y-5004040D01*
X18863428Y-4868755D01*
X18945268Y-4814071D01*
X19042561Y-4716778D01*
X19118503Y-4603123D01*
X20807267Y-6291888D01*
X20807267Y-6291888D01*
G37*
X20807267Y-6291888D02*
X20288992Y-6291888D01*
X20283311Y-6286207D01*
X20229164Y-6241769D01*
X20177490Y-6214149D01*
X20169000Y-6193652D01*
X20130084Y-6135411D01*
X19991687Y-5997014D01*
X19865963Y-5997014D01*
X19129653Y-6733324D01*
X19143796Y-6747467D01*
X19107875Y-6783388D01*
X19093732Y-6769245D01*
X18357422Y-7505555D01*
X18357422Y-7631279D01*
X18495819Y-7769676D01*
X18554060Y-7808592D01*
X18574555Y-7817081D01*
X18602176Y-7868757D01*
X18646614Y-7922904D01*
X19035523Y-8311813D01*
X19089670Y-8356251D01*
X19140626Y-8383488D01*
X19167862Y-8434442D01*
X19212300Y-8488589D01*
X19399393Y-8675682D01*
X17601326Y-10473750D01*
X17584847Y-10487274D01*
X17530886Y-10553024D01*
X17490791Y-10628038D01*
X17466100Y-10709432D01*
X17460032Y-10771047D01*
X17457763Y-10794080D01*
X17459852Y-10815290D01*
X17459852Y-10954756D01*
X17457763Y-10975966D01*
X17461551Y-11014423D01*
X17465335Y-11052849D01*
X17443570Y-11093570D01*
X17392614Y-11120806D01*
X17338467Y-11165244D01*
X16949558Y-11554153D01*
X16905120Y-11608300D01*
X16877884Y-11659255D01*
X16826929Y-11686491D01*
X16772782Y-11730929D01*
X16383873Y-12119838D01*
X16339435Y-12173985D01*
X16312199Y-12224939D01*
X16261243Y-12252176D01*
X16207096Y-12296614D01*
X15818187Y-12685523D01*
X15773749Y-12739670D01*
X15746512Y-12790626D01*
X15695558Y-12817862D01*
X15641411Y-12862300D01*
X15252502Y-13251209D01*
X15240000Y-13266442D01*
X15227498Y-13251209D01*
X14838589Y-12862300D01*
X14784442Y-12817862D01*
X14733488Y-12790626D01*
X14706251Y-12739670D01*
X14661813Y-12685523D01*
X14272904Y-12296614D01*
X14218757Y-12252176D01*
X14167801Y-12224939D01*
X14146036Y-12184220D01*
X14151519Y-12128547D01*
X14151519Y-12128541D01*
X14153607Y-12107338D01*
X14151519Y-12086135D01*
X14151519Y-12078556D01*
X14209239Y-12117123D01*
X14336358Y-12169777D01*
X14471307Y-12196620D01*
X14608899Y-12196620D01*
X14743848Y-12169777D01*
X14870967Y-12117123D01*
X14985371Y-12040681D01*
X15082664Y-11943388D01*
X15091663Y-11929920D01*
X15109835Y-11929920D01*
X15131045Y-11932009D01*
X15152255Y-11929920D01*
X15215693Y-11923672D01*
X15297087Y-11898981D01*
X15372101Y-11858886D01*
X15437851Y-11804926D01*
X15451379Y-11788442D01*
X15667845Y-11571977D01*
X15683732Y-11575137D01*
X15821324Y-11575137D01*
X15956273Y-11548294D01*
X16083392Y-11495640D01*
X16197796Y-11419198D01*
X16295089Y-11321905D01*
X16371531Y-11207501D01*
X16424185Y-11080382D01*
X16451028Y-10945433D01*
X16451028Y-10807841D01*
X16424185Y-10672892D01*
X16371531Y-10545773D01*
X16295089Y-10431369D01*
X16197796Y-10334076D01*
X16083392Y-10257634D01*
X15956273Y-10204980D01*
X15821324Y-10178137D01*
X15683732Y-10178137D01*
X15548783Y-10204980D01*
X15421664Y-10257634D01*
X15368856Y-10292919D01*
X15344600Y-10256618D01*
X15247307Y-10159325D01*
X15132903Y-10082883D01*
X15005784Y-10030229D01*
X14870835Y-10003386D01*
X14733243Y-10003386D01*
X14598294Y-10030229D01*
X14471175Y-10082883D01*
X14356771Y-10159325D01*
X14259478Y-10256618D01*
X14213686Y-10325152D01*
X14183810Y-10341120D01*
X14118060Y-10395080D01*
X14104540Y-10411554D01*
X13429393Y-11086703D01*
X13412914Y-11100227D01*
X13358954Y-11165977D01*
X13324482Y-11230471D01*
X13318859Y-11240991D01*
X13294167Y-11322386D01*
X13289446Y-11370316D01*
X13253949Y-11405813D01*
X13253949Y-11280092D01*
X13115552Y-11141695D01*
X13057311Y-11102779D01*
X13036815Y-11094289D01*
X13019334Y-11061585D01*
X13097336Y-11009466D01*
X13194629Y-10912173D01*
X13271071Y-10797769D01*
X13323725Y-10670650D01*
X13350568Y-10535701D01*
X13350568Y-10398109D01*
X13345935Y-10374817D01*
X13468036Y-10374817D01*
X13602985Y-10347974D01*
X13730104Y-10295320D01*
X13844508Y-10218878D01*
X13941801Y-10121585D01*
X14018243Y-10007181D01*
X14070897Y-9880062D01*
X14097740Y-9745113D01*
X14097740Y-9607521D01*
X14082673Y-9531772D01*
X14306542Y-9531772D01*
X14324040Y-9537080D01*
X14338862Y-9538540D01*
X14351060Y-9556796D01*
X14448353Y-9654089D01*
X14562757Y-9730531D01*
X14689876Y-9783185D01*
X14824825Y-9810028D01*
X14962417Y-9810028D01*
X15097366Y-9783185D01*
X15224485Y-9730531D01*
X15338889Y-9654089D01*
X15436182Y-9556796D01*
X15512624Y-9442392D01*
X15565278Y-9315273D01*
X15592121Y-9180324D01*
X15592121Y-9042732D01*
X15586512Y-9014536D01*
X15629570Y-8996701D01*
X15743974Y-8920259D01*
X15841267Y-8822966D01*
X15917709Y-8708562D01*
X15970363Y-8581443D01*
X15997206Y-8446494D01*
X15997206Y-8308902D01*
X15970363Y-8173953D01*
X15917709Y-8046834D01*
X15841267Y-7932430D01*
X15781306Y-7872469D01*
X15781306Y-7227805D01*
X15977983Y-7424482D01*
X15993099Y-7442901D01*
X16066585Y-7503209D01*
X16150423Y-7548022D01*
X16241394Y-7575617D01*
X16312293Y-7582600D01*
X16312302Y-7582600D01*
X16335999Y-7584934D01*
X16359696Y-7582600D01*
X17571981Y-7582600D01*
X17595686Y-7584935D01*
X17619391Y-7582600D01*
X17619393Y-7582600D01*
X17690292Y-7575617D01*
X17781263Y-7548022D01*
X17865101Y-7503209D01*
X17938587Y-7442901D01*
X17953703Y-7424482D01*
X18053202Y-7324984D01*
X18057380Y-7331237D01*
X18195777Y-7469634D01*
X18321501Y-7469634D01*
X19057811Y-6733324D01*
X19043669Y-6719182D01*
X19079590Y-6683261D01*
X19093732Y-6697403D01*
X19830042Y-5961093D01*
X19830042Y-5835369D01*
X19691645Y-5696972D01*
X19633404Y-5658056D01*
X19612909Y-5649566D01*
X19585288Y-5597892D01*
X19540850Y-5543745D01*
X19151941Y-5154836D01*
X19097794Y-5110398D01*
X19046119Y-5082777D01*
X19037629Y-5062281D01*
X18998713Y-5004040D01*
X18863428Y-4868755D01*
X18945268Y-4814071D01*
X19042561Y-4716778D01*
X19118503Y-4603123D01*
X20807267Y-6291888D01*
G36*
X29074400Y-9674977D02*
X29074400Y-10045700D01*
X29163300Y-10134600D01*
X29704600Y-10134600D01*
X29704600Y-10114600D01*
X29755400Y-10114600D01*
X29755400Y-10134600D01*
X30296700Y-10134600D01*
X30385600Y-10045700D01*
X30385600Y-9674977D01*
X30372300Y-9608113D01*
X30589307Y-9608113D01*
X30579546Y-9640290D01*
X30572680Y-9710000D01*
X30572680Y-10610000D01*
X30579546Y-10679710D01*
X30599879Y-10746740D01*
X30632899Y-10808516D01*
X30677337Y-10862663D01*
X30731484Y-10907101D01*
X30793260Y-10940121D01*
X30860290Y-10960454D01*
X30930000Y-10967320D01*
X31530000Y-10967320D01*
X31599710Y-10960454D01*
X31666740Y-10940121D01*
X31728516Y-10907101D01*
X31782663Y-10862663D01*
X31827101Y-10808516D01*
X31860121Y-10746740D01*
X31880454Y-10679710D01*
X31887320Y-10610000D01*
X31887320Y-10591800D01*
X32882680Y-10591800D01*
X32882680Y-10610000D01*
X32889546Y-10679710D01*
X32909879Y-10746740D01*
X32942899Y-10808516D01*
X32987337Y-10862663D01*
X33041484Y-10907101D01*
X33103260Y-10940121D01*
X33170290Y-10960454D01*
X33240000Y-10967320D01*
X33840000Y-10967320D01*
X33909710Y-10960454D01*
X33976740Y-10940121D01*
X34038516Y-10907101D01*
X34092663Y-10862663D01*
X34137101Y-10808516D01*
X34170121Y-10746740D01*
X34190454Y-10679710D01*
X34197320Y-10610000D01*
X34197320Y-9710000D01*
X34190454Y-9640290D01*
X34180693Y-9608113D01*
X34399307Y-9608113D01*
X34389546Y-9640290D01*
X34382680Y-9710000D01*
X34382680Y-10610000D01*
X34389546Y-10679710D01*
X34409879Y-10746740D01*
X34442899Y-10808516D01*
X34487337Y-10862663D01*
X34541484Y-10907101D01*
X34603260Y-10940121D01*
X34670290Y-10960454D01*
X34740000Y-10967320D01*
X35340000Y-10967320D01*
X35409710Y-10960454D01*
X35476740Y-10940121D01*
X35538516Y-10907101D01*
X35592663Y-10862663D01*
X35637101Y-10808516D01*
X35670121Y-10746740D01*
X35690454Y-10679710D01*
X35697320Y-10610000D01*
X35697320Y-10540081D01*
X35733456Y-10520766D01*
X35785093Y-10478388D01*
X38114625Y-10478388D01*
X37058979Y-11534035D01*
X29016884Y-11534035D01*
X29019003Y-11530864D01*
X29071657Y-11403745D01*
X29098500Y-11268796D01*
X29098500Y-11131204D01*
X29071657Y-10996255D01*
X29019003Y-10869136D01*
X28942561Y-10754732D01*
X28845268Y-10657439D01*
X28730864Y-10580997D01*
X28603745Y-10528343D01*
X28468796Y-10501500D01*
X28331204Y-10501500D01*
X28196255Y-10528343D01*
X28069136Y-10580997D01*
X27954732Y-10657439D01*
X27894771Y-10717400D01*
X26207204Y-10717400D01*
X26249891Y-10653514D01*
X26302545Y-10526395D01*
X26329388Y-10391446D01*
X26329388Y-10274300D01*
X29074400Y-10274300D01*
X29074400Y-10645023D01*
X29088065Y-10713724D01*
X29114871Y-10778439D01*
X29153787Y-10836681D01*
X29203318Y-10886212D01*
X29261560Y-10925128D01*
X29326275Y-10951934D01*
X29394976Y-10965600D01*
X29615700Y-10965600D01*
X29704600Y-10876700D01*
X29704600Y-10185400D01*
X29755400Y-10185400D01*
X29755400Y-10876700D01*
X29844300Y-10965600D01*
X30065024Y-10965600D01*
X30133725Y-10951934D01*
X30198440Y-10925128D01*
X30256682Y-10886212D01*
X30306213Y-10836681D01*
X30345129Y-10778439D01*
X30371935Y-10713724D01*
X30385600Y-10645023D01*
X30385600Y-10274300D01*
X30296700Y-10185400D01*
X29755400Y-10185400D01*
X29704600Y-10185400D01*
X29163300Y-10185400D01*
X29074400Y-10274300D01*
X26329388Y-10274300D01*
X26329388Y-10253854D01*
X26325105Y-10232320D01*
X26334553Y-10220807D01*
X26374648Y-10145793D01*
X26395911Y-10075700D01*
X26399339Y-10064400D01*
X26401223Y-10045268D01*
X26405587Y-10000960D01*
X26405587Y-10000955D01*
X26407675Y-9979752D01*
X26405649Y-9959183D01*
X26756721Y-9608113D01*
X29087700Y-9608113D01*
X29074400Y-9674977D01*
X29074400Y-9674977D01*
G37*
X29074400Y-9674977D02*
X29074400Y-10045700D01*
X29163300Y-10134600D01*
X29704600Y-10134600D01*
X29704600Y-10114600D01*
X29755400Y-10114600D01*
X29755400Y-10134600D01*
X30296700Y-10134600D01*
X30385600Y-10045700D01*
X30385600Y-9674977D01*
X30372300Y-9608113D01*
X30589307Y-9608113D01*
X30579546Y-9640290D01*
X30572680Y-9710000D01*
X30572680Y-10610000D01*
X30579546Y-10679710D01*
X30599879Y-10746740D01*
X30632899Y-10808516D01*
X30677337Y-10862663D01*
X30731484Y-10907101D01*
X30793260Y-10940121D01*
X30860290Y-10960454D01*
X30930000Y-10967320D01*
X31530000Y-10967320D01*
X31599710Y-10960454D01*
X31666740Y-10940121D01*
X31728516Y-10907101D01*
X31782663Y-10862663D01*
X31827101Y-10808516D01*
X31860121Y-10746740D01*
X31880454Y-10679710D01*
X31887320Y-10610000D01*
X31887320Y-10591800D01*
X32882680Y-10591800D01*
X32882680Y-10610000D01*
X32889546Y-10679710D01*
X32909879Y-10746740D01*
X32942899Y-10808516D01*
X32987337Y-10862663D01*
X33041484Y-10907101D01*
X33103260Y-10940121D01*
X33170290Y-10960454D01*
X33240000Y-10967320D01*
X33840000Y-10967320D01*
X33909710Y-10960454D01*
X33976740Y-10940121D01*
X34038516Y-10907101D01*
X34092663Y-10862663D01*
X34137101Y-10808516D01*
X34170121Y-10746740D01*
X34190454Y-10679710D01*
X34197320Y-10610000D01*
X34197320Y-9710000D01*
X34190454Y-9640290D01*
X34180693Y-9608113D01*
X34399307Y-9608113D01*
X34389546Y-9640290D01*
X34382680Y-9710000D01*
X34382680Y-10610000D01*
X34389546Y-10679710D01*
X34409879Y-10746740D01*
X34442899Y-10808516D01*
X34487337Y-10862663D01*
X34541484Y-10907101D01*
X34603260Y-10940121D01*
X34670290Y-10960454D01*
X34740000Y-10967320D01*
X35340000Y-10967320D01*
X35409710Y-10960454D01*
X35476740Y-10940121D01*
X35538516Y-10907101D01*
X35592663Y-10862663D01*
X35637101Y-10808516D01*
X35670121Y-10746740D01*
X35690454Y-10679710D01*
X35697320Y-10610000D01*
X35697320Y-10540081D01*
X35733456Y-10520766D01*
X35785093Y-10478388D01*
X38114625Y-10478388D01*
X37058979Y-11534035D01*
X29016884Y-11534035D01*
X29019003Y-11530864D01*
X29071657Y-11403745D01*
X29098500Y-11268796D01*
X29098500Y-11131204D01*
X29071657Y-10996255D01*
X29019003Y-10869136D01*
X28942561Y-10754732D01*
X28845268Y-10657439D01*
X28730864Y-10580997D01*
X28603745Y-10528343D01*
X28468796Y-10501500D01*
X28331204Y-10501500D01*
X28196255Y-10528343D01*
X28069136Y-10580997D01*
X27954732Y-10657439D01*
X27894771Y-10717400D01*
X26207204Y-10717400D01*
X26249891Y-10653514D01*
X26302545Y-10526395D01*
X26329388Y-10391446D01*
X26329388Y-10274300D01*
X29074400Y-10274300D01*
X29074400Y-10645023D01*
X29088065Y-10713724D01*
X29114871Y-10778439D01*
X29153787Y-10836681D01*
X29203318Y-10886212D01*
X29261560Y-10925128D01*
X29326275Y-10951934D01*
X29394976Y-10965600D01*
X29615700Y-10965600D01*
X29704600Y-10876700D01*
X29704600Y-10185400D01*
X29755400Y-10185400D01*
X29755400Y-10876700D01*
X29844300Y-10965600D01*
X30065024Y-10965600D01*
X30133725Y-10951934D01*
X30198440Y-10925128D01*
X30256682Y-10886212D01*
X30306213Y-10836681D01*
X30345129Y-10778439D01*
X30371935Y-10713724D01*
X30385600Y-10645023D01*
X30385600Y-10274300D01*
X30296700Y-10185400D01*
X29755400Y-10185400D01*
X29704600Y-10185400D01*
X29163300Y-10185400D01*
X29074400Y-10274300D01*
X26329388Y-10274300D01*
X26329388Y-10253854D01*
X26325105Y-10232320D01*
X26334553Y-10220807D01*
X26374648Y-10145793D01*
X26395911Y-10075700D01*
X26399339Y-10064400D01*
X26401223Y-10045268D01*
X26405587Y-10000960D01*
X26405587Y-10000955D01*
X26407675Y-9979752D01*
X26405649Y-9959183D01*
X26756721Y-9608113D01*
X29087700Y-9608113D01*
X29074400Y-9674977D01*
G36*
X2862986Y-492805D02*
X2729559Y-692492D01*
X2637653Y-914373D01*
X2590800Y-1149919D01*
X2590800Y-1390081D01*
X2637653Y-1625627D01*
X2729559Y-1847508D01*
X2862986Y-2047195D01*
X3032805Y-2217014D01*
X3232492Y-2350441D01*
X3454373Y-2442347D01*
X3689919Y-2489200D01*
X3930081Y-2489200D01*
X4165627Y-2442347D01*
X4205413Y-2425867D01*
X9158034Y-7378489D01*
X9144303Y-7423754D01*
X9137437Y-7493464D01*
X9144303Y-7563174D01*
X9164636Y-7630204D01*
X9197656Y-7691980D01*
X9242094Y-7746127D01*
X10373465Y-8877498D01*
X10388698Y-8890000D01*
X10373465Y-8902502D01*
X10113108Y-9162859D01*
X7659927Y-6709679D01*
X7646398Y-6693194D01*
X7580648Y-6639234D01*
X7505634Y-6599139D01*
X7424240Y-6574448D01*
X7360802Y-6568200D01*
X7339592Y-6566111D01*
X7318382Y-6568200D01*
X6551560Y-6568200D01*
X6542561Y-6554732D01*
X6445268Y-6457439D01*
X6330864Y-6380997D01*
X6203745Y-6328343D01*
X6068796Y-6301500D01*
X5931204Y-6301500D01*
X5796255Y-6328343D01*
X5669136Y-6380997D01*
X5554732Y-6457439D01*
X5457439Y-6554732D01*
X5380997Y-6669136D01*
X5328343Y-6796255D01*
X5301500Y-6931204D01*
X5301500Y-7068796D01*
X5328343Y-7203745D01*
X5380997Y-7330864D01*
X5457439Y-7445268D01*
X5554732Y-7542561D01*
X5669136Y-7619003D01*
X5796255Y-7671657D01*
X5931204Y-7698500D01*
X6068796Y-7698500D01*
X6203745Y-7671657D01*
X6330864Y-7619003D01*
X6445268Y-7542561D01*
X6542561Y-7445268D01*
X6551560Y-7431800D01*
X7160736Y-7431800D01*
X9502451Y-9773516D01*
X9242094Y-10033873D01*
X9197656Y-10088020D01*
X9164636Y-10149796D01*
X9144303Y-10216826D01*
X9137437Y-10286536D01*
X9144303Y-10356246D01*
X9159151Y-10405193D01*
X8798500Y-10765844D01*
X8798500Y-10631204D01*
X8771657Y-10496255D01*
X8719003Y-10369136D01*
X8642561Y-10254732D01*
X8545268Y-10157439D01*
X8430864Y-10080997D01*
X8303745Y-10028343D01*
X8168796Y-10001500D01*
X8031204Y-10001500D01*
X8015318Y-10004660D01*
X5960335Y-7949679D01*
X5946806Y-7933194D01*
X5881056Y-7879234D01*
X5806042Y-7839139D01*
X5724648Y-7814448D01*
X5661210Y-7808200D01*
X5640000Y-7806111D01*
X5618790Y-7808200D01*
X5158527Y-7808200D01*
X5160320Y-7790000D01*
X5160320Y-7390000D01*
X5153454Y-7320290D01*
X5133121Y-7253260D01*
X5100101Y-7191484D01*
X5055663Y-7137337D01*
X5001516Y-7092899D01*
X4939740Y-7059879D01*
X4912526Y-7051624D01*
X5021144Y-7007511D01*
X5124452Y-6821402D01*
X5189468Y-6618714D01*
X5213692Y-6407236D01*
X5196194Y-6195097D01*
X5137645Y-5990448D01*
X5040296Y-5801153D01*
X5021144Y-5772489D01*
X4850667Y-5703254D01*
X4163921Y-6390000D01*
X4178064Y-6404143D01*
X4142143Y-6440064D01*
X4128000Y-6425921D01*
X4113858Y-6440064D01*
X4077937Y-6404143D01*
X4092079Y-6390000D01*
X3405333Y-5703254D01*
X3234856Y-5772489D01*
X3131548Y-5958598D01*
X3066532Y-6161286D01*
X3042308Y-6372764D01*
X3059806Y-6584903D01*
X3118355Y-6789552D01*
X3188132Y-6925234D01*
X3068814Y-6901500D01*
X2931222Y-6901500D01*
X2796273Y-6928343D01*
X2692870Y-6971174D01*
X2654212Y-6913318D01*
X2605894Y-6865000D01*
X2654212Y-6816682D01*
X2693128Y-6758440D01*
X2719934Y-6693725D01*
X2733600Y-6625024D01*
X2733600Y-6104300D01*
X2644700Y-6015400D01*
X2574160Y-6015400D01*
X2602627Y-5964600D01*
X2644700Y-5964600D01*
X2733600Y-5875700D01*
X2733600Y-5667333D01*
X3441254Y-5667333D01*
X4128000Y-6354079D01*
X4814746Y-5667333D01*
X4745511Y-5496856D01*
X4559402Y-5393548D01*
X4356714Y-5328532D01*
X4145236Y-5304308D01*
X3933097Y-5321806D01*
X3728448Y-5380355D01*
X3539153Y-5477704D01*
X3510489Y-5496856D01*
X3441254Y-5667333D01*
X2733600Y-5667333D01*
X2733600Y-5467180D01*
X2739658Y-5416115D01*
X2719550Y-5159721D01*
X2649808Y-4912178D01*
X2533112Y-4682996D01*
X2504094Y-4639568D01*
X2310577Y-4543344D01*
X1819521Y-5034400D01*
X1747679Y-5034400D01*
X2274656Y-4507423D01*
X2178432Y-4313906D01*
X1954077Y-4188181D01*
X1709505Y-4108640D01*
X1454115Y-4078342D01*
X1197721Y-4098450D01*
X950178Y-4168192D01*
X720996Y-4284888D01*
X677568Y-4313906D01*
X581344Y-4507423D01*
X1108321Y-5034400D01*
X1036479Y-5034400D01*
X545423Y-4543344D01*
X405600Y-4612869D01*
X405600Y-2216642D01*
X453665Y-2264707D01*
X663409Y-2404853D01*
X896463Y-2501387D01*
X1143872Y-2550600D01*
X1396128Y-2550600D01*
X1643537Y-2501387D01*
X1876591Y-2404853D01*
X2086335Y-2264707D01*
X2264707Y-2086335D01*
X2404853Y-1876591D01*
X2501387Y-1643537D01*
X2550600Y-1396128D01*
X2550600Y-1143872D01*
X2501387Y-896463D01*
X2404853Y-663409D01*
X2264707Y-453665D01*
X2216642Y-405600D01*
X2950191Y-405600D01*
X2862986Y-492805D01*
X2862986Y-492805D01*
G37*
X2862986Y-492805D02*
X2729559Y-692492D01*
X2637653Y-914373D01*
X2590800Y-1149919D01*
X2590800Y-1390081D01*
X2637653Y-1625627D01*
X2729559Y-1847508D01*
X2862986Y-2047195D01*
X3032805Y-2217014D01*
X3232492Y-2350441D01*
X3454373Y-2442347D01*
X3689919Y-2489200D01*
X3930081Y-2489200D01*
X4165627Y-2442347D01*
X4205413Y-2425867D01*
X9158034Y-7378489D01*
X9144303Y-7423754D01*
X9137437Y-7493464D01*
X9144303Y-7563174D01*
X9164636Y-7630204D01*
X9197656Y-7691980D01*
X9242094Y-7746127D01*
X10373465Y-8877498D01*
X10388698Y-8890000D01*
X10373465Y-8902502D01*
X10113108Y-9162859D01*
X7659927Y-6709679D01*
X7646398Y-6693194D01*
X7580648Y-6639234D01*
X7505634Y-6599139D01*
X7424240Y-6574448D01*
X7360802Y-6568200D01*
X7339592Y-6566111D01*
X7318382Y-6568200D01*
X6551560Y-6568200D01*
X6542561Y-6554732D01*
X6445268Y-6457439D01*
X6330864Y-6380997D01*
X6203745Y-6328343D01*
X6068796Y-6301500D01*
X5931204Y-6301500D01*
X5796255Y-6328343D01*
X5669136Y-6380997D01*
X5554732Y-6457439D01*
X5457439Y-6554732D01*
X5380997Y-6669136D01*
X5328343Y-6796255D01*
X5301500Y-6931204D01*
X5301500Y-7068796D01*
X5328343Y-7203745D01*
X5380997Y-7330864D01*
X5457439Y-7445268D01*
X5554732Y-7542561D01*
X5669136Y-7619003D01*
X5796255Y-7671657D01*
X5931204Y-7698500D01*
X6068796Y-7698500D01*
X6203745Y-7671657D01*
X6330864Y-7619003D01*
X6445268Y-7542561D01*
X6542561Y-7445268D01*
X6551560Y-7431800D01*
X7160736Y-7431800D01*
X9502451Y-9773516D01*
X9242094Y-10033873D01*
X9197656Y-10088020D01*
X9164636Y-10149796D01*
X9144303Y-10216826D01*
X9137437Y-10286536D01*
X9144303Y-10356246D01*
X9159151Y-10405193D01*
X8798500Y-10765844D01*
X8798500Y-10631204D01*
X8771657Y-10496255D01*
X8719003Y-10369136D01*
X8642561Y-10254732D01*
X8545268Y-10157439D01*
X8430864Y-10080997D01*
X8303745Y-10028343D01*
X8168796Y-10001500D01*
X8031204Y-10001500D01*
X8015318Y-10004660D01*
X5960335Y-7949679D01*
X5946806Y-7933194D01*
X5881056Y-7879234D01*
X5806042Y-7839139D01*
X5724648Y-7814448D01*
X5661210Y-7808200D01*
X5640000Y-7806111D01*
X5618790Y-7808200D01*
X5158527Y-7808200D01*
X5160320Y-7790000D01*
X5160320Y-7390000D01*
X5153454Y-7320290D01*
X5133121Y-7253260D01*
X5100101Y-7191484D01*
X5055663Y-7137337D01*
X5001516Y-7092899D01*
X4939740Y-7059879D01*
X4912526Y-7051624D01*
X5021144Y-7007511D01*
X5124452Y-6821402D01*
X5189468Y-6618714D01*
X5213692Y-6407236D01*
X5196194Y-6195097D01*
X5137645Y-5990448D01*
X5040296Y-5801153D01*
X5021144Y-5772489D01*
X4850667Y-5703254D01*
X4163921Y-6390000D01*
X4178064Y-6404143D01*
X4142143Y-6440064D01*
X4128000Y-6425921D01*
X4113858Y-6440064D01*
X4077937Y-6404143D01*
X4092079Y-6390000D01*
X3405333Y-5703254D01*
X3234856Y-5772489D01*
X3131548Y-5958598D01*
X3066532Y-6161286D01*
X3042308Y-6372764D01*
X3059806Y-6584903D01*
X3118355Y-6789552D01*
X3188132Y-6925234D01*
X3068814Y-6901500D01*
X2931222Y-6901500D01*
X2796273Y-6928343D01*
X2692870Y-6971174D01*
X2654212Y-6913318D01*
X2605894Y-6865000D01*
X2654212Y-6816682D01*
X2693128Y-6758440D01*
X2719934Y-6693725D01*
X2733600Y-6625024D01*
X2733600Y-6104300D01*
X2644700Y-6015400D01*
X2574160Y-6015400D01*
X2602627Y-5964600D01*
X2644700Y-5964600D01*
X2733600Y-5875700D01*
X2733600Y-5667333D01*
X3441254Y-5667333D01*
X4128000Y-6354079D01*
X4814746Y-5667333D01*
X4745511Y-5496856D01*
X4559402Y-5393548D01*
X4356714Y-5328532D01*
X4145236Y-5304308D01*
X3933097Y-5321806D01*
X3728448Y-5380355D01*
X3539153Y-5477704D01*
X3510489Y-5496856D01*
X3441254Y-5667333D01*
X2733600Y-5667333D01*
X2733600Y-5467180D01*
X2739658Y-5416115D01*
X2719550Y-5159721D01*
X2649808Y-4912178D01*
X2533112Y-4682996D01*
X2504094Y-4639568D01*
X2310577Y-4543344D01*
X1819521Y-5034400D01*
X1747679Y-5034400D01*
X2274656Y-4507423D01*
X2178432Y-4313906D01*
X1954077Y-4188181D01*
X1709505Y-4108640D01*
X1454115Y-4078342D01*
X1197721Y-4098450D01*
X950178Y-4168192D01*
X720996Y-4284888D01*
X677568Y-4313906D01*
X581344Y-4507423D01*
X1108321Y-5034400D01*
X1036479Y-5034400D01*
X545423Y-4543344D01*
X405600Y-4612869D01*
X405600Y-2216642D01*
X453665Y-2264707D01*
X663409Y-2404853D01*
X896463Y-2501387D01*
X1143872Y-2550600D01*
X1396128Y-2550600D01*
X1643537Y-2501387D01*
X1876591Y-2404853D01*
X2086335Y-2264707D01*
X2264707Y-2086335D01*
X2404853Y-1876591D01*
X2501387Y-1643537D01*
X2550600Y-1396128D01*
X2550600Y-1143872D01*
X2501387Y-896463D01*
X2404853Y-663409D01*
X2264707Y-453665D01*
X2216642Y-405600D01*
X2950191Y-405600D01*
X2862986Y-492805D01*
G36*
X30866109Y-422033D02*
X30928824Y-484748D01*
X30744157Y-570608D01*
X30627039Y-780278D01*
X30553077Y-1008766D01*
X30525111Y-1247293D01*
X30544218Y-1486694D01*
X30609662Y-1717766D01*
X30718928Y-1931631D01*
X30744157Y-1969392D01*
X30928826Y-2055253D01*
X31714079Y-1270000D01*
X31699937Y-1255858D01*
X31735858Y-1219937D01*
X31750000Y-1234079D01*
X31764143Y-1219937D01*
X31800064Y-1255858D01*
X31785921Y-1270000D01*
X32571174Y-2055253D01*
X32755843Y-1969392D01*
X32872961Y-1759722D01*
X32946923Y-1531234D01*
X32974889Y-1292707D01*
X32955782Y-1053306D01*
X32890338Y-822234D01*
X32781072Y-608369D01*
X32755843Y-570608D01*
X32571176Y-484748D01*
X32633891Y-422033D01*
X32617458Y-405600D01*
X33430191Y-405600D01*
X33342986Y-492805D01*
X33209559Y-692492D01*
X33117653Y-914373D01*
X33070800Y-1149919D01*
X33070800Y-1390081D01*
X33117653Y-1625627D01*
X33209559Y-1847508D01*
X33342986Y-2047195D01*
X33512805Y-2217014D01*
X33712492Y-2350441D01*
X33934373Y-2442347D01*
X34169919Y-2489200D01*
X34410081Y-2489200D01*
X34645627Y-2442347D01*
X34791335Y-2381993D01*
X34863267Y-2453925D01*
X34863278Y-2453934D01*
X36796258Y-4386915D01*
X36809782Y-4403394D01*
X36874064Y-4456149D01*
X36875532Y-4457354D01*
X36950546Y-4497449D01*
X37031940Y-4522140D01*
X37116588Y-4530477D01*
X37137798Y-4528388D01*
X39477732Y-4528388D01*
X40806445Y-5857102D01*
X40790782Y-5886405D01*
X40721844Y-6113661D01*
X40698567Y-6350000D01*
X40721844Y-6586339D01*
X40790782Y-6813595D01*
X40902730Y-7023036D01*
X41053388Y-7206612D01*
X41236964Y-7357270D01*
X41446405Y-7469218D01*
X41673661Y-7538156D01*
X41850776Y-7555600D01*
X41969224Y-7555600D01*
X42146339Y-7538156D01*
X42373595Y-7469218D01*
X42583036Y-7357270D01*
X42766612Y-7206612D01*
X42774400Y-7197122D01*
X42774400Y-8042878D01*
X42766612Y-8033388D01*
X42583036Y-7882730D01*
X42373595Y-7770782D01*
X42146339Y-7701844D01*
X41969224Y-7684400D01*
X41850776Y-7684400D01*
X41673661Y-7701844D01*
X41446405Y-7770782D01*
X41236964Y-7882730D01*
X41053388Y-8033388D01*
X40902730Y-8216964D01*
X40790782Y-8426405D01*
X40721844Y-8653661D01*
X40698567Y-8890000D01*
X40721844Y-9126339D01*
X40790782Y-9353595D01*
X40806445Y-9382898D01*
X40574556Y-9614788D01*
X40334798Y-9614788D01*
X40377270Y-9563036D01*
X40489218Y-9353595D01*
X40558156Y-9126339D01*
X40581433Y-8890000D01*
X40558156Y-8653661D01*
X40489218Y-8426405D01*
X40377270Y-8216964D01*
X40226612Y-8033388D01*
X40043036Y-7882730D01*
X39833595Y-7770782D01*
X39606339Y-7701844D01*
X39429224Y-7684400D01*
X39310776Y-7684400D01*
X39133661Y-7701844D01*
X38906405Y-7770782D01*
X38877101Y-7786445D01*
X38840336Y-7749680D01*
X38826807Y-7733195D01*
X38761057Y-7679235D01*
X38686043Y-7639140D01*
X38604649Y-7614449D01*
X38541211Y-7608201D01*
X38520001Y-7606112D01*
X38498791Y-7608201D01*
X36435385Y-7608201D01*
X36414175Y-7606112D01*
X36392965Y-7608201D01*
X36329527Y-7614449D01*
X36248133Y-7639140D01*
X36173119Y-7679235D01*
X36107369Y-7733195D01*
X36093845Y-7749674D01*
X35684639Y-8158881D01*
X35690454Y-8139710D01*
X35697320Y-8070000D01*
X35697320Y-7170000D01*
X35690454Y-7100290D01*
X35670121Y-7033260D01*
X35637101Y-6971484D01*
X35592663Y-6917337D01*
X35538516Y-6872899D01*
X35476740Y-6839879D01*
X35409710Y-6819546D01*
X35340000Y-6812680D01*
X34740000Y-6812680D01*
X34670290Y-6819546D01*
X34603260Y-6839879D01*
X34541484Y-6872899D01*
X34487337Y-6917337D01*
X34442899Y-6971484D01*
X34409879Y-7033260D01*
X34389546Y-7100290D01*
X34382680Y-7170000D01*
X34382680Y-7816663D01*
X34197320Y-8002023D01*
X34197320Y-7170000D01*
X34190454Y-7100290D01*
X34170121Y-7033260D01*
X34137101Y-6971484D01*
X34092663Y-6917337D01*
X34038516Y-6872899D01*
X33976740Y-6839879D01*
X33909710Y-6819546D01*
X33840000Y-6812680D01*
X33240000Y-6812680D01*
X33170290Y-6819546D01*
X33103260Y-6839879D01*
X33041484Y-6872899D01*
X32987337Y-6917337D01*
X32942899Y-6971484D01*
X32909879Y-7033260D01*
X32889546Y-7100290D01*
X32882680Y-7170000D01*
X32882680Y-7188200D01*
X31887320Y-7188200D01*
X31887320Y-7170000D01*
X31880454Y-7100290D01*
X31860121Y-7033260D01*
X31827101Y-6971484D01*
X31782663Y-6917337D01*
X31728516Y-6872899D01*
X31666740Y-6839879D01*
X31599710Y-6819546D01*
X31530000Y-6812680D01*
X30930000Y-6812680D01*
X30860290Y-6819546D01*
X30793260Y-6839879D01*
X30731484Y-6872899D01*
X30677337Y-6917337D01*
X30632899Y-6971484D01*
X30599879Y-7033260D01*
X30579546Y-7100290D01*
X30572680Y-7170000D01*
X30572680Y-8070000D01*
X30579546Y-8139710D01*
X30599879Y-8206740D01*
X30632899Y-8268516D01*
X30677337Y-8322663D01*
X30731484Y-8367101D01*
X30793260Y-8400121D01*
X30860290Y-8420454D01*
X30930000Y-8427320D01*
X31530000Y-8427320D01*
X31599710Y-8420454D01*
X31666740Y-8400121D01*
X31728516Y-8367101D01*
X31782663Y-8322663D01*
X31827101Y-8268516D01*
X31860121Y-8206740D01*
X31880454Y-8139710D01*
X31887320Y-8070000D01*
X31887320Y-8051800D01*
X32882680Y-8051800D01*
X32882680Y-8070000D01*
X32889546Y-8139710D01*
X32909879Y-8206740D01*
X32942899Y-8268516D01*
X32987337Y-8322663D01*
X33041484Y-8367101D01*
X33103260Y-8400121D01*
X33170290Y-8420454D01*
X33240000Y-8427320D01*
X33772024Y-8427320D01*
X33759642Y-8439702D01*
X26202021Y-8439702D01*
X26907423Y-7734300D01*
X29074400Y-7734300D01*
X29074400Y-8105023D01*
X29088065Y-8173724D01*
X29114871Y-8238439D01*
X29153787Y-8296681D01*
X29203318Y-8346212D01*
X29261560Y-8385128D01*
X29326275Y-8411934D01*
X29394976Y-8425600D01*
X29615700Y-8425600D01*
X29704600Y-8336700D01*
X29704600Y-7645400D01*
X29755400Y-7645400D01*
X29755400Y-8336700D01*
X29844300Y-8425600D01*
X30065024Y-8425600D01*
X30133725Y-8411934D01*
X30198440Y-8385128D01*
X30256682Y-8346212D01*
X30306213Y-8296681D01*
X30345129Y-8238439D01*
X30371935Y-8173724D01*
X30385600Y-8105023D01*
X30385600Y-7734300D01*
X30296700Y-7645400D01*
X29755400Y-7645400D01*
X29704600Y-7645400D01*
X29163300Y-7645400D01*
X29074400Y-7734300D01*
X26907423Y-7734300D01*
X27506746Y-7134977D01*
X29074400Y-7134977D01*
X29074400Y-7505700D01*
X29163300Y-7594600D01*
X29704600Y-7594600D01*
X29704600Y-6903300D01*
X29755400Y-6903300D01*
X29755400Y-7594600D01*
X30296700Y-7594600D01*
X30385600Y-7505700D01*
X30385600Y-7134977D01*
X30371935Y-7066276D01*
X30345129Y-7001561D01*
X30306213Y-6943319D01*
X30256682Y-6893788D01*
X30198440Y-6854872D01*
X30133725Y-6828066D01*
X30065024Y-6814400D01*
X29844300Y-6814400D01*
X29755400Y-6903300D01*
X29704600Y-6903300D01*
X29615700Y-6814400D01*
X29394976Y-6814400D01*
X29326275Y-6828066D01*
X29261560Y-6854872D01*
X29203318Y-6893788D01*
X29153787Y-6943319D01*
X29114871Y-7001561D01*
X29088065Y-7066276D01*
X29074400Y-7134977D01*
X27506746Y-7134977D01*
X28078080Y-6563643D01*
X38183481Y-6563643D01*
X38192040Y-6606680D01*
X38264750Y-6831557D01*
X38379934Y-7037928D01*
X38533166Y-7217862D01*
X38718557Y-7364445D01*
X38928983Y-7472043D01*
X39156357Y-7536521D01*
X39344600Y-7466434D01*
X39344600Y-6375400D01*
X39395400Y-6375400D01*
X39395400Y-7466434D01*
X39583643Y-7536521D01*
X39811017Y-7472043D01*
X40021443Y-7364445D01*
X40206834Y-7217862D01*
X40360066Y-7037928D01*
X40475250Y-6831557D01*
X40547960Y-6606680D01*
X40556519Y-6563643D01*
X40486411Y-6375400D01*
X39395400Y-6375400D01*
X39344600Y-6375400D01*
X38253589Y-6375400D01*
X38183481Y-6563643D01*
X28078080Y-6563643D01*
X28309924Y-6331800D01*
X34198790Y-6331800D01*
X34220000Y-6333889D01*
X34241210Y-6331800D01*
X34304648Y-6325552D01*
X34386042Y-6300861D01*
X34461056Y-6260766D01*
X34526806Y-6206806D01*
X34540335Y-6190321D01*
X34594299Y-6136357D01*
X38183481Y-6136357D01*
X38253589Y-6324600D01*
X39344600Y-6324600D01*
X39344600Y-5233566D01*
X39395400Y-5233566D01*
X39395400Y-6324600D01*
X40486411Y-6324600D01*
X40556519Y-6136357D01*
X40547960Y-6093320D01*
X40475250Y-5868443D01*
X40360066Y-5662072D01*
X40206834Y-5482138D01*
X40021443Y-5335555D01*
X39811017Y-5227957D01*
X39583643Y-5163479D01*
X39395400Y-5233566D01*
X39344600Y-5233566D01*
X39156357Y-5163479D01*
X38928983Y-5227957D01*
X38718557Y-5335555D01*
X38533166Y-5482138D01*
X38379934Y-5662072D01*
X38264750Y-5868443D01*
X38192040Y-6093320D01*
X38183481Y-6136357D01*
X34594299Y-6136357D01*
X34843337Y-5887320D01*
X35340000Y-5887320D01*
X35409710Y-5880454D01*
X35476740Y-5860121D01*
X35538516Y-5827101D01*
X35592663Y-5782663D01*
X35637101Y-5728516D01*
X35670121Y-5666740D01*
X35690454Y-5599710D01*
X35697320Y-5530000D01*
X35697320Y-4630000D01*
X35690454Y-4560290D01*
X35670121Y-4493260D01*
X35637101Y-4431484D01*
X35592663Y-4377337D01*
X35538516Y-4332899D01*
X35476740Y-4299879D01*
X35409710Y-4279546D01*
X35340000Y-4272680D01*
X34740000Y-4272680D01*
X34670290Y-4279546D01*
X34603260Y-4299879D01*
X34541484Y-4332899D01*
X34487337Y-4377337D01*
X34442899Y-4431484D01*
X34409879Y-4493260D01*
X34389546Y-4560290D01*
X34382680Y-4630000D01*
X34382680Y-5126663D01*
X34197320Y-5312023D01*
X34197320Y-4630000D01*
X34190454Y-4560290D01*
X34170121Y-4493260D01*
X34137101Y-4431484D01*
X34092663Y-4377337D01*
X34038516Y-4332899D01*
X33976740Y-4299879D01*
X33909710Y-4279546D01*
X33840000Y-4272680D01*
X33240000Y-4272680D01*
X33170290Y-4279546D01*
X33103260Y-4299879D01*
X33041484Y-4332899D01*
X32987337Y-4377337D01*
X32942899Y-4431484D01*
X32909879Y-4493260D01*
X32889546Y-4560290D01*
X32882680Y-4630000D01*
X32882680Y-4648200D01*
X31887320Y-4648200D01*
X31887320Y-4630000D01*
X31880454Y-4560290D01*
X31860121Y-4493260D01*
X31827101Y-4431484D01*
X31782663Y-4377337D01*
X31728516Y-4332899D01*
X31666740Y-4299879D01*
X31599710Y-4279546D01*
X31530000Y-4272680D01*
X30930000Y-4272680D01*
X30860290Y-4279546D01*
X30793260Y-4299879D01*
X30731484Y-4332899D01*
X30677337Y-4377337D01*
X30632899Y-4431484D01*
X30599879Y-4493260D01*
X30579546Y-4560290D01*
X30572680Y-4630000D01*
X30572680Y-5468200D01*
X30385600Y-5468200D01*
X30385600Y-5194300D01*
X30296700Y-5105400D01*
X29755400Y-5105400D01*
X29755400Y-5125400D01*
X29704600Y-5125400D01*
X29704600Y-5105400D01*
X29684600Y-5105400D01*
X29684600Y-5054600D01*
X29704600Y-5054600D01*
X29704600Y-5034600D01*
X29755400Y-5034600D01*
X29755400Y-5054600D01*
X30296700Y-5054600D01*
X30385600Y-4965700D01*
X30385600Y-4594977D01*
X30371935Y-4526276D01*
X30345129Y-4461561D01*
X30306213Y-4403319D01*
X30256682Y-4353788D01*
X30224317Y-4332162D01*
X30363927Y-4192552D01*
X30380405Y-4179029D01*
X30434365Y-4113279D01*
X30474460Y-4038265D01*
X30499151Y-3956871D01*
X30505399Y-3893433D01*
X30505399Y-3893432D01*
X30507488Y-3872223D01*
X30505399Y-3851013D01*
X30505399Y-2154801D01*
X30507487Y-2133598D01*
X30505399Y-2112395D01*
X30505399Y-2112389D01*
X30503310Y-2091174D01*
X30964747Y-2091174D01*
X31050608Y-2275843D01*
X31260278Y-2392961D01*
X31488766Y-2466923D01*
X31727293Y-2494889D01*
X31966694Y-2475782D01*
X32197766Y-2410338D01*
X32411631Y-2301072D01*
X32449392Y-2275843D01*
X32535253Y-2091174D01*
X31750000Y-1305921D01*
X30964747Y-2091174D01*
X30503310Y-2091174D01*
X30499151Y-2048951D01*
X30498619Y-2047195D01*
X30487417Y-2010271D01*
X30474460Y-1967557D01*
X30434365Y-1892543D01*
X30380405Y-1826793D01*
X30363931Y-1813273D01*
X30321993Y-1771335D01*
X30382347Y-1625627D01*
X30429200Y-1390081D01*
X30429200Y-1149919D01*
X30382347Y-914373D01*
X30290441Y-692492D01*
X30157014Y-492805D01*
X30069809Y-405600D01*
X30882542Y-405600D01*
X30866109Y-422033D01*
X30866109Y-422033D01*
G37*
X30866109Y-422033D02*
X30928824Y-484748D01*
X30744157Y-570608D01*
X30627039Y-780278D01*
X30553077Y-1008766D01*
X30525111Y-1247293D01*
X30544218Y-1486694D01*
X30609662Y-1717766D01*
X30718928Y-1931631D01*
X30744157Y-1969392D01*
X30928826Y-2055253D01*
X31714079Y-1270000D01*
X31699937Y-1255858D01*
X31735858Y-1219937D01*
X31750000Y-1234079D01*
X31764143Y-1219937D01*
X31800064Y-1255858D01*
X31785921Y-1270000D01*
X32571174Y-2055253D01*
X32755843Y-1969392D01*
X32872961Y-1759722D01*
X32946923Y-1531234D01*
X32974889Y-1292707D01*
X32955782Y-1053306D01*
X32890338Y-822234D01*
X32781072Y-608369D01*
X32755843Y-570608D01*
X32571176Y-484748D01*
X32633891Y-422033D01*
X32617458Y-405600D01*
X33430191Y-405600D01*
X33342986Y-492805D01*
X33209559Y-692492D01*
X33117653Y-914373D01*
X33070800Y-1149919D01*
X33070800Y-1390081D01*
X33117653Y-1625627D01*
X33209559Y-1847508D01*
X33342986Y-2047195D01*
X33512805Y-2217014D01*
X33712492Y-2350441D01*
X33934373Y-2442347D01*
X34169919Y-2489200D01*
X34410081Y-2489200D01*
X34645627Y-2442347D01*
X34791335Y-2381993D01*
X34863267Y-2453925D01*
X34863278Y-2453934D01*
X36796258Y-4386915D01*
X36809782Y-4403394D01*
X36874064Y-4456149D01*
X36875532Y-4457354D01*
X36950546Y-4497449D01*
X37031940Y-4522140D01*
X37116588Y-4530477D01*
X37137798Y-4528388D01*
X39477732Y-4528388D01*
X40806445Y-5857102D01*
X40790782Y-5886405D01*
X40721844Y-6113661D01*
X40698567Y-6350000D01*
X40721844Y-6586339D01*
X40790782Y-6813595D01*
X40902730Y-7023036D01*
X41053388Y-7206612D01*
X41236964Y-7357270D01*
X41446405Y-7469218D01*
X41673661Y-7538156D01*
X41850776Y-7555600D01*
X41969224Y-7555600D01*
X42146339Y-7538156D01*
X42373595Y-7469218D01*
X42583036Y-7357270D01*
X42766612Y-7206612D01*
X42774400Y-7197122D01*
X42774400Y-8042878D01*
X42766612Y-8033388D01*
X42583036Y-7882730D01*
X42373595Y-7770782D01*
X42146339Y-7701844D01*
X41969224Y-7684400D01*
X41850776Y-7684400D01*
X41673661Y-7701844D01*
X41446405Y-7770782D01*
X41236964Y-7882730D01*
X41053388Y-8033388D01*
X40902730Y-8216964D01*
X40790782Y-8426405D01*
X40721844Y-8653661D01*
X40698567Y-8890000D01*
X40721844Y-9126339D01*
X40790782Y-9353595D01*
X40806445Y-9382898D01*
X40574556Y-9614788D01*
X40334798Y-9614788D01*
X40377270Y-9563036D01*
X40489218Y-9353595D01*
X40558156Y-9126339D01*
X40581433Y-8890000D01*
X40558156Y-8653661D01*
X40489218Y-8426405D01*
X40377270Y-8216964D01*
X40226612Y-8033388D01*
X40043036Y-7882730D01*
X39833595Y-7770782D01*
X39606339Y-7701844D01*
X39429224Y-7684400D01*
X39310776Y-7684400D01*
X39133661Y-7701844D01*
X38906405Y-7770782D01*
X38877101Y-7786445D01*
X38840336Y-7749680D01*
X38826807Y-7733195D01*
X38761057Y-7679235D01*
X38686043Y-7639140D01*
X38604649Y-7614449D01*
X38541211Y-7608201D01*
X38520001Y-7606112D01*
X38498791Y-7608201D01*
X36435385Y-7608201D01*
X36414175Y-7606112D01*
X36392965Y-7608201D01*
X36329527Y-7614449D01*
X36248133Y-7639140D01*
X36173119Y-7679235D01*
X36107369Y-7733195D01*
X36093845Y-7749674D01*
X35684639Y-8158881D01*
X35690454Y-8139710D01*
X35697320Y-8070000D01*
X35697320Y-7170000D01*
X35690454Y-7100290D01*
X35670121Y-7033260D01*
X35637101Y-6971484D01*
X35592663Y-6917337D01*
X35538516Y-6872899D01*
X35476740Y-6839879D01*
X35409710Y-6819546D01*
X35340000Y-6812680D01*
X34740000Y-6812680D01*
X34670290Y-6819546D01*
X34603260Y-6839879D01*
X34541484Y-6872899D01*
X34487337Y-6917337D01*
X34442899Y-6971484D01*
X34409879Y-7033260D01*
X34389546Y-7100290D01*
X34382680Y-7170000D01*
X34382680Y-7816663D01*
X34197320Y-8002023D01*
X34197320Y-7170000D01*
X34190454Y-7100290D01*
X34170121Y-7033260D01*
X34137101Y-6971484D01*
X34092663Y-6917337D01*
X34038516Y-6872899D01*
X33976740Y-6839879D01*
X33909710Y-6819546D01*
X33840000Y-6812680D01*
X33240000Y-6812680D01*
X33170290Y-6819546D01*
X33103260Y-6839879D01*
X33041484Y-6872899D01*
X32987337Y-6917337D01*
X32942899Y-6971484D01*
X32909879Y-7033260D01*
X32889546Y-7100290D01*
X32882680Y-7170000D01*
X32882680Y-7188200D01*
X31887320Y-7188200D01*
X31887320Y-7170000D01*
X31880454Y-7100290D01*
X31860121Y-7033260D01*
X31827101Y-6971484D01*
X31782663Y-6917337D01*
X31728516Y-6872899D01*
X31666740Y-6839879D01*
X31599710Y-6819546D01*
X31530000Y-6812680D01*
X30930000Y-6812680D01*
X30860290Y-6819546D01*
X30793260Y-6839879D01*
X30731484Y-6872899D01*
X30677337Y-6917337D01*
X30632899Y-6971484D01*
X30599879Y-7033260D01*
X30579546Y-7100290D01*
X30572680Y-7170000D01*
X30572680Y-8070000D01*
X30579546Y-8139710D01*
X30599879Y-8206740D01*
X30632899Y-8268516D01*
X30677337Y-8322663D01*
X30731484Y-8367101D01*
X30793260Y-8400121D01*
X30860290Y-8420454D01*
X30930000Y-8427320D01*
X31530000Y-8427320D01*
X31599710Y-8420454D01*
X31666740Y-8400121D01*
X31728516Y-8367101D01*
X31782663Y-8322663D01*
X31827101Y-8268516D01*
X31860121Y-8206740D01*
X31880454Y-8139710D01*
X31887320Y-8070000D01*
X31887320Y-8051800D01*
X32882680Y-8051800D01*
X32882680Y-8070000D01*
X32889546Y-8139710D01*
X32909879Y-8206740D01*
X32942899Y-8268516D01*
X32987337Y-8322663D01*
X33041484Y-8367101D01*
X33103260Y-8400121D01*
X33170290Y-8420454D01*
X33240000Y-8427320D01*
X33772024Y-8427320D01*
X33759642Y-8439702D01*
X26202021Y-8439702D01*
X26907423Y-7734300D01*
X29074400Y-7734300D01*
X29074400Y-8105023D01*
X29088065Y-8173724D01*
X29114871Y-8238439D01*
X29153787Y-8296681D01*
X29203318Y-8346212D01*
X29261560Y-8385128D01*
X29326275Y-8411934D01*
X29394976Y-8425600D01*
X29615700Y-8425600D01*
X29704600Y-8336700D01*
X29704600Y-7645400D01*
X29755400Y-7645400D01*
X29755400Y-8336700D01*
X29844300Y-8425600D01*
X30065024Y-8425600D01*
X30133725Y-8411934D01*
X30198440Y-8385128D01*
X30256682Y-8346212D01*
X30306213Y-8296681D01*
X30345129Y-8238439D01*
X30371935Y-8173724D01*
X30385600Y-8105023D01*
X30385600Y-7734300D01*
X30296700Y-7645400D01*
X29755400Y-7645400D01*
X29704600Y-7645400D01*
X29163300Y-7645400D01*
X29074400Y-7734300D01*
X26907423Y-7734300D01*
X27506746Y-7134977D01*
X29074400Y-7134977D01*
X29074400Y-7505700D01*
X29163300Y-7594600D01*
X29704600Y-7594600D01*
X29704600Y-6903300D01*
X29755400Y-6903300D01*
X29755400Y-7594600D01*
X30296700Y-7594600D01*
X30385600Y-7505700D01*
X30385600Y-7134977D01*
X30371935Y-7066276D01*
X30345129Y-7001561D01*
X30306213Y-6943319D01*
X30256682Y-6893788D01*
X30198440Y-6854872D01*
X30133725Y-6828066D01*
X30065024Y-6814400D01*
X29844300Y-6814400D01*
X29755400Y-6903300D01*
X29704600Y-6903300D01*
X29615700Y-6814400D01*
X29394976Y-6814400D01*
X29326275Y-6828066D01*
X29261560Y-6854872D01*
X29203318Y-6893788D01*
X29153787Y-6943319D01*
X29114871Y-7001561D01*
X29088065Y-7066276D01*
X29074400Y-7134977D01*
X27506746Y-7134977D01*
X28078080Y-6563643D01*
X38183481Y-6563643D01*
X38192040Y-6606680D01*
X38264750Y-6831557D01*
X38379934Y-7037928D01*
X38533166Y-7217862D01*
X38718557Y-7364445D01*
X38928983Y-7472043D01*
X39156357Y-7536521D01*
X39344600Y-7466434D01*
X39344600Y-6375400D01*
X39395400Y-6375400D01*
X39395400Y-7466434D01*
X39583643Y-7536521D01*
X39811017Y-7472043D01*
X40021443Y-7364445D01*
X40206834Y-7217862D01*
X40360066Y-7037928D01*
X40475250Y-6831557D01*
X40547960Y-6606680D01*
X40556519Y-6563643D01*
X40486411Y-6375400D01*
X39395400Y-6375400D01*
X39344600Y-6375400D01*
X38253589Y-6375400D01*
X38183481Y-6563643D01*
X28078080Y-6563643D01*
X28309924Y-6331800D01*
X34198790Y-6331800D01*
X34220000Y-6333889D01*
X34241210Y-6331800D01*
X34304648Y-6325552D01*
X34386042Y-6300861D01*
X34461056Y-6260766D01*
X34526806Y-6206806D01*
X34540335Y-6190321D01*
X34594299Y-6136357D01*
X38183481Y-6136357D01*
X38253589Y-6324600D01*
X39344600Y-6324600D01*
X39344600Y-5233566D01*
X39395400Y-5233566D01*
X39395400Y-6324600D01*
X40486411Y-6324600D01*
X40556519Y-6136357D01*
X40547960Y-6093320D01*
X40475250Y-5868443D01*
X40360066Y-5662072D01*
X40206834Y-5482138D01*
X40021443Y-5335555D01*
X39811017Y-5227957D01*
X39583643Y-5163479D01*
X39395400Y-5233566D01*
X39344600Y-5233566D01*
X39156357Y-5163479D01*
X38928983Y-5227957D01*
X38718557Y-5335555D01*
X38533166Y-5482138D01*
X38379934Y-5662072D01*
X38264750Y-5868443D01*
X38192040Y-6093320D01*
X38183481Y-6136357D01*
X34594299Y-6136357D01*
X34843337Y-5887320D01*
X35340000Y-5887320D01*
X35409710Y-5880454D01*
X35476740Y-5860121D01*
X35538516Y-5827101D01*
X35592663Y-5782663D01*
X35637101Y-5728516D01*
X35670121Y-5666740D01*
X35690454Y-5599710D01*
X35697320Y-5530000D01*
X35697320Y-4630000D01*
X35690454Y-4560290D01*
X35670121Y-4493260D01*
X35637101Y-4431484D01*
X35592663Y-4377337D01*
X35538516Y-4332899D01*
X35476740Y-4299879D01*
X35409710Y-4279546D01*
X35340000Y-4272680D01*
X34740000Y-4272680D01*
X34670290Y-4279546D01*
X34603260Y-4299879D01*
X34541484Y-4332899D01*
X34487337Y-4377337D01*
X34442899Y-4431484D01*
X34409879Y-4493260D01*
X34389546Y-4560290D01*
X34382680Y-4630000D01*
X34382680Y-5126663D01*
X34197320Y-5312023D01*
X34197320Y-4630000D01*
X34190454Y-4560290D01*
X34170121Y-4493260D01*
X34137101Y-4431484D01*
X34092663Y-4377337D01*
X34038516Y-4332899D01*
X33976740Y-4299879D01*
X33909710Y-4279546D01*
X33840000Y-4272680D01*
X33240000Y-4272680D01*
X33170290Y-4279546D01*
X33103260Y-4299879D01*
X33041484Y-4332899D01*
X32987337Y-4377337D01*
X32942899Y-4431484D01*
X32909879Y-4493260D01*
X32889546Y-4560290D01*
X32882680Y-4630000D01*
X32882680Y-4648200D01*
X31887320Y-4648200D01*
X31887320Y-4630000D01*
X31880454Y-4560290D01*
X31860121Y-4493260D01*
X31827101Y-4431484D01*
X31782663Y-4377337D01*
X31728516Y-4332899D01*
X31666740Y-4299879D01*
X31599710Y-4279546D01*
X31530000Y-4272680D01*
X30930000Y-4272680D01*
X30860290Y-4279546D01*
X30793260Y-4299879D01*
X30731484Y-4332899D01*
X30677337Y-4377337D01*
X30632899Y-4431484D01*
X30599879Y-4493260D01*
X30579546Y-4560290D01*
X30572680Y-4630000D01*
X30572680Y-5468200D01*
X30385600Y-5468200D01*
X30385600Y-5194300D01*
X30296700Y-5105400D01*
X29755400Y-5105400D01*
X29755400Y-5125400D01*
X29704600Y-5125400D01*
X29704600Y-5105400D01*
X29684600Y-5105400D01*
X29684600Y-5054600D01*
X29704600Y-5054600D01*
X29704600Y-5034600D01*
X29755400Y-5034600D01*
X29755400Y-5054600D01*
X30296700Y-5054600D01*
X30385600Y-4965700D01*
X30385600Y-4594977D01*
X30371935Y-4526276D01*
X30345129Y-4461561D01*
X30306213Y-4403319D01*
X30256682Y-4353788D01*
X30224317Y-4332162D01*
X30363927Y-4192552D01*
X30380405Y-4179029D01*
X30434365Y-4113279D01*
X30474460Y-4038265D01*
X30499151Y-3956871D01*
X30505399Y-3893433D01*
X30505399Y-3893432D01*
X30507488Y-3872223D01*
X30505399Y-3851013D01*
X30505399Y-2154801D01*
X30507487Y-2133598D01*
X30505399Y-2112395D01*
X30505399Y-2112389D01*
X30503310Y-2091174D01*
X30964747Y-2091174D01*
X31050608Y-2275843D01*
X31260278Y-2392961D01*
X31488766Y-2466923D01*
X31727293Y-2494889D01*
X31966694Y-2475782D01*
X32197766Y-2410338D01*
X32411631Y-2301072D01*
X32449392Y-2275843D01*
X32535253Y-2091174D01*
X31750000Y-1305921D01*
X30964747Y-2091174D01*
X30503310Y-2091174D01*
X30499151Y-2048951D01*
X30498619Y-2047195D01*
X30487417Y-2010271D01*
X30474460Y-1967557D01*
X30434365Y-1892543D01*
X30380405Y-1826793D01*
X30363931Y-1813273D01*
X30321993Y-1771335D01*
X30382347Y-1625627D01*
X30429200Y-1390081D01*
X30429200Y-1149919D01*
X30382347Y-914373D01*
X30290441Y-692492D01*
X30157014Y-492805D01*
X30069809Y-405600D01*
X30882542Y-405600D01*
X30866109Y-422033D01*
G36*
X38181844Y-8653661D02*
X38158567Y-8890000D01*
X38181844Y-9126339D01*
X38250782Y-9353595D01*
X38362730Y-9563036D01*
X38405202Y-9614788D01*
X35682718Y-9614788D01*
X35670121Y-9573260D01*
X35637101Y-9511484D01*
X35599349Y-9465483D01*
X36593032Y-8471801D01*
X38237011Y-8471801D01*
X38181844Y-8653661D01*
X38181844Y-8653661D01*
G37*
X38181844Y-8653661D02*
X38158567Y-8890000D01*
X38181844Y-9126339D01*
X38250782Y-9353595D01*
X38362730Y-9563036D01*
X38405202Y-9614788D01*
X35682718Y-9614788D01*
X35670121Y-9573260D01*
X35637101Y-9511484D01*
X35599349Y-9465483D01*
X36593032Y-8471801D01*
X38237011Y-8471801D01*
X38181844Y-8653661D01*
G36*
X24072274Y-3660085D02*
X24199393Y-3712739D01*
X24334342Y-3739582D01*
X24348899Y-3739582D01*
X24679322Y-4070005D01*
X24676162Y-4085892D01*
X24676162Y-4223484D01*
X24703005Y-4358433D01*
X24755659Y-4485552D01*
X24832101Y-4599956D01*
X24929394Y-4697249D01*
X25043798Y-4773691D01*
X25170917Y-4826345D01*
X25305866Y-4853188D01*
X25443458Y-4853188D01*
X25512680Y-4839419D01*
X25512680Y-5390000D01*
X25519546Y-5459710D01*
X25539879Y-5526740D01*
X25572899Y-5588516D01*
X25617337Y-5642663D01*
X25671484Y-5687101D01*
X25733260Y-5720121D01*
X25800290Y-5740454D01*
X25870000Y-5747320D01*
X27242023Y-5747320D01*
X25384446Y-7604898D01*
X25426345Y-7503744D01*
X25453188Y-7368795D01*
X25453188Y-7231203D01*
X25426345Y-7096254D01*
X25373691Y-6969135D01*
X25297249Y-6854731D01*
X25199956Y-6757438D01*
X25085552Y-6680996D01*
X24958433Y-6628342D01*
X24823484Y-6601499D01*
X24685892Y-6601499D01*
X24550943Y-6628342D01*
X24423824Y-6680996D01*
X24309420Y-6757438D01*
X24212127Y-6854731D01*
X24199929Y-6872987D01*
X24185107Y-6874447D01*
X24103713Y-6899138D01*
X24028699Y-6939233D01*
X23962949Y-6993193D01*
X23949420Y-7009678D01*
X23801250Y-7157848D01*
X23156930Y-7157848D01*
X23147931Y-7144380D01*
X23050638Y-7047087D01*
X22936234Y-6970645D01*
X22919197Y-6963588D01*
X23890333Y-5992453D01*
X23906806Y-5978934D01*
X23960766Y-5913184D01*
X24000861Y-5838170D01*
X24025552Y-5756776D01*
X24031706Y-5694289D01*
X24033889Y-5672129D01*
X24031800Y-5650919D01*
X24031800Y-3633041D01*
X24072274Y-3660085D01*
X24072274Y-3660085D01*
G37*
X24072274Y-3660085D02*
X24199393Y-3712739D01*
X24334342Y-3739582D01*
X24348899Y-3739582D01*
X24679322Y-4070005D01*
X24676162Y-4085892D01*
X24676162Y-4223484D01*
X24703005Y-4358433D01*
X24755659Y-4485552D01*
X24832101Y-4599956D01*
X24929394Y-4697249D01*
X25043798Y-4773691D01*
X25170917Y-4826345D01*
X25305866Y-4853188D01*
X25443458Y-4853188D01*
X25512680Y-4839419D01*
X25512680Y-5390000D01*
X25519546Y-5459710D01*
X25539879Y-5526740D01*
X25572899Y-5588516D01*
X25617337Y-5642663D01*
X25671484Y-5687101D01*
X25733260Y-5720121D01*
X25800290Y-5740454D01*
X25870000Y-5747320D01*
X27242023Y-5747320D01*
X25384446Y-7604898D01*
X25426345Y-7503744D01*
X25453188Y-7368795D01*
X25453188Y-7231203D01*
X25426345Y-7096254D01*
X25373691Y-6969135D01*
X25297249Y-6854731D01*
X25199956Y-6757438D01*
X25085552Y-6680996D01*
X24958433Y-6628342D01*
X24823484Y-6601499D01*
X24685892Y-6601499D01*
X24550943Y-6628342D01*
X24423824Y-6680996D01*
X24309420Y-6757438D01*
X24212127Y-6854731D01*
X24199929Y-6872987D01*
X24185107Y-6874447D01*
X24103713Y-6899138D01*
X24028699Y-6939233D01*
X23962949Y-6993193D01*
X23949420Y-7009678D01*
X23801250Y-7157848D01*
X23156930Y-7157848D01*
X23147931Y-7144380D01*
X23050638Y-7047087D01*
X22936234Y-6970645D01*
X22919197Y-6963588D01*
X23890333Y-5992453D01*
X23906806Y-5978934D01*
X23960766Y-5913184D01*
X24000861Y-5838170D01*
X24025552Y-5756776D01*
X24031706Y-5694289D01*
X24033889Y-5672129D01*
X24031800Y-5650919D01*
X24031800Y-3633041D01*
X24072274Y-3660085D01*
G36*
X18012425Y-5587811D02*
X17998282Y-5601953D01*
X18012425Y-5616096D01*
X17976504Y-5652017D01*
X17962361Y-5637874D01*
X17226051Y-6374184D01*
X17226051Y-6499908D01*
X17343543Y-6617400D01*
X16535899Y-6617400D01*
X16362600Y-6444101D01*
X16362600Y-6245229D01*
X16385229Y-6222600D01*
X16669239Y-6222600D01*
X16692944Y-6224935D01*
X16716649Y-6222600D01*
X16716651Y-6222600D01*
X16787550Y-6215617D01*
X16878521Y-6188022D01*
X16907680Y-6172436D01*
X16926009Y-6199866D01*
X17064406Y-6338263D01*
X17190130Y-6338263D01*
X17926440Y-5601953D01*
X17912298Y-5587811D01*
X17948219Y-5551890D01*
X17962361Y-5566032D01*
X17976504Y-5551890D01*
X18012425Y-5587811D01*
X18012425Y-5587811D01*
G37*
X18012425Y-5587811D02*
X17998282Y-5601953D01*
X18012425Y-5616096D01*
X17976504Y-5652017D01*
X17962361Y-5637874D01*
X17226051Y-6374184D01*
X17226051Y-6499908D01*
X17343543Y-6617400D01*
X16535899Y-6617400D01*
X16362600Y-6444101D01*
X16362600Y-6245229D01*
X16385229Y-6222600D01*
X16669239Y-6222600D01*
X16692944Y-6224935D01*
X16716649Y-6222600D01*
X16716651Y-6222600D01*
X16787550Y-6215617D01*
X16878521Y-6188022D01*
X16907680Y-6172436D01*
X16926009Y-6199866D01*
X17064406Y-6338263D01*
X17190130Y-6338263D01*
X17926440Y-5601953D01*
X17912298Y-5587811D01*
X17948219Y-5551890D01*
X17962361Y-5566032D01*
X17976504Y-5551890D01*
X18012425Y-5587811D01*
G36*
X23182986Y-492805D02*
X23049559Y-692492D01*
X22957653Y-914373D01*
X22910800Y-1149919D01*
X22910800Y-1390081D01*
X22957653Y-1625627D01*
X23018008Y-1771336D01*
X22933361Y-1855983D01*
X22916882Y-1869507D01*
X22862922Y-1935257D01*
X22845658Y-1967556D01*
X22822827Y-2010271D01*
X22798135Y-2091666D01*
X22789798Y-2176313D01*
X22791888Y-2197533D01*
X22791887Y-4723203D01*
X22778465Y-4712188D01*
X22716689Y-4679168D01*
X22676145Y-4666869D01*
X22674396Y-4658078D01*
X22647591Y-4593363D01*
X22608675Y-4535120D01*
X22452600Y-4379045D01*
X22326876Y-4379045D01*
X21625921Y-5080000D01*
X21640064Y-5094143D01*
X21604143Y-5130064D01*
X21590000Y-5115921D01*
X21575858Y-5130064D01*
X21539937Y-5094143D01*
X21554079Y-5080000D01*
X21539937Y-5065858D01*
X21575858Y-5029937D01*
X21590000Y-5044079D01*
X22290955Y-4343124D01*
X22290955Y-4217400D01*
X22134880Y-4061325D01*
X22076637Y-4022409D01*
X22011922Y-3995604D01*
X22003131Y-3993855D01*
X21990832Y-3953311D01*
X21957812Y-3891535D01*
X21913374Y-3837388D01*
X21489110Y-3413124D01*
X21434963Y-3368686D01*
X21373187Y-3335666D01*
X21306157Y-3315333D01*
X21236447Y-3308467D01*
X21166737Y-3315333D01*
X21099707Y-3335666D01*
X21037931Y-3368686D01*
X20983784Y-3413124D01*
X20758782Y-3638126D01*
X20295656Y-3175000D01*
X21046727Y-2423930D01*
X21046731Y-2423925D01*
X21088664Y-2381992D01*
X21234373Y-2442347D01*
X21469919Y-2489200D01*
X21710081Y-2489200D01*
X21945627Y-2442347D01*
X22167508Y-2350441D01*
X22367195Y-2217014D01*
X22537014Y-2047195D01*
X22670441Y-1847508D01*
X22762347Y-1625627D01*
X22809200Y-1390081D01*
X22809200Y-1149919D01*
X22762347Y-914373D01*
X22670441Y-692492D01*
X22537014Y-492805D01*
X22449809Y-405600D01*
X23270191Y-405600D01*
X23182986Y-492805D01*
X23182986Y-492805D01*
G37*
X23182986Y-492805D02*
X23049559Y-692492D01*
X22957653Y-914373D01*
X22910800Y-1149919D01*
X22910800Y-1390081D01*
X22957653Y-1625627D01*
X23018008Y-1771336D01*
X22933361Y-1855983D01*
X22916882Y-1869507D01*
X22862922Y-1935257D01*
X22845658Y-1967556D01*
X22822827Y-2010271D01*
X22798135Y-2091666D01*
X22789798Y-2176313D01*
X22791888Y-2197533D01*
X22791887Y-4723203D01*
X22778465Y-4712188D01*
X22716689Y-4679168D01*
X22676145Y-4666869D01*
X22674396Y-4658078D01*
X22647591Y-4593363D01*
X22608675Y-4535120D01*
X22452600Y-4379045D01*
X22326876Y-4379045D01*
X21625921Y-5080000D01*
X21640064Y-5094143D01*
X21604143Y-5130064D01*
X21590000Y-5115921D01*
X21575858Y-5130064D01*
X21539937Y-5094143D01*
X21554079Y-5080000D01*
X21539937Y-5065858D01*
X21575858Y-5029937D01*
X21590000Y-5044079D01*
X22290955Y-4343124D01*
X22290955Y-4217400D01*
X22134880Y-4061325D01*
X22076637Y-4022409D01*
X22011922Y-3995604D01*
X22003131Y-3993855D01*
X21990832Y-3953311D01*
X21957812Y-3891535D01*
X21913374Y-3837388D01*
X21489110Y-3413124D01*
X21434963Y-3368686D01*
X21373187Y-3335666D01*
X21306157Y-3315333D01*
X21236447Y-3308467D01*
X21166737Y-3315333D01*
X21099707Y-3335666D01*
X21037931Y-3368686D01*
X20983784Y-3413124D01*
X20758782Y-3638126D01*
X20295656Y-3175000D01*
X21046727Y-2423930D01*
X21046731Y-2423925D01*
X21088664Y-2381992D01*
X21234373Y-2442347D01*
X21469919Y-2489200D01*
X21710081Y-2489200D01*
X21945627Y-2442347D01*
X22167508Y-2350441D01*
X22367195Y-2217014D01*
X22537014Y-2047195D01*
X22670441Y-1847508D01*
X22762347Y-1625627D01*
X22809200Y-1390081D01*
X22809200Y-1149919D01*
X22762347Y-914373D01*
X22670441Y-692492D01*
X22537014Y-492805D01*
X22449809Y-405600D01*
X23270191Y-405600D01*
X23182986Y-492805D01*
M02*
