M48
;DRILL file {KiCad 4.0.7} date 05/30/18 02:56:47
;FORMAT={-:-/ absolute / metric / decimal}
FMAT,2
METRIC,TZ
T1C0.330
T2C0.850
T3C1.000
T4C1.016
T5C1.300
T6C1.850
%
G90
G05
M71
T1
X3.Y-7.6
X6.Y-7.
X6.Y-13.1
X6.1Y-9.6
X7.4Y-13.7
X8.1Y-10.7
X9.6Y-14.9
X11.555Y-13.5
X12.652Y-10.467
X13.399Y-9.676
X13.7Y-7.
X14.54Y-11.498
X14.802Y-10.702
X14.894Y-9.112
X15.299Y-8.378
X15.753Y-10.877
X15.88Y-5.74
X15.88Y-12.04
X16.6Y-8.1
X18.5Y-4.272
X20.1Y-5.8
X20.2Y-13.
X21.055Y-8.268
X22.2Y-10.801
X22.3Y-13.
X22.304Y-9.97
X22.418Y-9.139
X22.5Y-4.3
X22.594Y-13.793
X22.605Y-7.59
X23.3Y-6.8
X23.638Y-13.036
X23.7Y-12.2
X24.072Y-9.744
X24.1Y-15.
X24.273Y-11.472
X24.403Y-3.041
X24.755Y-7.3
X24.8Y-5.7
X24.949Y-12.489
X25.375Y-4.155
X25.519Y-9.355
X25.631Y-10.323
X26.8Y-9.8
X27.965Y-1.815
X27.965Y-3.276
X28.4Y-11.2
X29.3Y-3.7
X31.1Y-13.95
X32.1Y-13.3
X32.3Y-8.3
X32.3Y-11.3
X36.17Y-9.13
X37.1Y-7.3
X40.2Y-14.
T2
X4.128Y-6.39
X4.128Y-11.39
T3
X39.37Y-6.35
X39.37Y-8.89
X39.37Y-11.43
X41.91Y-6.35
X41.91Y-8.89
X41.91Y-11.43
T4
X3.81Y-1.27
X3.81Y-16.51
X6.35Y-1.27
X6.35Y-16.51
X8.89Y-1.27
X8.89Y-16.51
X11.43Y-1.27
X11.43Y-16.51
X13.97Y-1.27
X13.97Y-16.51
X16.51Y-1.27
X16.51Y-16.51
X19.05Y-1.27
X19.05Y-16.51
X21.59Y-1.27
X21.59Y-16.51
X24.13Y-1.27
X24.13Y-16.51
X26.67Y-1.27
X26.67Y-16.51
X29.21Y-1.27
X29.21Y-16.51
X31.75Y-1.27
X31.75Y-16.51
X34.29Y-1.27
X34.29Y-16.51
X36.83Y-1.27
X36.83Y-16.51
X39.37Y-1.27
X39.37Y-16.51
T5
X1.428Y-5.39
X1.428Y-12.39
T6
X1.27Y-1.27
X1.27Y-16.51
X41.91Y-1.27
X41.91Y-16.51
T0
M30
