G04 #@! TF.FileFunction,Soldermask,Bot*
%FSLAX46Y46*%
G04 Gerber Fmt 4.6, Leading zero omitted, Abs format (unit mm)*
G04 Created by KiCad (PCBNEW 4.0.7) date 05/30/18 02:56:49*
%MOMM*%
%LPD*%
G01*
G04 APERTURE LIST*
%ADD10C,0.100000*%
%ADD11C,1.551600*%
%ADD12C,2.001600*%
%ADD13R,0.701600X1.001600*%
%ADD14R,1.001600X0.701600*%
%ADD15R,2.051600X1.601600*%
%ADD16R,1.001600X1.301600*%
%ADD17R,1.625600X3.149600*%
%ADD18R,1.801600X1.801600*%
%ADD19O,1.801600X1.801600*%
%ADD20R,2.101600X3.901600*%
%ADD21R,2.101600X1.601600*%
%ADD22R,0.901600X1.401600*%
%ADD23R,0.701600X1.601600*%
%ADD24C,1.828800*%
%ADD25R,1.828800X1.828800*%
%ADD26C,1.951600*%
G04 APERTURE END LIST*
D10*
D11*
X4128000Y-6390000D03*
X4128000Y-11390000D03*
D12*
X1428000Y-5390000D03*
X1428000Y-12390000D03*
D13*
X12350000Y-13650000D03*
X10850000Y-13650000D03*
D14*
X18850000Y-10650000D03*
X18850000Y-12150000D03*
X17600000Y-9650000D03*
X17600000Y-8150000D03*
X17600000Y-10650000D03*
X17600000Y-12150000D03*
X18850000Y-9650000D03*
X18850000Y-8150000D03*
X18850000Y-7150000D03*
X18850000Y-5650000D03*
X17600000Y-5650000D03*
X17600000Y-7150000D03*
D15*
X28975000Y-7900000D03*
X26225000Y-7900000D03*
X28975000Y-5400000D03*
X26225000Y-5400000D03*
D13*
X8600000Y-13650000D03*
X10100000Y-13650000D03*
D16*
X4825000Y-8890000D03*
X1525000Y-8890000D03*
D17*
X35632000Y-5900000D03*
X31568000Y-5900000D03*
D18*
X41910000Y-11430000D03*
D19*
X39370000Y-11430000D03*
X41910000Y-8890000D03*
X39370000Y-8890000D03*
X41910000Y-6350000D03*
X39370000Y-6350000D03*
D14*
X20100000Y-12150000D03*
X20100000Y-10650000D03*
X21350000Y-12150000D03*
X21350000Y-10650000D03*
D13*
X28600000Y-14400000D03*
X30100000Y-14400000D03*
D20*
X29870000Y-11430000D03*
D21*
X36170000Y-11430000D03*
X36170000Y-13730000D03*
X36170000Y-9130000D03*
D22*
X15880000Y-12040000D03*
X14600000Y-12040000D03*
X13340000Y-12040000D03*
X12070000Y-12040000D03*
X10790000Y-12040000D03*
X9520000Y-12040000D03*
X8260000Y-12040000D03*
X6980000Y-12040000D03*
X6980000Y-5740000D03*
X8260000Y-5740000D03*
X9520000Y-5740000D03*
X10790000Y-5740000D03*
X12070000Y-5740000D03*
X13340000Y-5740000D03*
X14600000Y-5740000D03*
X15880000Y-5740000D03*
D23*
X6550000Y-14400000D03*
X5600000Y-14400000D03*
X4650000Y-14400000D03*
D24*
X39370000Y-16510000D03*
X36830000Y-16510000D03*
X34290000Y-16510000D03*
X31750000Y-16510000D03*
X29210000Y-16510000D03*
X26670000Y-16510000D03*
X24130000Y-16510000D03*
X21590000Y-16510000D03*
X19050000Y-16510000D03*
X16510000Y-16510000D03*
X13970000Y-16510000D03*
X11430000Y-16510000D03*
X8890000Y-16510000D03*
X6350000Y-16510000D03*
X3810000Y-16510000D03*
X3810000Y-1270000D03*
X6350000Y-1270000D03*
X8890000Y-1270000D03*
X11430000Y-1270000D03*
X13970000Y-1270000D03*
X16510000Y-1270000D03*
X19050000Y-1270000D03*
X21590000Y-1270000D03*
X24130000Y-1270000D03*
X26670000Y-1270000D03*
X29210000Y-1270000D03*
X31750000Y-1270000D03*
X34290000Y-1270000D03*
X36830000Y-1270000D03*
D25*
X39370000Y-1270000D03*
D26*
X41910000Y-1270000D03*
X41910000Y-16510000D03*
X1270000Y-1270000D03*
X1270000Y-16510000D03*
M02*
